<svg width="280" height="153" viewBox="0 0 280 153" fill="none" xmlns="http://www.w3.org/2000/svg">
<g filter="url(#filter0_d_175_8965)">
<rect x="16" y="16.5" width="248" height="104" rx="16" fill="#1A1A1A"/>
<path d="M122.667 78.8124C122.667 82.6093 125.745 85.6874 129.542 85.6874C129.542 88.8515 132.107 91.4166 135.271 91.4166C138.436 91.4166 141.001 88.8515 141.001 85.6874C141.001 88.8515 143.566 91.4163 146.73 91.4163C149.894 91.4163 152.459 88.8513 152.459 85.6872C156.256 85.6872 159.334 82.6091 159.334 78.8122C159.334 77.509 158.971 76.2905 158.342 75.2521C161.517 74.6447 163.917 71.8524 163.917 68.4997C163.917 65.1469 161.517 62.3547 158.342 61.7473C158.971 60.7088 159.334 59.4904 159.334 58.1872C159.334 54.3902 156.256 51.3122 152.459 51.3122C152.459 48.148 149.894 45.583 146.73 45.583C143.566 45.583 141.001 48.1483 141.001 51.3124C141.001 48.1483 138.436 45.5832 135.271 45.5832C132.107 45.5832 129.542 48.1483 129.542 51.3124C125.745 51.3124 122.667 54.3904 122.667 58.1874C122.667 59.4906 123.03 60.7091 123.66 61.7475C120.484 62.3549 118.084 65.1471 118.084 68.4999C118.084 71.8527 120.484 74.6449 123.66 75.2523C123.03 76.2907 122.667 77.5092 122.667 78.8124Z" stroke="#FFFE54" stroke-width="3" stroke-linecap="round" stroke-linejoin="round"/>
<rect x="130" y="56.5" width="23" height="23" stroke="#FFFE54"/>
<path d="M149.5 70.5V62.5C149.5 60.6144 149.5 59.6716 148.914 59.0858C148.328 58.5 147.386 58.5 145.5 58.5H137.5C135.614 58.5 134.672 58.5 134.086 59.0858C133.5 59.6716 133.5 60.6144 133.5 62.5V70.5" stroke="#FFFE54" stroke-width="1.5" stroke-linecap="round" stroke-linejoin="round"/>
<path d="M137.5 64.3935H137.662C138.473 64.3935 138.879 64.3935 139.189 64.5677C139.498 64.7419 139.638 65.0484 139.916 65.6613L140.252 66.4019C140.435 66.8046 140.527 67.006 140.675 66.9998C140.822 66.9935 140.887 66.7855 141.016 66.3695L142.173 62.6473C142.306 62.2193 142.373 62.0052 142.522 62C142.671 61.9948 142.76 62.2033 142.939 62.6204L143.142 63.0928C143.412 63.721 143.546 64.0351 143.859 64.2143C144.171 64.3935 144.585 64.3935 145.411 64.3935H145.5" stroke="#FFFE54" stroke-width="1.5" stroke-linecap="round" stroke-linejoin="round"/>
<path d="M132.998 71.5154L133.52 70.5H149.452L150.002 71.5154C151.445 74.177 151.805 75.5077 151.256 76.5039C150.708 77.5 149.254 77.5 146.345 77.5L136.655 77.5C133.746 77.5 132.292 77.5 131.744 76.5039C131.195 75.5077 131.555 74.177 132.998 71.5154Z" stroke="#FFFE54" stroke-width="1.5" stroke-linecap="round" stroke-linejoin="round"/>
</g>
<defs>
<filter id="filter0_d_175_8965" x="-13.55" y="-9.3" width="305.6" height="161.6" filterUnits="userSpaceOnUse" color-interpolation-filters="sRGB">
<feFlood flood-opacity="0" result="BackgroundImageFix"/>
<feColorMatrix in="SourceAlpha" type="matrix" values="0 0 0 0 0 0 0 0 0 0 0 0 0 0 0 0 0 0 127 0" result="hardAlpha"/>
<feMorphology radius="10" operator="dilate" in="SourceAlpha" result="effect1_dropShadow_175_8965"/>
<feOffset dx="-0.75" dy="3"/>
<feGaussianBlur stdDeviation="9.4"/>
<feComposite in2="hardAlpha" operator="out"/>
<feColorMatrix type="matrix" values="0 0 0 0 0.819608 0 0 0 0 0.819608 0 0 0 0 0.819608 0 0 0 1 0"/>
<feBlend mode="normal" in2="BackgroundImageFix" result="effect1_dropShadow_175_8965"/>
<feBlend mode="normal" in="SourceGraphic" in2="effect1_dropShadow_175_8965" result="shape"/>
</filter>
</defs>
</svg>
