<svg width="280" height="153" viewBox="0 0 280 153" fill="none" xmlns="http://www.w3.org/2000/svg">
<g filter="url(#filter0_d_175_8982)">
<rect x="16" y="16.5" width="248" height="104" rx="16" fill="#1A1A1A"/>
<path d="M140.5 81.25V90.4167" stroke="#91FFBF" stroke-width="3" stroke-linecap="round" stroke-linejoin="round"/>
<path d="M132.479 90.4167L133.231 89.6645C134.555 88.3396 135.218 87.6771 136.06 87.3282C136.902 86.9792 137.839 86.9792 139.713 86.9792H141.285C143.159 86.9792 144.095 86.9792 144.938 87.3281C145.78 87.677 146.442 88.3394 147.767 89.6641L148.52 90.4167" stroke="#91FFBF" stroke-width="3" stroke-linecap="round" stroke-linejoin="round"/>
<path d="M118.729 67.4999C118.729 73.9817 118.729 77.2226 120.742 79.2363C122.756 81.2499 125.997 81.2499 132.479 81.2499H148.52C155.002 81.2499 158.243 81.2499 160.257 79.2363C162.27 77.2226 162.27 73.9817 162.27 67.4999V58.3333C162.27 51.8514 162.27 48.6105 160.257 46.5969C158.243 44.5833 155.002 44.5833 148.52 44.5833H132.479C125.997 44.5833 122.756 44.5833 120.742 46.5969C118.729 48.6105 118.729 51.8514 118.729 58.3333V67.4999Z" stroke="#91FFBF" stroke-width="3"/>
<path d="M131.334 69.7917V62.9167M140.501 69.7917V56.0417M149.667 69.7917V65.2084" stroke="#91FFBF" stroke-width="3" stroke-linecap="round"/>
</g>
<defs>
<filter id="filter0_d_175_8982" x="-13.55" y="-9.3" width="305.6" height="161.6" filterUnits="userSpaceOnUse" color-interpolation-filters="sRGB">
<feFlood flood-opacity="0" result="BackgroundImageFix"/>
<feColorMatrix in="SourceAlpha" type="matrix" values="0 0 0 0 0 0 0 0 0 0 0 0 0 0 0 0 0 0 127 0" result="hardAlpha"/>
<feMorphology radius="10" operator="dilate" in="SourceAlpha" result="effect1_dropShadow_175_8982"/>
<feOffset dx="-0.75" dy="3"/>
<feGaussianBlur stdDeviation="9.4"/>
<feComposite in2="hardAlpha" operator="out"/>
<feColorMatrix type="matrix" values="0 0 0 0 0.819608 0 0 0 0 0.819608 0 0 0 0 0.819608 0 0 0 1 0"/>
<feBlend mode="normal" in2="BackgroundImageFix" result="effect1_dropShadow_175_8982"/>
<feBlend mode="normal" in="SourceGraphic" in2="effect1_dropShadow_175_8982" result="shape"/>
</filter>
</defs>
</svg>
