<svg width="280" height="153" viewBox="0 0 280 153" fill="none" xmlns="http://www.w3.org/2000/svg">
<g filter="url(#filter0_d_399_39239)">
<rect x="16" y="16.5" width="248" height="104" rx="16" fill="#1A1A1A"/>
<path d="M122.78 50.9178C126.645 47.9377 132.647 45.5833 140.5 45.5833C148.353 45.5833 154.355 47.9377 158.22 50.9178C158.763 51.3364 159.034 51.5457 159.257 51.9166C159.444 52.228 159.579 52.7002 159.584 53.0633C159.59 53.4959 159.446 53.8807 159.157 54.6502C158.445 56.5498 158.089 57.4996 157.945 58.4402C157.763 59.6267 157.761 59.917 157.929 61.1056C158.061 62.0479 158.786 64.0537 160.236 68.0652C160.768 69.5357 161.125 71.2023 161.125 73.0833C161.125 79.9583 155.396 85.401 149.667 86.8333C144.644 88.089 142.028 89.8888 140.5 91.4166C138.972 89.8888 136.356 88.089 131.333 86.8333C125.604 85.401 119.875 79.9583 119.875 73.0833C119.875 71.2023 120.232 69.5357 120.764 68.0652C122.214 64.0537 122.939 62.0479 123.071 61.1056C123.239 59.917 123.237 59.6267 123.055 58.4402C122.911 57.4996 122.555 56.5498 121.843 54.6502C121.554 53.8807 121.41 53.4959 121.416 53.0633C121.421 52.7002 121.556 52.228 121.743 51.9166C121.966 51.5457 122.237 51.3364 122.78 50.9178Z" stroke="white" stroke-width="3" stroke-linecap="round" stroke-linejoin="round"/>
<path d="M142.084 58.3656L143.697 61.6186C143.917 62.0714 144.503 62.5057 144.998 62.5889L147.922 63.0787C149.792 63.3929 150.232 64.7606 148.885 66.1099L146.612 68.4017C146.227 68.7899 146.016 69.5384 146.135 70.0744L146.786 72.9115C147.299 75.1572 146.117 76.0259 144.146 74.8522L141.405 73.2165C140.911 72.9208 140.095 72.9208 139.591 73.2165L136.85 74.8522C134.889 76.0259 133.697 75.148 134.21 72.9115L134.861 70.0744C134.98 69.5384 134.77 68.7899 134.385 68.4017L132.111 66.1099C130.773 64.7606 131.204 63.3929 133.074 63.0787L135.998 62.5889C136.483 62.5057 137.07 62.0714 137.29 61.6186L138.903 58.3656C139.783 56.6005 141.213 56.6005 142.084 58.3656Z" stroke="white" stroke-width="3" stroke-linecap="round" stroke-linejoin="round"/>
</g>
<defs>
<filter id="filter0_d_399_39239" x="-13.55" y="-9.3" width="305.6" height="161.6" filterUnits="userSpaceOnUse" color-interpolation-filters="sRGB">
<feFlood flood-opacity="0" result="BackgroundImageFix"/>
<feColorMatrix in="SourceAlpha" type="matrix" values="0 0 0 0 0 0 0 0 0 0 0 0 0 0 0 0 0 0 127 0" result="hardAlpha"/>
<feMorphology radius="10" operator="dilate" in="SourceAlpha" result="effect1_dropShadow_399_39239"/>
<feOffset dx="-0.75" dy="3"/>
<feGaussianBlur stdDeviation="9.4"/>
<feComposite in2="hardAlpha" operator="out"/>
<feColorMatrix type="matrix" values="0 0 0 0 0.819608 0 0 0 0 0.819608 0 0 0 0 0.819608 0 0 0 1 0"/>
<feBlend mode="normal" in2="BackgroundImageFix" result="effect1_dropShadow_399_39239"/>
<feBlend mode="normal" in="SourceGraphic" in2="effect1_dropShadow_399_39239" result="shape"/>
</filter>
</defs>
</svg>
