<svg width="1229" height="746" viewBox="0 0 1229 746" fill="none" xmlns="http://www.w3.org/2000/svg">
<path fill-rule="evenodd" clip-rule="evenodd" d="M122.792 0.434659H0.429845V124.168H110.116L122.792 111.349V0.434659ZM135.807 124.168L123.294 111.514V0.434659H245.657V124.168H135.807ZM123.294 137.14L135.621 124.675H245.657V248.408H123.294V137.14ZM110.302 124.675L122.792 137.305V248.408H0.429845V124.675H110.302ZM0 0V124.24V124.602V248.48V248.843V372.72V373.083V496.961V497.323V621.201V621.563V745.803H122.864H123.222H245.728H246.087H368.592H368.951H491.457H491.815H614.32H614.679H737.185H737.543H860.049H860.407H982.913H983.271H1105.78H1106.14H1229L1229 621.563V497.323V496.961V372.72V248.843V124.602V124.24V0H1106.14H1105.78H983.271H982.913H860.407H860.049H737.543H737.185H614.679H614.32H491.815H491.457H368.951H368.592H246.087H245.728H123.222H122.864H0ZM246.158 0.434659H368.521V124.168H246.158V0.434659ZM491.385 0.434659H369.022V124.168H491.385V0.434659ZM491.887 0.434659H614.249V124.168H491.887V0.434659ZM737.113 0.434659H614.75V124.168H737.113V0.434659ZM737.615 0.434659H859.977V124.168H737.615V0.434659ZM982.842 0.434659H860.479V124.168H982.842V0.434659ZM983.343 0.434659H1105.71V124.168H983.343V0.434659ZM1228.57 0.434659H1106.21V124.168H1228.57V0.434659ZM246.158 124.675H368.521V248.408H246.158V124.675ZM491.385 124.675H369.022V248.408H479.077L491.385 235.962V124.675ZM503.998 248.408L491.887 236.161V124.675H614.249V248.408H503.998ZM491.887 261.753L504.541 248.957L504.499 248.915H614.249V372.648H491.887V261.753ZM478.576 248.915L478.534 248.957L491.385 261.952V372.648H369.022V248.915H478.576ZM737.113 124.675H614.75V248.408H737.113V124.675ZM737.615 124.675H859.977V248.408H737.615V124.675ZM982.842 124.675H860.479V248.408H982.842V124.675ZM983.343 124.675H1105.71V214.08L1105.5 214.29L1071.76 248.408H983.343V124.675ZM1071.26 248.915H983.343V360.458L983.754 360.043L996.22 372.648H1105.71V283.834L1105.5 283.624L1071.55 249.293L1071.21 248.957L1071.26 248.915ZM1105.71 283.163L1071.88 248.957L1071.92 248.915H1092.87L1092.83 248.957L1105.71 261.981V283.163ZM1106.21 283.578V372.648H1228.57V248.915H1140.4L1140.44 248.957L1140.11 249.293L1106.21 283.578ZM1139.74 248.915L1139.78 248.957L1106.21 282.907V261.725L1118.83 248.957L1118.79 248.915H1139.74ZM1139.9 248.408H1228.57V124.675H1106.21V214.336L1139.9 248.408ZM1106.21 215.008L1139.24 248.408H1118.29L1106.21 236.19V215.008ZM1105.71 214.752L1072.42 248.408H1093.37L1105.71 235.934V214.752ZM983.343 385.925L983.754 386.341L996.757 373.192L996.721 373.155H1105.71V496.888H983.343V385.925ZM970.787 373.155L970.751 373.192L982.842 385.418V496.888H860.479V373.155H970.787ZM982.842 360.965L971.288 372.648H860.479V248.915H982.842V360.965ZM0.429845 248.915H122.792V372.648H0.429845V248.915ZM245.657 248.915H123.294V372.648H245.657V248.915ZM246.158 248.915H368.521V372.648H246.158V248.915ZM737.113 248.915H614.751V372.648H737.113V248.915ZM737.615 248.915H859.977V372.648H737.615V248.915ZM0.429845 373.155H122.792V496.888H0.429845V373.155ZM245.657 373.155H123.294V496.888H211.847L211.688 496.727L212.02 496.392L245.657 462.378V373.155ZM245.657 463.05L212.352 496.727L212.511 496.888H233.459L233.3 496.727L245.657 484.232V463.05ZM246.158 483.725V462.543L246.303 462.396L280.254 496.727L280.095 496.888H259.147L259.307 496.727L246.303 483.578L246.158 483.725ZM246.158 509.73L246.303 509.876L258.646 497.395H279.593L246.303 531.058L246.158 530.912V509.73ZM233.96 497.395L245.657 509.223V530.405L213.013 497.395H233.96ZM212.349 497.395H123.294V621.128H245.657V531.076L212.349 497.395ZM246.158 531.583V621.128H368.521V497.395H280.257L246.635 531.394L246.303 531.73L246.158 531.583ZM280.759 496.888H368.521V373.155H246.158V461.871L246.303 461.725L246.635 462.06L280.586 496.392L280.918 496.727L280.759 496.888ZM491.385 373.155H369.022V496.888H491.385V373.155ZM491.887 373.155H614.249V496.888H491.887V373.155ZM737.113 373.155H614.75V496.888H737.113V373.155ZM737.615 373.155H859.977V496.888H737.615V373.155ZM1228.57 373.155H1106.21V496.888H1228.57V373.155ZM0.429845 497.395H122.792V621.128H0.429845V497.395ZM491.385 497.395H369.022V621.128H491.385V497.395ZM491.887 497.395H614.249V621.128H491.887V497.395ZM737.113 497.395H614.75V621.128H737.113V497.395ZM737.615 497.395H859.977V621.128H737.615V497.395ZM982.842 497.395H860.479V621.128H982.842V497.395ZM983.343 497.395H1105.71V621.128H983.343V497.395ZM1228.57 497.395H1106.21V621.128H1228.57V497.395ZM0.429845 621.636H122.792V745.369H0.429845V621.636ZM245.657 621.636H123.294V745.369H245.657V621.636ZM246.158 621.636H368.521V745.369H246.158V621.636ZM491.385 621.636H369.022V745.369H491.385V621.636ZM491.887 621.636H614.249V745.369H491.887V621.636ZM737.113 621.636H614.75V745.369H737.113V621.636ZM737.615 621.636H859.977V745.369H737.615V621.636ZM982.842 621.636H860.479V745.369H982.842V621.636ZM983.343 621.636H1105.71V745.369H983.343V621.636ZM1228.57 621.636H1106.21V745.369H1228.57V621.636Z" fill="url(#paint0_radial_406_41748)" fill-opacity="0.8"/>
<defs>
<radialGradient id="paint0_radial_406_41748" cx="0" cy="0" r="1" gradientUnits="userSpaceOnUse" gradientTransform="translate(625.039 -89.6561) rotate(90) scale(1023.69 1686.93)">
<stop offset="0.161601" stop-color="#6A63FE" stop-opacity="0"/>
<stop offset="0.481252" stop-color="#FCC40F" stop-opacity="0.32"/>
<stop offset="1" stop-color="#5D3FD3" stop-opacity="0"/>
</radialGradient>
</defs>
</svg>
