<svg width="1440" height="960" viewBox="0 0 1440 960" fill="none" xmlns="http://www.w3.org/2000/svg">
<g opacity="0.12">
<line x1="205.203" y1="432.527" x2="1161.8" y2="432.527" stroke="#1746A2" stroke-width="0.9154"/>
<line x1="99.0176" y1="725.454" x2="1267.98" y2="725.455" stroke="#1746A2" stroke-width="0.9154"/>
<line x1="99.0176" y1="666.869" x2="1267.98" y2="666.87" stroke="#1746A2" stroke-width="0.9154"/>
<line x1="99.0176" y1="959.797" x2="1267.98" y2="959.797" stroke="#1746A2" stroke-width="0.9154"/>
<line x1="205.203" y1="373.941" x2="1161.8" y2="373.941" stroke="#1746A2" stroke-width="0.9154"/>
<line x1="205.203" y1="608.284" x2="1161.8" y2="608.284" stroke="#1746A2" stroke-width="0.9154"/>
<line x1="99.0176" y1="901.211" x2="1267.98" y2="901.211" stroke="#1746A2" stroke-width="0.9154"/>
<line x1="99.0176" y1="315.356" x2="1267.98" y2="315.356" stroke="#1746A2" stroke-width="0.9154"/>
<line x1="205.203" y1="549.698" x2="1161.8" y2="549.698" stroke="#1746A2" stroke-width="0.9154"/>
<line x1="99.0176" y1="842.626" x2="1267.98" y2="842.626" stroke="#1746A2" stroke-width="0.9154"/>
<line x1="205.203" y1="491.113" x2="1161.8" y2="491.113" stroke="#1746A2" stroke-width="0.9154"/>
<line x1="99.0176" y1="784.04" x2="1267.98" y2="784.04" stroke="#1746A2" stroke-width="0.9154"/>
<line x1="24.8711" y1="227.477" x2="1343.05" y2="227.477" stroke="#1746A2" stroke-width="0.9154"/>
<line opacity="0.5" x1="24.8711" y1="73.69" x2="1343.05" y2="73.6901" stroke="#1746A2" stroke-width="0.9154"/>
<line x1="24.8711" y1="0.457827" x2="1343.05" y2="0.457943" stroke="#1746A2" stroke-width="0.9154"/>
</g>
<g opacity="0.12">
<g clip-path="url(#clip0_882_114830)">
<mask id="path-16-inside-1_882_114830" fill="white">
<path d="M1267.07 314.897H1376V667.326H1267.07V314.897Z"/>
</mask>
<g opacity="0.12">
<line x1="1267.52" y1="925.469" x2="1267.52" y2="73.232" stroke="#402E2E" stroke-width="0.9154"/>
</g>
<line x1="1211.82" y1="356.204" x2="1390.76" y2="272.762" stroke="#FCCE37" stroke-width="0.9154"/>
<line x1="1211.82" y1="568.018" x2="1390.76" y2="484.576" stroke="#FCCE37" stroke-width="0.9154"/>
<line x1="1211.82" y1="462.111" x2="1390.76" y2="378.669" stroke="#FCCE37" stroke-width="0.9154"/>
<line x1="1211.82" y1="673.925" x2="1390.76" y2="590.483" stroke="#FCCE37" stroke-width="0.9154"/>
<line x1="1211.82" y1="371.333" x2="1390.76" y2="287.891" stroke="#FCCE37" stroke-width="0.9154"/>
<line x1="1211.82" y1="583.147" x2="1390.76" y2="499.705" stroke="#FCCE37" stroke-width="0.9154"/>
<line x1="1211.82" y1="477.24" x2="1390.76" y2="393.799" stroke="#FCCE37" stroke-width="0.9154"/>
<line x1="1211.82" y1="689.054" x2="1390.76" y2="605.612" stroke="#FCCE37" stroke-width="0.9154"/>
<line x1="1211.82" y1="386.463" x2="1390.76" y2="303.021" stroke="#FCCE37" stroke-width="0.9154"/>
<line x1="1211.82" y1="598.276" x2="1390.76" y2="514.834" stroke="#FCCE37" stroke-width="0.9154"/>
<line x1="1211.82" y1="492.369" x2="1390.76" y2="408.927" stroke="#FCCE37" stroke-width="0.9154"/>
<line x1="1211.82" y1="704.184" x2="1390.76" y2="620.742" stroke="#FCCE37" stroke-width="0.9154"/>
<line x1="1211.82" y1="401.593" x2="1390.76" y2="318.151" stroke="#FCCE37" stroke-width="0.9154"/>
<line x1="1211.82" y1="613.406" x2="1390.76" y2="529.964" stroke="#FCCE37" stroke-width="0.9154"/>
<line x1="1211.82" y1="507.499" x2="1390.76" y2="424.057" stroke="#FCCE37" stroke-width="0.9154"/>
<line x1="1211.82" y1="719.312" x2="1390.76" y2="635.87" stroke="#FCCE37" stroke-width="0.9154"/>
<line x1="1211.82" y1="416.723" x2="1390.76" y2="333.281" stroke="#FCCE37" stroke-width="0.9154"/>
<line x1="1211.82" y1="628.535" x2="1390.76" y2="545.094" stroke="#FCCE37" stroke-width="0.9154"/>
<line x1="1211.82" y1="522.629" x2="1390.76" y2="439.187" stroke="#FCCE37" stroke-width="0.9154"/>
<line x1="1211.82" y1="734.442" x2="1390.76" y2="651" stroke="#FCCE37" stroke-width="0.9154"/>
<line x1="1211.82" y1="431.852" x2="1390.76" y2="348.41" stroke="#FCCE37" stroke-width="0.9154"/>
<line x1="1211.82" y1="643.665" x2="1390.76" y2="560.223" stroke="#FCCE37" stroke-width="0.9154"/>
<line x1="1211.82" y1="537.759" x2="1390.76" y2="454.317" stroke="#FCCE37" stroke-width="0.9154"/>
<line x1="1211.82" y1="749.572" x2="1390.76" y2="666.13" stroke="#FCCE37" stroke-width="0.9154"/>
<line x1="1211.82" y1="446.982" x2="1390.76" y2="363.54" stroke="#FCCE37" stroke-width="0.9154"/>
<line x1="1211.82" y1="658.795" x2="1390.76" y2="575.353" stroke="#FCCE37" stroke-width="0.9154"/>
<line x1="1211.82" y1="552.888" x2="1390.76" y2="469.446" stroke="#FCCE37" stroke-width="0.9154"/>
</g>
<path d="M1267.07 314.897V315.813H1376V314.897V313.982H1267.07V314.897ZM1376 667.326V666.411H1267.07V667.326V668.242H1376V667.326Z" fill="#FCCE37" mask="url(#path-16-inside-1_882_114830)"/>
</g>
<g opacity="0.14">
<g clip-path="url(#clip1_882_114830)">
<mask id="path-46-inside-2_882_114830" fill="white">
<path d="M-9 314.897H99.9326V667.326H-9V314.897Z"/>
</mask>
<line x1="-64.2442" y1="356.204" x2="114.697" y2="272.762" stroke="#2585D7" stroke-width="0.9154"/>
<line x1="-64.2442" y1="568.018" x2="114.697" y2="484.576" stroke="#2585D7" stroke-width="0.9154"/>
<line x1="-64.2442" y1="462.111" x2="114.697" y2="378.669" stroke="#2585D7" stroke-width="0.9154"/>
<line x1="-64.2442" y1="673.925" x2="114.697" y2="590.483" stroke="#2585D7" stroke-width="0.9154"/>
<line x1="-64.2442" y1="371.333" x2="114.697" y2="287.891" stroke="#2585D7" stroke-width="0.9154"/>
<line x1="-64.2442" y1="583.147" x2="114.697" y2="499.705" stroke="#2585D7" stroke-width="0.9154"/>
<line x1="-64.2442" y1="477.24" x2="114.697" y2="393.799" stroke="#2585D7" stroke-width="0.9154"/>
<line x1="-64.2442" y1="689.054" x2="114.697" y2="605.612" stroke="#2585D7" stroke-width="0.9154"/>
<line x1="-64.2442" y1="386.463" x2="114.697" y2="303.021" stroke="#2585D7" stroke-width="0.9154"/>
<line x1="-64.2442" y1="598.276" x2="114.697" y2="514.834" stroke="#2585D7" stroke-width="0.9154"/>
<line x1="-64.2442" y1="492.369" x2="114.697" y2="408.927" stroke="#2585D7" stroke-width="0.9154"/>
<line x1="-64.2442" y1="704.184" x2="114.697" y2="620.742" stroke="#2585D7" stroke-width="0.9154"/>
<line x1="-64.2442" y1="401.593" x2="114.697" y2="318.151" stroke="#2585D7" stroke-width="0.9154"/>
<line x1="-64.2442" y1="613.406" x2="114.697" y2="529.964" stroke="#2585D7" stroke-width="0.9154"/>
<line x1="-64.2442" y1="507.499" x2="114.697" y2="424.057" stroke="#2585D7" stroke-width="0.9154"/>
<line x1="-64.2442" y1="719.312" x2="114.697" y2="635.87" stroke="#2585D7" stroke-width="0.9154"/>
<line x1="-64.2442" y1="416.723" x2="114.697" y2="333.281" stroke="#2585D7" stroke-width="0.9154"/>
<line x1="-64.2442" y1="628.535" x2="114.697" y2="545.094" stroke="#2585D7" stroke-width="0.9154"/>
<line x1="-64.2442" y1="522.629" x2="114.697" y2="439.187" stroke="#2585D7" stroke-width="0.9154"/>
<line x1="-64.2442" y1="734.442" x2="114.697" y2="651" stroke="#2585D7" stroke-width="0.9154"/>
<line x1="-64.2442" y1="431.852" x2="114.697" y2="348.41" stroke="#2585D7" stroke-width="0.9154"/>
<line x1="-64.2442" y1="643.665" x2="114.697" y2="560.223" stroke="#2585D7" stroke-width="0.9154"/>
<line x1="-64.2442" y1="537.759" x2="114.697" y2="454.317" stroke="#2585D7" stroke-width="0.9154"/>
<line x1="-64.2442" y1="749.572" x2="114.697" y2="666.13" stroke="#2585D7" stroke-width="0.9154"/>
<line x1="-64.2442" y1="446.982" x2="114.697" y2="363.54" stroke="#2585D7" stroke-width="0.9154"/>
<line x1="-64.2442" y1="658.795" x2="114.697" y2="575.353" stroke="#2585D7" stroke-width="0.9154"/>
<line x1="-64.2442" y1="552.888" x2="114.697" y2="469.446" stroke="#2585D7" stroke-width="0.9154"/>
</g>
<path d="M-9 314.897V315.813H99.9326V314.897V313.982H-9V314.897ZM99.9326 667.326V666.411H-9V667.326V668.242H99.9326V667.326Z" fill="#2585D7" mask="url(#path-46-inside-2_882_114830)"/>
</g>
<g opacity="0.15">
<g opacity="0.29" filter="url(#filter0_f_882_114830)">
<path d="M253.599 182.485C212.1 127.862 56.4355 252.608 56.4355 252.608C46.7313 270.643 35.5927 308.695 68.6717 316.621C207.469 349.877 180.886 481.414 328.897 404.421C328.897 404.421 513.224 250.926 430.553 227.107C378.942 212.236 341.104 286.618 296.303 256.991C268.33 238.491 295.097 237.107 253.599 182.485Z" fill="#FCCE37"/>
</g>
<g opacity="0.87" filter="url(#filter1_f_882_114830)">
<path d="M1047.91 389.488C1062.13 465.252 1281.31 418.197 1281.31 418.197C1300.13 404.955 1330.47 372.321 1301.21 347.717C1178.47 244.481 1271.34 125.672 1083.88 128.59C1083.88 128.59 821.441 190.116 892.534 255.637C936.918 296.541 1012.36 240.828 1042.47 293.136C1061.28 325.797 1033.68 313.724 1047.91 389.488Z" fill="#1746A2"/>
<path d="M1047.91 389.488C1062.13 465.252 1281.31 418.197 1281.31 418.197C1300.13 404.955 1330.47 372.321 1301.21 347.717C1178.47 244.481 1271.34 125.672 1083.88 128.59C1083.88 128.59 821.441 190.116 892.534 255.637C936.918 296.541 1012.36 240.828 1042.47 293.136C1061.28 325.797 1033.68 313.724 1047.91 389.488Z" stroke="black" stroke-width="0.9154"/>
</g>
</g>
<defs>
<filter id="filter0_f_882_114830" x="-97.4851" y="24.6571" width="693.358" height="547.56" filterUnits="userSpaceOnUse" color-interpolation-filters="sRGB">
<feFlood flood-opacity="0" result="BackgroundImageFix"/>
<feBlend mode="normal" in="SourceGraphic" in2="BackgroundImageFix" result="shape"/>
<feGaussianBlur stdDeviation="71.9962" result="effect1_foregroundBlur_882_114830"/>
</filter>
<filter id="filter1_f_882_114830" x="735.869" y="-15.9132" width="721.954" height="593.002" filterUnits="userSpaceOnUse" color-interpolation-filters="sRGB">
<feFlood flood-opacity="0" result="BackgroundImageFix"/>
<feBlend mode="normal" in="SourceGraphic" in2="BackgroundImageFix" result="shape"/>
<feGaussianBlur stdDeviation="71.9962" result="effect1_foregroundBlur_882_114830"/>
</filter>
<clipPath id="clip0_882_114830">
<path d="M1267.07 314.897H1376V667.326H1267.07V314.897Z" fill="white"/>
</clipPath>
<clipPath id="clip1_882_114830">
<path d="M-9 314.897H99.9326V667.326H-9V314.897Z" fill="white"/>
</clipPath>
</defs>
</svg>
