<svg width="109" height="34" viewBox="0 0 109 34" fill="none" xmlns="http://www.w3.org/2000/svg">
<path d="M8.87308 18.5212C8.87308 16.7116 7.51207 15.4399 5.84026 15.4399C4.16844 15.4399 2.80742 16.7331 2.80742 18.5212C2.80742 20.2878 4.16844 21.6025 5.84026 21.6025C7.51376 21.6009 8.87308 20.3307 8.87308 18.5212ZM8.89698 23.907V22.5065C8.07217 23.4764 6.84436 24.0785 5.37406 24.0785C2.31902 24.0785 0 21.7081 0 18.5212C0 15.3541 2.40782 12.9424 5.44236 12.9424C6.87001 12.9424 8.07392 13.5462 8.89867 14.493V13.1354H11.6412V23.907H8.89698Z" fill="#1D2D35" fill-opacity="0.5"/>
<path d="M24.9627 21.5151C24.003 21.5151 23.7366 21.1703 23.7366 20.2664V15.4843H25.4989V13.1354H23.7366V10.5077H20.9257V13.1354H17.3055V12.4806C17.3055 11.575 17.6624 11.2302 18.6443 11.2302H19.2608V9.14023H17.9083C15.5892 9.14023 14.4963 9.87262 14.4963 12.1127V13.1338H12.9355V15.4827H14.4963V23.9053H17.3072V15.4827H20.9274V20.7612C20.9274 22.9584 21.7967 23.907 24.0713 23.907H25.5211V21.5151H24.9627Z" fill="#1D2D35" fill-opacity="0.5"/>
<path d="M35.0432 17.5512C34.8434 16.1507 33.66 15.3111 32.2785 15.3111C30.8952 15.3111 29.758 16.1293 29.4694 17.5512H35.0432ZM29.4455 19.2321C29.647 20.8256 30.8287 21.7312 32.3229 21.7312C33.5046 21.7312 34.4199 21.1917 34.9544 20.3307H37.8318C37.1624 22.6137 35.0432 24.0785 32.2563 24.0785C28.8887 24.0785 26.5253 21.7955 26.5253 18.5426C26.5253 15.2897 29.0237 12.9407 32.3246 12.9407C35.6478 12.9407 38.0556 15.3112 38.0556 18.5426C38.0556 18.7801 38.0334 19.016 37.9889 19.2321H29.4455Z" fill="#1D2D35" fill-opacity="0.5"/>
<path d="M55.9264 18.5212C55.9264 16.7759 54.5654 15.4399 52.8935 15.4399C51.2217 15.4399 49.8607 16.7331 49.8607 18.5212C49.8607 20.2878 51.2217 21.6025 52.8935 21.6025C54.5654 21.6009 55.9264 20.2664 55.9264 18.5212ZM47.0943 13.1354H49.8368V14.5359C50.6616 13.5445 51.8877 12.9424 53.3597 12.9424C56.3703 12.9424 58.7338 15.3343 58.7338 18.4997C58.7338 21.6668 56.3259 24.0801 53.2931 24.0801C51.8877 24.0801 50.7282 23.5407 49.9256 22.6368V28.3393H47.0943V13.1354Z" fill="#1D2D35" fill-opacity="0.5"/>
<path d="M68.6195 18.5212C68.6195 16.7116 67.2602 15.4399 65.5865 15.4399C63.9148 15.4399 62.5538 16.7331 62.5538 18.5212C62.5538 20.2878 63.9148 21.6025 65.5865 21.6025C67.2602 21.6009 68.6195 20.3307 68.6195 18.5212ZM68.6435 23.907V22.5065C67.8187 23.4764 66.5906 24.0785 65.1202 24.0785C62.0654 24.0785 59.7464 21.7081 59.7464 18.5212C59.7464 15.3541 62.1542 12.9424 65.1871 12.9424C66.6146 12.9424 67.8187 13.5462 68.6435 14.493V13.1354H71.3862V23.907H68.6435Z" fill="#1D2D35" fill-opacity="0.5"/>
<path d="M42.1505 14.1911C42.1505 14.1911 42.849 12.9424 44.5583 12.9424C45.2892 12.9424 45.7623 13.1849 45.7623 13.1849V15.9331C45.7623 15.9331 44.7308 15.3178 43.783 15.4415C42.8353 15.5652 42.2359 16.4065 42.2393 17.5315V23.9086H39.408V13.1371H42.1505V14.1911Z" fill="#1D2D35" fill-opacity="0.5"/>
<path d="M84.1949 13.1354L77.2704 28.3046H74.3504L77.069 22.4405L72.4721 13.1354H75.7818L78.4712 19.3525L81.2308 13.1354H84.1949Z" fill="#1D2D35" fill-opacity="0.5"/>
<path d="M106.3 12.8913L99.4348 9.06434C97.4195 7.94101 94.9008 9.34477 94.9008 11.5931V11.9857C94.9008 12.3403 95.097 12.6686 95.4146 12.8451L96.7109 13.5676C97.0915 13.7804 97.5662 13.5148 97.5662 13.0909V12.1143C97.5662 11.6261 98.1131 11.3209 98.5502 11.5651L104.496 14.8806C104.934 15.1248 104.934 15.7351 104.496 15.9776L98.5502 19.2932C98.1131 19.5373 97.5662 19.2321 97.5662 18.7439V18.2242C97.5662 15.9759 95.0476 14.5705 93.031 15.6955L86.1662 19.5224C84.151 20.6458 84.151 23.4566 86.1662 24.5799L93.031 28.4069C95.0457 29.5302 97.5662 28.1264 97.5662 25.8781V25.4855C97.5662 25.1309 97.3701 24.8043 97.0525 24.6261L95.7562 23.902C95.3756 23.6892 94.9008 23.9548 94.9008 24.3787V25.3553C94.9008 25.8435 94.3547 26.1486 93.9169 25.9045L87.9711 22.5889C87.534 22.3448 87.534 21.7345 87.9711 21.4904L93.9169 18.1747C94.3547 17.9306 94.9008 18.2358 94.9008 18.724V19.2437C94.9008 21.492 97.4195 22.8974 99.4348 21.7724L106.3 17.9455C108.315 16.8254 108.315 14.0146 106.3 12.8913Z" fill="#1D2D35" fill-opacity="0.5"/>
</svg>
