<svg width="115" height="34" viewBox="0 0 115 34" fill="none" xmlns="http://www.w3.org/2000/svg">
<g clip-path="url(#clip0_399_39368)">
<path d="M33.8109 11.4952H38.6138C41.2742 11.4952 42.6554 12.586 42.6554 14.6343V14.7363C42.6933 15.3366 42.5146 15.9305 42.1516 16.4101C41.7887 16.8897 41.2657 17.2231 40.6778 17.3497C41.3819 17.4117 42.0331 17.7489 42.4901 18.2881C42.947 18.8274 43.1728 19.5251 43.1185 20.2299V20.3005C43.1185 22.5371 41.6509 23.7143 38.8335 23.7143H33.8109V11.4952ZM38.1664 16.51C39.5006 16.51 40.0264 16.0312 40.0264 14.9404V14.8698C40.0264 13.8495 39.4456 13.3865 38.1507 13.3865H36.5105V16.5257L38.1664 16.51ZM38.4019 21.7916C39.7674 21.7916 40.3874 21.1716 40.3874 20.0651V19.9944C40.3874 18.8643 39.7674 18.2914 38.2685 18.2914H36.5105V21.7994L38.4019 21.7916Z" fill="#8C9498"/>
<path d="M43.8406 21.2266C43.8406 19.139 45.7476 18.3542 48.4865 18.3542H49.4911V18.0011C49.4911 16.9416 49.1693 16.3609 48.0392 16.3609C47.8563 16.3392 47.6708 16.3551 47.4943 16.4078C47.3178 16.4604 47.1539 16.5486 47.0127 16.667C46.8716 16.7853 46.7561 16.9313 46.6735 17.096C46.5909 17.2607 46.5429 17.4405 46.5324 17.6244H44.178C44.335 15.5055 46.0066 14.5637 48.1961 14.5637C50.3857 14.5637 51.9317 15.4505 51.9317 17.8755V23.6987H49.5224V22.6235C49.2201 23.0495 48.8124 23.3899 48.3393 23.6113C47.8661 23.8328 47.3436 23.9278 46.8228 23.887C45.2061 23.887 43.8406 23.1022 43.8406 21.2266ZM49.4911 20.5752V19.7904H48.5336C47.0974 19.7904 46.2656 20.1043 46.2656 21.0539C46.2656 21.7053 46.658 22.1369 47.5605 22.1369C48.6513 22.1683 49.4911 21.564 49.4911 20.5752Z" fill="#8C9498"/>
<path d="M52.9754 20.897H55.2826C55.3847 21.6817 55.7771 22.1683 56.8522 22.1683C57.8097 22.1683 58.257 21.8073 58.257 21.1873C58.257 20.5673 57.7233 20.3162 56.4441 20.1357C54.0898 19.7747 53.148 19.0919 53.148 17.3497C53.148 15.6075 54.8588 14.5637 56.6796 14.5637C58.6651 14.5637 60.1483 15.2857 60.3681 17.334H58.1C57.9666 16.5963 57.5507 16.2589 56.7031 16.2589C55.8555 16.2589 55.4396 16.6356 55.4396 17.1771C55.4396 17.7186 55.8634 17.9618 57.1583 18.1502C59.3949 18.472 60.627 19.037 60.627 20.9519C60.627 22.8668 59.2301 23.887 56.8679 23.887C54.5057 23.887 53.0617 22.8275 52.9754 20.897Z" fill="#8C9498"/>
<path d="M61.2627 19.3431V19.2096C61.233 18.5963 61.3309 17.9835 61.5504 17.41C61.7699 16.8365 62.106 16.3149 62.5377 15.8781C62.9692 15.4414 63.4869 15.099 64.0577 14.8727C64.6285 14.6465 65.2401 14.5412 65.8538 14.5637C68.161 14.5637 70.2093 15.9135 70.2093 19.1076V19.7904H63.7976C63.8604 21.2736 64.6687 22.1447 66.0107 22.1447C67.1565 22.1447 67.7215 21.6503 67.8785 20.8969H70.2329C69.9425 22.8275 68.4043 23.9027 65.9636 23.9027C63.2247 23.887 61.2627 22.1997 61.2627 19.3431ZM67.8 18.2679C67.7215 16.9181 67.0309 16.3059 65.8538 16.3059C65.3238 16.3034 64.8135 16.5064 64.4301 16.8723C64.0466 17.2382 63.8199 17.7384 63.7976 18.2679H67.8Z" fill="#8C9498"/>
<path d="M70.8607 19.343V19.2096C70.8308 18.5949 70.9292 17.9807 71.1496 17.4061C71.37 16.8315 71.7076 16.3091 72.1409 15.8721C72.5742 15.4351 73.0938 15.0931 73.6665 14.8678C74.2392 14.6425 74.8525 14.5389 75.4674 14.5636C77.5393 14.5636 79.4463 15.4661 79.6739 18.0324H77.3195C77.3039 17.8121 77.2441 17.5972 77.1438 17.4005C77.0434 17.2038 76.9046 17.0293 76.7355 16.8872C76.5664 16.7452 76.3705 16.6386 76.1594 16.5738C75.9483 16.509 75.7263 16.4873 75.5067 16.5099C74.2275 16.5099 73.372 17.4673 73.372 19.1782V19.3116C73.372 21.1088 74.1568 22.027 75.5616 22.027C75.8006 22.0407 76.04 22.0068 76.2657 21.9271C76.4915 21.8475 76.6992 21.7237 76.8766 21.563C77.0541 21.4023 77.1979 21.208 77.2995 20.9912C77.4011 20.7744 77.4586 20.5396 77.4686 20.3004H79.7053C79.5719 22.4194 78.0337 23.8869 75.436 23.8869C72.8384 23.8869 70.8607 22.2624 70.8607 19.343Z" fill="#8C9498"/>
<path d="M80.2783 21.2265C80.2783 19.139 82.1853 18.3542 84.9164 18.3542H85.9288V18.0011C85.9288 16.9416 85.5992 16.3609 84.4769 16.3609C84.2928 16.3368 84.1057 16.351 83.9273 16.4026C83.7489 16.4542 83.5831 16.542 83.4402 16.6606C83.2973 16.7792 83.1804 16.926 83.0968 17.0918C83.0132 17.2577 82.9648 17.439 82.9544 17.6244H80.6001C80.757 15.5054 82.4286 14.5637 84.6103 14.5637C86.7921 14.5637 88.3538 15.4505 88.3538 17.8755V23.6986H85.9445V22.6235C85.6421 23.0495 85.2345 23.3899 84.7613 23.6113C84.2881 23.8328 83.7656 23.9277 83.2448 23.887C81.6752 23.887 80.2783 23.1022 80.2783 21.2265ZM85.9288 20.5752V19.7904H84.987C83.5509 19.7904 82.7112 20.1043 82.7112 21.0539C82.7112 21.7053 83.1114 22.1369 84.0139 22.1369C85.1205 22.1683 85.9602 21.564 85.9602 20.5752H85.9288Z" fill="#8C9498"/>
<path d="M90.0958 14.7363H92.5679V16.1018C92.8375 15.6167 93.2342 15.2142 93.7154 14.9376C94.1966 14.6611 94.7441 14.5209 95.299 14.5323C95.8286 14.4899 96.3577 14.6198 96.8074 14.9027C97.2571 15.1855 97.6034 15.6062 97.7946 16.1018C98.1242 15.6096 98.5721 15.2079 99.0973 14.9337C99.6224 14.6594 100.208 14.5214 100.8 14.5323C102.456 14.5323 103.735 15.576 103.735 17.9461V23.6672H101.279V18.2522C101.279 17.1064 100.769 16.5963 99.8743 16.5963C99.6363 16.5859 99.3989 16.627 99.1782 16.7168C98.9576 16.8066 98.7589 16.9429 98.5957 17.1165C98.4326 17.2901 98.3088 17.4968 98.2328 17.7226C98.1569 17.9484 98.1305 18.1879 98.1556 18.4248V23.6986H95.6914V18.2522C95.6914 17.1064 95.1656 16.5963 94.2944 16.5963C94.0558 16.5847 93.8175 16.625 93.5959 16.7143C93.3743 16.8035 93.1746 16.9397 93.0106 17.1134C92.8466 17.2871 92.7221 17.4943 92.6457 17.7206C92.5692 17.947 92.5427 18.1872 92.5679 18.4248V23.6986H90.0958V14.7363Z" fill="#8C9498"/>
<path d="M105.431 14.7363H107.911V16.1411C108.206 15.6497 108.624 15.2433 109.123 14.9614C109.622 14.6794 110.186 14.5316 110.759 14.5323C112.949 14.5323 114.683 16.1568 114.683 19.1076V19.2489C114.683 22.1997 113.012 23.8556 110.759 23.8556C110.187 23.8791 109.618 23.7452 109.116 23.4685C108.614 23.1918 108.197 22.7828 107.911 22.286V26.7436H105.431V14.7363ZM112.141 19.1311C112.141 17.3183 111.254 16.4315 110.006 16.4315C108.758 16.4315 107.824 17.334 107.824 19.1311V19.2645C107.824 21.0539 108.68 21.925 110.03 21.925C111.379 21.925 112.141 21.0146 112.141 19.2959V19.1311Z" fill="#8C9498"/>
<path fill-rule="evenodd" clip-rule="evenodd" d="M15.4626 7.22984C8.49879 7.22984 4.86709 13.1283 2.8337 18.8935C2.5879 19.5904 1.82368 19.9561 1.12676 19.7103C0.628295 19.5345 0.299272 19.0934 0.24225 18.6015C0.219548 18.4057 0.239958 18.2018 0.309951 18.0033C2.37316 12.1536 6.58935 4.55371 15.4626 4.55371C20.1006 4.55371 23.4204 7.62206 25.5674 11.3083C27.72 15.0042 28.8678 19.5806 29.1264 23.2756C29.145 23.5412 29.0839 23.8063 28.951 24.037C27.7076 26.1953 25.6391 27.6019 23.2811 28.4634C20.929 29.3228 18.2044 29.6739 15.4734 29.6748C13.153 29.711 10.8521 29.2466 8.72738 28.3133C6.59929 27.3785 4.6981 25.9952 3.15376 24.258C2.82522 23.8885 2.72727 23.3679 2.89905 22.9042L2.90006 22.9015L2.90198 22.8963L2.90852 22.8789L2.93221 22.8164C2.95264 22.7629 2.98225 22.6862 3.02041 22.5897C3.09666 22.3967 3.20735 22.1234 3.34728 21.7964C3.62593 21.1452 4.02624 20.2677 4.50712 19.3817C4.98167 18.5073 5.56522 17.5673 6.22145 16.8267C6.81969 16.1516 7.74957 15.3291 8.93977 15.321L8.94884 15.321C9.78986 15.321 10.4807 15.7061 10.978 16.0762C11.4793 16.4494 11.9345 16.9236 12.2993 17.3096C12.3411 17.3539 12.3818 17.397 12.4214 17.439C12.7611 17.7992 13.0209 18.0747 13.2678 18.281C13.2955 18.3042 13.321 18.3246 13.3442 18.3426C13.4245 18.2606 13.5203 18.1531 13.6306 18.0164C14.0227 17.5302 14.4632 16.8453 14.8895 16.1121C15.3102 15.3886 15.693 14.6597 15.9722 14.1084C16.1112 13.8337 16.2235 13.6052 16.3005 13.4463C16.339 13.3669 16.3687 13.3049 16.3885 13.2634L16.4106 13.2168L16.4158 13.2057L16.4169 13.2034C16.7306 12.5343 17.5274 12.2459 18.1965 12.5595C18.8656 12.8731 19.1538 13.6698 18.8402 14.339L18.8373 14.3451L18.8303 14.3599L18.8046 14.4141C18.7823 14.4609 18.75 14.5284 18.7086 14.6138C18.6258 14.7845 18.5067 15.0269 18.3597 15.3172C18.0667 15.896 17.6584 16.6739 17.203 17.4572C16.7533 18.2307 16.2329 19.0527 15.7135 19.6966C15.4559 20.0159 15.1639 20.3353 14.8482 20.5864C14.5691 20.8084 14.0768 21.1363 13.4457 21.1363C12.6112 21.1363 11.9536 20.6703 11.5517 20.3345C11.173 20.018 10.7946 19.6157 10.4768 19.2778C10.4348 19.2332 10.3939 19.1897 10.3542 19.1477C9.97741 18.7489 9.66941 18.4383 9.38 18.2229C9.12634 18.0341 8.99684 18.003 8.95965 17.9981C8.95965 17.9981 8.95698 17.9991 8.95464 17.9999C8.91373 18.0143 8.66794 18.101 8.22439 18.6015C7.7645 19.1205 7.29398 19.857 6.85916 20.6582C6.43066 21.4477 6.0663 22.2447 5.80761 22.8492C5.77427 22.9271 5.74279 23.0016 5.71324 23.0722C6.89088 24.2456 8.27732 25.1926 9.80368 25.8631C11.5791 26.643 13.5019 27.0304 15.4408 26.9988L15.4626 26.9987C17.9939 26.9987 20.3898 26.6707 22.3627 25.9498C24.1778 25.2867 25.5624 24.3202 26.423 23.0371C26.1314 19.7487 25.0839 15.7954 23.2549 12.6552C21.3406 9.36857 18.7431 7.22984 15.4626 7.22984ZM13.1243 18.5328C13.1243 18.5328 13.1301 18.5283 13.1414 18.5226C13.1298 18.5304 13.1243 18.5328 13.1243 18.5328Z" fill="#8C9498"/>
</g>
<defs>
<clipPath id="clip0_399_39368">
<rect width="114.552" height="33.3241" fill="white" transform="translate(0.233398 0.337891)"/>
</clipPath>
</defs>
</svg>
