<svg width="100" height="34" viewBox="0 0 100 34" fill="none" xmlns="http://www.w3.org/2000/svg">
<g clip-path="url(#clip0_399_39370)">
<path fill-rule="evenodd" clip-rule="evenodd" d="M2.4083 25.2283C0.150655 22.9898 0.150691 19.3605 2.40837 17.122L8.54031 11.0422C10.4489 9.14985 13.3598 8.85719 15.5784 10.1642C16.2647 10.5685 16.2587 11.4958 15.6942 12.0555C15.1298 12.6151 14.2084 12.5669 13.4423 12.3448C12.4613 12.0603 11.358 12.3016 10.5843 13.0688L4.45233 19.1486C3.32349 20.2679 3.32348 22.0825 4.4523 23.2018C5.58115 24.321 7.4114 24.321 8.54024 23.2018L20.804 11.0422C23.0618 8.80375 26.7221 8.80374 28.9799 11.0422L35.1119 17.122C37.3696 19.3604 37.3696 22.9898 35.1119 25.2283C32.8542 27.4668 29.1938 27.4668 26.936 25.2283L24.8921 23.2018L22.3371 25.735C20.4286 27.6273 17.5176 27.9199 15.299 26.6129C14.6127 26.2087 14.6188 25.2813 15.1832 24.7217C15.7476 24.162 16.6689 24.2102 17.4351 24.4324C18.4162 24.7169 19.5194 24.4755 20.2931 23.7084L22.9211 21.1028C24.0097 20.0235 25.7745 20.0235 26.8631 21.1028L28.98 23.2018C30.1089 24.321 31.939 24.321 33.0679 23.2018C34.1967 22.0825 34.1967 20.2679 33.0679 19.1486L26.9359 13.0688C25.807 11.9496 23.9769 11.9496 22.848 13.0688L10.5842 25.2284C8.32649 27.4669 4.66599 27.4669 2.4083 25.2283Z" fill="#1D2D35" fill-opacity="0.5"/>
<path d="M59.8966 12.6121C58.476 12.6121 57.3998 13.1208 56.6895 14.1382C56.0653 13.1208 55.0751 12.6121 53.7622 12.6121C52.4061 12.6121 51.416 13.0784 50.7702 14.0322V12.9088H47.9936V23.5067H50.7702V17.5507C50.7702 16.0034 51.5666 15.1556 52.7936 15.1556C53.9343 15.1556 54.6016 15.8974 54.6016 17.1692V23.5067H57.3783V17.5507C57.3783 16.0034 58.1101 15.1556 59.3801 15.1556C60.5209 15.1556 61.188 15.8974 61.188 17.1692V23.5067H63.9647V16.9784C63.9647 14.3289 62.3719 12.6121 59.8966 12.6121Z" fill="#1D2D35" fill-opacity="0.5"/>
<path d="M74.287 14.1594C73.4475 13.1208 72.2852 12.6121 70.7785 12.6121C69.3364 12.6121 68.1095 13.1632 67.0764 14.2442C66.0647 15.3251 65.5481 16.6393 65.5481 18.2078C65.5481 19.7762 66.0647 21.1116 67.0764 22.1926C68.1095 23.2735 69.3364 23.8035 70.7785 23.8035C72.2852 23.8035 73.4475 23.2947 74.287 22.2561V23.5067H77.0638V12.9088H74.287V14.1594ZM69.1642 20.3697C68.6046 19.7974 68.3247 19.0768 68.3247 18.2078C68.3247 17.3387 68.6046 16.6181 69.1642 16.067C69.7238 15.4947 70.4341 15.2192 71.2951 15.2192C72.1561 15.2192 72.8664 15.4947 73.426 16.067C74.0072 16.6181 74.287 17.3387 74.287 18.2078C74.287 19.0768 74.0072 19.7974 73.426 20.3697C72.8664 20.9209 72.1561 21.1963 71.2951 21.1963C70.4341 21.1963 69.7238 20.9209 69.1642 20.3697Z" fill="#1D2D35" fill-opacity="0.5"/>
<path d="M87.3089 14.7316V12.9088H79.2373V15.4735H83.5634L79.0214 21.6838V23.5066H87.524V20.9419H82.7451L87.3089 14.7316Z" fill="#1D2D35" fill-opacity="0.5"/>
<path d="M99.1336 19.3311C99.1983 18.9284 99.2411 18.5681 99.2411 18.2078C99.2411 16.6181 98.7252 15.3039 97.6918 14.223C96.6802 13.142 95.3671 12.6121 93.7959 12.6121C92.1383 12.6121 90.7611 13.142 89.7059 14.223C88.6515 15.2827 88.113 16.6181 88.113 18.2078C88.113 19.8186 88.6515 21.154 89.7278 22.2137C90.804 23.2735 92.2247 23.8035 94.011 23.8035C96.077 23.8035 97.6489 23.0404 98.7034 21.5355L96.4651 20.2637C95.9266 20.9632 95.1091 21.3235 94.0539 21.3235C92.397 21.3235 91.3854 20.6665 91.0191 19.3311H99.1336ZM90.9762 17.2115C91.2989 15.855 92.3105 15.0708 93.7959 15.0708C95.0655 15.0708 96.1417 15.7702 96.4651 17.2115H90.9762Z" fill="#1D2D35" fill-opacity="0.5"/>
</g>
<defs>
<clipPath id="clip0_399_39370">
<rect width="98.5839" height="33.3241" fill="white" transform="translate(0.715088 0.337891)"/>
</clipPath>
</defs>
</svg>
