<svg width="280" height="152" viewBox="0 0 280 152" fill="none" xmlns="http://www.w3.org/2000/svg">
<g filter="url(#filter0_d_132_4650)">
<rect x="16" y="16" width="248" height="104" rx="16" fill="#1A1A1A"/>
<path d="M120.667 77.8123C120.667 81.6092 123.745 84.6873 127.542 84.6873C127.542 87.8514 130.107 90.4164 133.271 90.4164C136.436 90.4164 139.001 87.8514 139.001 84.6873C139.001 87.8514 141.566 90.4162 144.73 90.4162C147.894 90.4162 150.459 87.8512 150.459 84.687C154.256 84.687 157.334 81.609 157.334 77.8121C157.334 76.5089 156.971 75.2904 156.342 74.2519C159.517 73.6445 161.917 70.8523 161.917 67.4996C161.917 64.1468 159.517 61.3546 156.342 60.7472C156.971 59.7087 157.334 58.4902 157.334 57.1871C157.334 53.3901 154.256 50.3121 150.459 50.3121C150.459 47.1479 147.894 44.5829 144.73 44.5829C141.566 44.5829 139.001 47.1481 139.001 50.3123C139.001 47.1481 136.436 44.5831 133.271 44.5831C130.107 44.5831 127.542 47.1481 127.542 50.3123C123.745 50.3123 120.667 53.3903 120.667 57.1873C120.667 58.4904 121.03 59.7089 121.66 60.7474C118.484 61.3548 116.084 64.147 116.084 67.4998C116.084 70.8525 118.484 73.6447 121.66 74.2522C121.03 75.2906 120.667 76.5091 120.667 77.8123Z" stroke="#5F91F1" stroke-width="3" stroke-linecap="round" stroke-linejoin="round"/>
<rect x="128" y="55.4999" width="23" height="23" stroke="#5F91F1"/>
<path d="M147.5 69.4999V61.4999C147.5 59.6143 147.5 58.6715 146.914 58.0857C146.328 57.4999 145.386 57.4999 143.5 57.4999H135.5C133.614 57.4999 132.672 57.4999 132.086 58.0857C131.5 58.6715 131.5 59.6143 131.5 61.4999V69.4999" stroke="#5F91F1" stroke-width="1.5" stroke-linecap="round" stroke-linejoin="round"/>
<path d="M135.5 63.3934H135.662C136.473 63.3934 136.879 63.3934 137.189 63.5676C137.498 63.7418 137.638 64.0482 137.916 64.6612L138.252 65.4017C138.435 65.8045 138.527 66.0059 138.675 65.9996C138.822 65.9934 138.887 65.7854 139.016 65.3693L140.173 61.6472C140.306 61.2191 140.373 61.0051 140.522 60.9999C140.671 60.9946 140.76 61.2032 140.939 61.6203L141.142 62.0927C141.412 62.7209 141.546 63.0349 141.859 63.2142C142.171 63.3934 142.585 63.3934 143.411 63.3934H143.5" stroke="#5F91F1" stroke-width="1.5" stroke-linecap="round" stroke-linejoin="round"/>
<path d="M130.998 70.5153L131.52 69.4999H147.452L148.002 70.5153C149.445 73.1768 149.805 74.5076 149.256 75.5037C148.708 76.4999 147.254 76.4999 144.345 76.4999L134.655 76.4999C131.746 76.4999 130.292 76.4999 129.744 75.5037C129.195 74.5076 129.555 73.1768 130.998 70.5153Z" stroke="#5F91F1" stroke-width="1.5" stroke-linecap="round" stroke-linejoin="round"/>
<path d="M16 16H80V43C80 47.4183 76.4183 51 72 51H16V16Z" fill="#5F91F1"/>
<path d="M33.5376 31.6172C33.4912 31.183 33.2957 30.8449 32.951 30.603C32.6096 30.361 32.1655 30.2401 31.6186 30.2401C31.2341 30.2401 30.9044 30.2981 30.6293 30.4141C30.3542 30.5301 30.1437 30.6875 29.9979 30.8864C29.852 31.0852 29.7775 31.3123 29.7741 31.5675C29.7741 31.7796 29.8222 31.9635 29.9183 32.1193C30.0178 32.2751 30.152 32.4077 30.321 32.517C30.4901 32.6231 30.6773 32.7126 30.8828 32.7855C31.0883 32.8584 31.2955 32.9197 31.5043 32.9695L32.4588 33.2081C32.8433 33.2976 33.2128 33.4186 33.5675 33.571C33.9254 33.7235 34.2453 33.9157 34.527 34.1477C34.812 34.3797 35.0374 34.6598 35.2031 34.9879C35.3688 35.3161 35.4517 35.7005 35.4517 36.1413C35.4517 36.7379 35.2992 37.2633 34.9943 37.7173C34.6894 38.1681 34.2486 38.5211 33.6719 38.7763C33.0985 39.0282 32.4041 39.1541 31.5888 39.1541C30.7966 39.1541 30.1089 39.0315 29.5256 38.7862C28.9455 38.541 28.4915 38.183 28.1634 37.7124C27.8385 37.2417 27.6629 36.6683 27.6364 35.9922H29.451C29.4775 36.3468 29.5869 36.6418 29.7791 36.8771C29.9714 37.1125 30.2216 37.2881 30.5298 37.4041C30.8414 37.5201 31.1894 37.5781 31.5739 37.5781C31.9749 37.5781 32.3262 37.5185 32.6278 37.3991C32.9328 37.2765 33.1714 37.1075 33.3438 36.892C33.5161 36.6733 33.6039 36.4181 33.6072 36.1264C33.6039 35.8613 33.526 35.6425 33.3736 35.4702C33.2211 35.2945 33.0073 35.1487 32.7322 35.0327C32.4605 34.9134 32.1423 34.8073 31.7777 34.7145L30.6193 34.4162C29.7808 34.2008 29.1179 33.8743 28.6307 33.4368C28.1468 32.996 27.9048 32.411 27.9048 31.6818C27.9048 31.0819 28.0672 30.5566 28.392 30.1058C28.7202 29.6551 29.166 29.3054 29.7294 29.0568C30.2929 28.8049 30.9309 28.679 31.6435 28.679C32.366 28.679 32.9991 28.8049 33.5426 29.0568C34.0895 29.3054 34.5187 29.6518 34.8303 30.0959C35.1418 30.5367 35.3026 31.0438 35.3125 31.6172H33.5376ZM40.8297 31.3636V32.7557H36.4398V31.3636H40.8297ZM37.5236 29.5341H39.3233V36.7031C39.3233 36.9451 39.3598 37.1307 39.4327 37.2599C39.5089 37.3859 39.6084 37.4721 39.731 37.5185C39.8536 37.5649 39.9895 37.5881 40.1387 37.5881C40.2514 37.5881 40.3541 37.5798 40.4469 37.5632C40.543 37.5466 40.6159 37.5317 40.6657 37.5185L40.9689 38.9254C40.8728 38.9586 40.7353 38.995 40.5563 39.0348C40.3806 39.0746 40.1652 39.0978 39.91 39.1044C39.4592 39.1177 39.0532 39.0497 38.6919 38.9006C38.3307 38.7481 38.044 38.5128 37.8319 38.1946C37.623 37.8764 37.5203 37.4787 37.5236 37.0014V29.5341ZM45.6335 39.1491C44.8679 39.1491 44.2067 38.9901 43.6499 38.6719C43.0964 38.3504 42.6705 37.8963 42.3722 37.3097C42.0739 36.7197 41.9247 36.0253 41.9247 35.2266C41.9247 34.4411 42.0739 33.7517 42.3722 33.1584C42.6738 32.5618 43.0947 32.0978 43.6349 31.7663C44.1752 31.4316 44.8099 31.2642 45.5391 31.2642C46.0097 31.2642 46.4538 31.3404 46.8714 31.4929C47.2924 31.642 47.6636 31.8741 47.9851 32.1889C48.3099 32.5038 48.5651 32.9048 48.7507 33.392C48.9363 33.8759 49.0291 34.4527 49.0291 35.1222V35.674H42.7699V34.4609H47.304C47.3007 34.1162 47.2261 33.8097 47.0803 33.5412C46.9344 33.2694 46.7306 33.0556 46.4688 32.8999C46.2102 32.7441 45.9086 32.6662 45.5639 32.6662C45.196 32.6662 44.8729 32.7557 44.5945 32.9347C44.3161 33.1103 44.099 33.3423 43.9432 33.6307C43.7907 33.9157 43.7128 34.2289 43.7095 34.5703V35.6293C43.7095 36.0734 43.7907 36.4545 43.9531 36.7727C44.1155 37.0876 44.3426 37.3295 44.6342 37.4986C44.9259 37.6643 45.2673 37.7472 45.6584 37.7472C45.9202 37.7472 46.1572 37.7107 46.3693 37.6378C46.5814 37.5616 46.7654 37.4505 46.9212 37.3047C47.0769 37.1589 47.1946 36.9782 47.2741 36.7628L48.9545 36.9517C48.8485 37.3958 48.6463 37.7836 48.348 38.1151C48.053 38.4432 47.6752 38.6984 47.2145 38.8807C46.7538 39.0597 46.2268 39.1491 45.6335 39.1491ZM50.5517 41.8636V31.3636H52.3216V32.6264H52.426C52.5188 32.4408 52.6497 32.2436 52.8187 32.0348C52.9877 31.8227 53.2164 31.642 53.5048 31.4929C53.7931 31.3404 54.161 31.2642 54.6085 31.2642C55.1984 31.2642 55.7304 31.415 56.2044 31.7166C56.6816 32.0149 57.0595 32.4574 57.3379 33.044C57.6196 33.6274 57.7605 34.3433 57.7605 35.1918C57.7605 36.0303 57.6229 36.7429 57.3478 37.3295C57.0727 37.9162 56.6982 38.3636 56.2243 38.6719C55.7503 38.9801 55.2134 39.1342 54.6135 39.1342C54.176 39.1342 53.813 39.0613 53.5247 38.9155C53.2363 38.7696 53.0043 38.594 52.8287 38.3885C52.6563 38.1797 52.5221 37.9825 52.426 37.7969H52.3514V41.8636H50.5517ZM52.3166 35.1818C52.3166 35.6757 52.3862 36.1082 52.5254 36.4794C52.6679 36.8506 52.8717 37.1406 53.1369 37.3494C53.4054 37.5549 53.7302 37.6577 54.1113 37.6577C54.5091 37.6577 54.8422 37.5516 55.1106 37.3395C55.3791 37.1241 55.5813 36.8307 55.7172 36.4595C55.8564 36.085 55.926 35.6591 55.926 35.1818C55.926 34.7079 55.858 34.2869 55.7221 33.919C55.5862 33.5511 55.3841 33.2628 55.1156 33.054C54.8471 32.8452 54.5124 32.7408 54.1113 32.7408C53.7269 32.7408 53.4004 32.8419 53.1319 33.044C52.8635 33.2462 52.6596 33.5296 52.5204 33.8942C52.3845 34.2588 52.3166 34.688 52.3166 35.1818ZM62.7544 39V37.6676L66.2892 34.2024C66.6273 33.861 66.909 33.5578 67.1344 33.2926C67.3598 33.0275 67.5288 32.7706 67.6415 32.522C67.7542 32.2734 67.8105 32.0083 67.8105 31.7266C67.8105 31.4051 67.7376 31.13 67.5918 30.9013C67.446 30.6693 67.2454 30.4903 66.9902 30.3643C66.735 30.2384 66.445 30.1754 66.1202 30.1754C65.7855 30.1754 65.4921 30.245 65.2402 30.3842C64.9883 30.5201 64.7928 30.714 64.6536 30.9659C64.5177 31.2178 64.4498 31.5178 64.4498 31.8658H62.6948C62.6948 31.2195 62.8423 30.6577 63.1373 30.1804C63.4322 29.7031 63.8382 29.3336 64.3553 29.0717C64.8757 28.8099 65.4722 28.679 66.1451 28.679C66.8278 28.679 67.4277 28.8066 67.9448 29.0618C68.4618 29.317 68.8629 29.6667 69.1479 30.1108C69.4363 30.5549 69.5804 31.062 69.5804 31.6321C69.5804 32.0133 69.5075 32.3878 69.3617 32.7557C69.2159 33.1236 68.959 33.5312 68.5911 33.9787C68.2265 34.4261 67.7144 34.968 67.0549 35.6044L65.2999 37.3892V37.4588H69.7346V39H62.7544Z" fill="white"/>
</g>
<defs>
<filter id="filter0_d_132_4650" x="-13.55" y="-9.8" width="305.6" height="161.6" filterUnits="userSpaceOnUse" color-interpolation-filters="sRGB">
<feFlood flood-opacity="0" result="BackgroundImageFix"/>
<feColorMatrix in="SourceAlpha" type="matrix" values="0 0 0 0 0 0 0 0 0 0 0 0 0 0 0 0 0 0 127 0" result="hardAlpha"/>
<feMorphology radius="10" operator="dilate" in="SourceAlpha" result="effect1_dropShadow_132_4650"/>
<feOffset dx="-0.75" dy="3"/>
<feGaussianBlur stdDeviation="9.4"/>
<feComposite in2="hardAlpha" operator="out"/>
<feColorMatrix type="matrix" values="0 0 0 0 0.819608 0 0 0 0 0.819608 0 0 0 0 0.819608 0 0 0 1 0"/>
<feBlend mode="normal" in2="BackgroundImageFix" result="effect1_dropShadow_132_4650"/>
<feBlend mode="normal" in="SourceGraphic" in2="effect1_dropShadow_132_4650" result="shape"/>
</filter>
</defs>
</svg>
