<svg width="280" height="152" viewBox="0 0 280 152" fill="none" xmlns="http://www.w3.org/2000/svg">
<g filter="url(#filter0_d_132_4672)">
<rect x="16" y="16" width="248" height="104" rx="16" fill="#1A1A1A"/>
<path d="M132.083 66.7857C132.083 66.7857 137.238 71.94 140.54 75.2427M132.083 66.7857L122 65.8099C122 65.8099 125.668 58.3073 130.132 56.377C134.447 54.511 142.167 56.7023 142.167 56.7023M132.083 66.7857L137.125 61.744L142.167 56.7023M140.54 75.2427C140.921 79.0535 141.516 85.0008 141.516 85.0008C141.516 85.0008 148.435 80.9252 150.299 76.5438C152.089 72.3352 150.497 64.8341 150.497 64.8341M140.54 75.2427C144.429 71.1779 150.497 64.8341 150.497 64.8341M150.497 64.8341L154.852 60.2803C154.852 60.2803 158.275 54.8431 156.479 52.1485C155.98 51.4012 155.598 51.0225 154.852 50.5222C152.037 48.634 146.395 52.4738 146.395 52.4738L142.167 56.7023M135.011 76.5438C135.498 80.014 132.085 81.7508 128.831 83.0492C126.811 83.8549 124.92 85.1509 123.301 83.6998C121.693 82.2586 122.676 80.2372 123.301 78.1702C124.367 74.644 126.496 71.0692 130.132 71.6647C132.791 72.1004 134.636 73.8753 135.011 76.5438Z" stroke="#FCC40F" stroke-width="2.3334"/>
<path d="M16 16H80V43C80 47.4183 76.4183 51 72 51H16V16Z" fill="#FCC40F"/>
<path d="M33.5376 31.6172C33.4912 31.183 33.2957 30.8449 32.951 30.603C32.6096 30.361 32.1655 30.2401 31.6186 30.2401C31.2341 30.2401 30.9044 30.2981 30.6293 30.4141C30.3542 30.5301 30.1437 30.6875 29.9979 30.8864C29.852 31.0852 29.7775 31.3123 29.7741 31.5675C29.7741 31.7796 29.8222 31.9635 29.9183 32.1193C30.0178 32.2751 30.152 32.4077 30.321 32.517C30.4901 32.6231 30.6773 32.7126 30.8828 32.7855C31.0883 32.8584 31.2955 32.9197 31.5043 32.9695L32.4588 33.2081C32.8433 33.2976 33.2128 33.4186 33.5675 33.571C33.9254 33.7235 34.2453 33.9157 34.527 34.1477C34.812 34.3797 35.0374 34.6598 35.2031 34.9879C35.3688 35.3161 35.4517 35.7005 35.4517 36.1413C35.4517 36.7379 35.2992 37.2633 34.9943 37.7173C34.6894 38.1681 34.2486 38.5211 33.6719 38.7763C33.0985 39.0282 32.4041 39.1541 31.5888 39.1541C30.7966 39.1541 30.1089 39.0315 29.5256 38.7862C28.9455 38.541 28.4915 38.183 28.1634 37.7124C27.8385 37.2417 27.6629 36.6683 27.6364 35.9922H29.451C29.4775 36.3468 29.5869 36.6418 29.7791 36.8771C29.9714 37.1125 30.2216 37.2881 30.5298 37.4041C30.8414 37.5201 31.1894 37.5781 31.5739 37.5781C31.9749 37.5781 32.3262 37.5185 32.6278 37.3991C32.9328 37.2765 33.1714 37.1075 33.3438 36.892C33.5161 36.6733 33.6039 36.4181 33.6072 36.1264C33.6039 35.8613 33.526 35.6425 33.3736 35.4702C33.2211 35.2945 33.0073 35.1487 32.7322 35.0327C32.4605 34.9134 32.1423 34.8073 31.7777 34.7145L30.6193 34.4162C29.7808 34.2008 29.1179 33.8743 28.6307 33.4368C28.1468 32.996 27.9048 32.411 27.9048 31.6818C27.9048 31.0819 28.0672 30.5566 28.392 30.1058C28.7202 29.6551 29.166 29.3054 29.7294 29.0568C30.2929 28.8049 30.9309 28.679 31.6435 28.679C32.366 28.679 32.9991 28.8049 33.5426 29.0568C34.0895 29.3054 34.5187 29.6518 34.8303 30.0959C35.1418 30.5367 35.3026 31.0438 35.3125 31.6172H33.5376ZM40.8297 31.3636V32.7557H36.4398V31.3636H40.8297ZM37.5236 29.5341H39.3233V36.7031C39.3233 36.9451 39.3598 37.1307 39.4327 37.2599C39.5089 37.3859 39.6084 37.4721 39.731 37.5185C39.8536 37.5649 39.9895 37.5881 40.1387 37.5881C40.2514 37.5881 40.3541 37.5798 40.4469 37.5632C40.543 37.5466 40.6159 37.5317 40.6657 37.5185L40.9689 38.9254C40.8728 38.9586 40.7353 38.995 40.5563 39.0348C40.3806 39.0746 40.1652 39.0978 39.91 39.1044C39.4592 39.1177 39.0532 39.0497 38.6919 38.9006C38.3307 38.7481 38.044 38.5128 37.8319 38.1946C37.623 37.8764 37.5203 37.4787 37.5236 37.0014V29.5341ZM45.6335 39.1491C44.8679 39.1491 44.2067 38.9901 43.6499 38.6719C43.0964 38.3504 42.6705 37.8963 42.3722 37.3097C42.0739 36.7197 41.9247 36.0253 41.9247 35.2266C41.9247 34.4411 42.0739 33.7517 42.3722 33.1584C42.6738 32.5618 43.0947 32.0978 43.6349 31.7663C44.1752 31.4316 44.8099 31.2642 45.5391 31.2642C46.0097 31.2642 46.4538 31.3404 46.8714 31.4929C47.2924 31.642 47.6636 31.8741 47.9851 32.1889C48.3099 32.5038 48.5651 32.9048 48.7507 33.392C48.9363 33.8759 49.0291 34.4527 49.0291 35.1222V35.674H42.7699V34.4609H47.304C47.3007 34.1162 47.2261 33.8097 47.0803 33.5412C46.9344 33.2694 46.7306 33.0556 46.4688 32.8999C46.2102 32.7441 45.9086 32.6662 45.5639 32.6662C45.196 32.6662 44.8729 32.7557 44.5945 32.9347C44.3161 33.1103 44.099 33.3423 43.9432 33.6307C43.7907 33.9157 43.7128 34.2289 43.7095 34.5703V35.6293C43.7095 36.0734 43.7907 36.4545 43.9531 36.7727C44.1155 37.0876 44.3426 37.3295 44.6342 37.4986C44.9259 37.6643 45.2673 37.7472 45.6584 37.7472C45.9202 37.7472 46.1572 37.7107 46.3693 37.6378C46.5814 37.5616 46.7654 37.4505 46.9212 37.3047C47.0769 37.1589 47.1946 36.9782 47.2741 36.7628L48.9545 36.9517C48.8485 37.3958 48.6463 37.7836 48.348 38.1151C48.053 38.4432 47.6752 38.6984 47.2145 38.8807C46.7538 39.0597 46.2268 39.1491 45.6335 39.1491ZM50.5517 41.8636V31.3636H52.3216V32.6264H52.426C52.5188 32.4408 52.6497 32.2436 52.8187 32.0348C52.9877 31.8227 53.2164 31.642 53.5048 31.4929C53.7931 31.3404 54.161 31.2642 54.6085 31.2642C55.1984 31.2642 55.7304 31.415 56.2044 31.7166C56.6816 32.0149 57.0595 32.4574 57.3379 33.044C57.6196 33.6274 57.7605 34.3433 57.7605 35.1918C57.7605 36.0303 57.6229 36.7429 57.3478 37.3295C57.0727 37.9162 56.6982 38.3636 56.2243 38.6719C55.7503 38.9801 55.2134 39.1342 54.6135 39.1342C54.176 39.1342 53.813 39.0613 53.5247 38.9155C53.2363 38.7696 53.0043 38.594 52.8287 38.3885C52.6563 38.1797 52.5221 37.9825 52.426 37.7969H52.3514V41.8636H50.5517ZM52.3166 35.1818C52.3166 35.6757 52.3862 36.1082 52.5254 36.4794C52.6679 36.8506 52.8717 37.1406 53.1369 37.3494C53.4054 37.5549 53.7302 37.6577 54.1113 37.6577C54.5091 37.6577 54.8422 37.5516 55.1106 37.3395C55.3791 37.1241 55.5813 36.8307 55.7172 36.4595C55.8564 36.085 55.926 35.6591 55.926 35.1818C55.926 34.7079 55.858 34.2869 55.7221 33.919C55.5862 33.5511 55.3841 33.2628 55.1156 33.054C54.8471 32.8452 54.5124 32.7408 54.1113 32.7408C53.7269 32.7408 53.4004 32.8419 53.1319 33.044C52.8635 33.2462 52.6596 33.5296 52.5204 33.8942C52.3845 34.2588 52.3166 34.688 52.3166 35.1818ZM62.5705 37.1108V35.6442L66.8908 28.8182H68.1138V30.9062H67.3681L64.4597 35.5149V35.5945H70.4902V37.1108H62.5705ZM67.4277 39V36.6634L67.4476 36.0071V28.8182H69.1877V39H67.4277Z" fill="#1A1A1A"/>
</g>
<defs>
<filter id="filter0_d_132_4672" x="-13.55" y="-9.8" width="305.6" height="161.6" filterUnits="userSpaceOnUse" color-interpolation-filters="sRGB">
<feFlood flood-opacity="0" result="BackgroundImageFix"/>
<feColorMatrix in="SourceAlpha" type="matrix" values="0 0 0 0 0 0 0 0 0 0 0 0 0 0 0 0 0 0 127 0" result="hardAlpha"/>
<feMorphology radius="10" operator="dilate" in="SourceAlpha" result="effect1_dropShadow_132_4672"/>
<feOffset dx="-0.75" dy="3"/>
<feGaussianBlur stdDeviation="9.4"/>
<feComposite in2="hardAlpha" operator="out"/>
<feColorMatrix type="matrix" values="0 0 0 0 0.819608 0 0 0 0 0.819608 0 0 0 0 0.819608 0 0 0 1 0"/>
<feBlend mode="normal" in2="BackgroundImageFix" result="effect1_dropShadow_132_4672"/>
<feBlend mode="normal" in="SourceGraphic" in2="effect1_dropShadow_132_4672" result="shape"/>
</filter>
</defs>
</svg>
