<svg width="1440" height="799" viewBox="0 0 1440 799" fill="none" xmlns="http://www.w3.org/2000/svg">
<g clip-path="url(#clip0_882_115025)">
<rect width="1440" height="799" fill="#1A1A1A"/>
<path opacity="0.0344828" d="M651.124 497.548C551.168 430.469 468.596 362.269 415.891 306.257C389.528 278.24 370.706 253.345 360.891 233.215C355.983 223.148 353.368 214.356 353.133 207.013C352.897 199.682 355.031 193.92 359.446 189.712C363.86 185.505 370.585 182.824 379.653 181.736C388.736 180.646 400.016 181.179 413.264 183.297C439.757 187.532 473.68 198.032 512.757 213.931C590.88 245.717 689.197 298.91 789.152 365.989C889.108 433.068 971.682 501.268 1024.39 557.28C1050.75 585.297 1069.57 610.192 1079.39 630.322C1084.29 640.389 1086.91 649.181 1087.14 656.524C1087.38 663.854 1085.25 669.617 1080.83 673.824C1076.42 678.032 1069.69 680.713 1060.62 681.801C1051.54 682.89 1040.26 682.358 1027.01 680.241C1000.52 676.006 966.598 665.504 927.521 649.606C849.398 617.82 751.08 564.627 651.124 497.548Z" stroke="#F4F8FF" stroke-opacity="0.04" stroke-width="3.77562"/>
<path opacity="0.0689655" d="M644.192 489.491C551.931 415.704 477.11 342.013 430.714 282.547C407.508 252.803 391.476 226.697 383.895 205.966C380.104 195.6 378.458 186.662 379.023 179.331C379.588 172.013 382.342 166.401 387.226 162.495C392.111 158.588 399.128 156.385 408.278 155.934C417.445 155.481 428.62 156.798 441.581 159.83C467.502 165.893 500.144 178.715 537.335 197.275C611.688 234.381 703.829 294.22 796.09 368.007C888.351 441.795 963.171 515.486 1009.57 574.952C1032.77 604.696 1048.8 630.802 1056.39 651.533C1060.18 661.899 1061.82 670.836 1061.26 678.168C1060.69 685.485 1057.94 691.098 1053.05 695.004C1048.17 698.911 1041.15 701.113 1032 701.565C1022.84 702.017 1011.66 700.7 998.7 697.668C972.779 691.605 940.137 678.784 902.946 660.224C828.593 623.118 736.453 563.279 644.192 489.491Z" stroke="#F4F8FF" stroke-opacity="0.04" stroke-width="3.77562"/>
<path opacity="0.103448" d="M637.832 480.965C553.967 401.032 487.468 322.412 447.734 259.946C427.86 228.701 414.737 201.585 409.446 180.412C404.117 159.091 406.88 144.457 417.535 137.307C428.19 130.157 446.689 130.521 472.018 138.421C497.171 146.265 528.283 161.309 563.305 182.388C633.323 224.53 718.585 290.558 802.45 370.492C886.314 450.426 952.814 529.046 992.547 591.511C1012.42 622.756 1025.54 649.873 1030.84 671.045C1036.16 692.367 1033.4 707.001 1022.75 714.151C1012.09 721.301 993.592 720.936 968.263 713.037C943.111 705.193 911.999 690.148 876.977 669.069C806.959 626.927 721.696 560.899 637.832 480.965Z" stroke="#F4F8FF" stroke-opacity="0.04" stroke-width="3.77562"/>
<path opacity="0.137931" d="M632.094 472.015C557.264 386.545 499.59 303.596 466.819 238.607C450.427 206.099 440.314 178.178 437.351 156.725C434.37 135.139 438.699 120.727 450.14 114.32C461.581 107.914 479.995 109.589 504.338 119.212C528.531 128.776 557.878 145.927 590.466 169.364C655.617 216.22 733.353 287.934 808.183 373.405C883.014 458.875 940.687 541.825 973.458 606.814C989.85 639.321 999.964 667.242 1002.93 688.696C1005.91 710.281 1001.58 724.693 990.138 731.1C978.697 737.507 960.282 735.832 935.94 726.209C911.747 716.644 882.4 699.494 849.812 676.057C784.661 629.201 706.925 557.486 632.094 472.015Z" stroke="#F4F8FF" stroke-opacity="0.04" stroke-width="3.77562"/>
<path opacity="0.172414" d="M627.031 462.683C561.803 372.326 513.393 285.68 487.833 218.663C475.047 185.141 468.016 156.628 467.403 135.057C466.786 113.37 472.657 99.2879 484.798 93.682C496.938 88.0761 515.122 91.0509 538.298 102.322C561.349 113.532 588.708 132.658 618.614 158.274C678.403 209.487 748.023 286.34 813.251 376.697C878.479 467.053 926.889 553.699 952.449 620.717C965.235 654.238 972.266 682.751 972.879 704.322C973.496 726.01 967.625 740.092 955.484 745.698C943.344 751.303 925.16 748.329 901.984 737.058C878.933 725.848 851.573 706.721 821.667 681.105C761.879 629.892 692.259 553.039 627.031 462.683Z" stroke="#F4F8FF" stroke-opacity="0.04" stroke-width="3.77562"/>
<path opacity="0.206897" d="M622.674 453.019C567.544 358.465 528.764 268.781 510.606 200.245C501.523 165.964 497.628 137.077 499.367 115.552C501.115 93.9252 508.49 80.2816 521.236 75.5279C533.982 70.7746 551.791 75.0264 573.628 87.8571C595.363 100.628 620.529 121.582 647.526 149.182C701.5 204.361 762.475 285.767 817.605 380.322C872.735 474.876 911.515 564.56 929.673 633.096C938.755 667.377 942.65 696.265 940.911 717.789C939.164 739.416 931.79 753.059 919.044 757.813C906.297 762.567 888.488 758.315 866.651 745.484C844.916 732.714 819.75 711.759 792.753 684.159C738.779 628.98 677.804 547.574 622.674 453.019Z" stroke="#F4F8FF" stroke-opacity="0.04" stroke-width="3.77562"/>
<path opacity="0.241379" d="M619.063 443.073C574.449 345.04 545.592 253.001 534.973 183.468C529.662 148.689 528.93 119.646 533.007 98.3298C537.101 76.9247 545.93 63.8256 559.181 59.9681C572.433 56.1107 589.724 61.6063 610.064 75.8989C630.319 90.1319 653.101 112.756 676.985 142.129C724.735 200.854 776.603 286.194 821.217 384.227C865.831 482.26 894.687 574.299 905.306 643.832C910.618 678.611 911.35 707.654 907.273 728.97C903.179 750.375 894.35 763.474 881.098 767.331C867.846 771.189 850.555 765.693 830.215 751.401C809.96 737.168 787.178 714.543 763.294 685.17C715.545 626.446 663.677 541.105 619.063 443.073Z" stroke="#F4F8FF" stroke-opacity="0.04" stroke-width="3.77562"/>
<path opacity="0.275862" d="M616.225 432.901C582.465 332.136 563.75 238.441 560.749 168.439C559.248 133.426 561.684 104.447 568.067 83.5017C574.474 62.477 584.695 50.0257 598.346 47.1003C611.996 44.175 628.633 50.8707 647.326 66.5167C665.948 82.1038 686.175 106.225 706.765 137.148C747.93 198.971 790.297 287.598 824.057 388.363C857.816 489.128 876.532 582.822 879.533 652.823C881.034 687.837 878.598 716.816 872.215 737.762C865.808 758.787 855.586 771.238 841.936 774.163C828.285 777.088 811.648 770.393 792.956 754.747C774.333 739.16 754.107 715.037 733.517 684.114C692.352 622.291 649.984 533.666 616.225 432.901Z" stroke="#F4F8FF" stroke-opacity="0.04" stroke-width="3.77562"/>
<path opacity="0.310345" d="M614.179 422.556C591.53 319.824 583.097 225.186 587.736 155.247C590.056 120.265 595.641 91.5697 604.28 71.1519C612.95 50.6633 624.49 38.959 638.428 36.9933C652.367 35.0276 668.216 42.8697 685.125 59.7511C701.975 76.5743 719.495 102.011 736.635 134.249C770.904 198.702 803.451 289.939 826.1 392.671C848.75 495.402 857.183 590.04 852.544 659.979C850.224 694.962 844.639 723.656 835.999 744.074C827.329 764.562 815.79 776.266 801.851 778.232C787.912 780.198 772.063 772.356 755.154 755.474C738.304 738.651 720.785 713.215 703.644 680.977C669.376 616.525 636.829 525.287 614.179 422.556Z" stroke="#F4F8FF" stroke-opacity="0.04" stroke-width="3.77562"/>
<path opacity="0.344828" d="M612.947 412.094C601.579 308.177 603.492 213.314 615.734 143.967C621.857 109.281 630.547 81.087 641.378 61.3511C652.244 41.5507 665.016 30.6877 679.129 29.7C693.242 28.7125 708.18 37.6366 723.181 55.6273C738.132 73.5592 752.811 100.118 766.373 133.427C793.485 200.02 815.965 293.176 827.333 397.093C838.7 501.01 836.788 595.872 824.546 665.219C818.423 699.905 809.734 728.099 798.903 747.835C788.036 767.636 775.263 778.498 761.15 779.486C747.037 780.473 732.1 771.549 717.1 753.559C702.148 735.627 687.469 709.068 673.908 675.759C646.795 609.166 624.315 516.011 612.947 412.094Z" stroke="#F4F8FF" stroke-opacity="0.04" stroke-width="3.77562"/>
<path opacity="0.37931" d="M612.536 401.571C612.536 297.258 624.779 202.891 644.531 134.663C654.411 100.536 666.14 73.0566 679.08 54.1514C692.062 35.1851 705.97 25.251 720.142 25.251C734.313 25.2511 748.221 35.1852 761.203 54.1514C774.143 73.0566 785.871 100.536 795.751 134.663C815.503 202.891 827.747 297.258 827.747 401.571C827.747 505.885 815.503 600.252 795.751 668.48C785.871 702.607 774.143 730.087 761.203 748.992C748.221 767.958 734.313 777.892 720.142 777.893C705.97 777.893 692.062 767.958 679.08 748.992C666.14 730.087 654.411 702.607 644.531 668.48C624.779 600.252 612.536 505.885 612.536 401.571Z" stroke="#F4F8FF" stroke-opacity="0.04" stroke-width="3.77562"/>
<path opacity="0.413793" d="M612.946 391.052C624.314 287.135 646.795 193.979 673.908 127.387C687.469 94.0777 702.148 67.5186 717.1 49.5867C732.1 31.5962 747.037 22.672 761.15 23.6594C775.263 24.6469 788.036 35.5099 798.902 55.3105C809.733 75.0465 818.423 103.241 824.546 137.927C836.788 207.273 838.7 302.136 827.332 406.053C815.965 509.97 793.485 603.126 766.372 669.718C752.811 703.027 738.132 729.586 723.18 747.518C708.18 765.509 693.242 774.433 679.129 773.445C665.016 772.458 652.244 761.595 641.377 741.794C630.546 722.058 621.857 693.864 615.734 659.178C603.492 589.832 601.579 494.969 612.946 391.052Z" stroke="#F4F8FF" stroke-opacity="0.04" stroke-width="3.77562"/>
<path opacity="0.448276" d="M614.178 380.59C636.828 277.858 669.375 186.621 703.643 122.169C720.784 89.9303 738.303 64.4936 755.153 47.6704C772.062 30.789 787.911 22.947 801.85 24.9126C815.789 26.8783 827.328 38.5827 835.998 59.0712C844.638 79.489 850.223 108.184 852.543 143.167C857.181 213.106 848.748 307.744 826.099 410.475C803.449 513.207 770.902 604.444 736.634 668.896C719.494 701.135 701.974 726.57 685.124 743.394C668.215 760.275 652.366 768.117 638.427 766.151C624.489 764.186 612.949 752.481 604.279 731.993C595.64 711.575 590.054 682.881 587.734 647.898C583.096 577.959 591.529 483.321 614.178 380.59Z" stroke="#F4F8FF" stroke-opacity="0.04" stroke-width="3.77562"/>
<path opacity="0.482759" d="M616.225 370.245C649.984 269.48 692.353 180.855 733.517 119.032C754.107 88.1084 774.333 63.9859 792.956 48.3987C811.649 32.7528 828.285 26.0572 841.936 28.9823C855.586 31.9076 865.808 44.3589 872.215 65.3837C878.598 86.3296 881.034 115.308 879.533 150.322C876.532 220.324 857.816 314.018 824.057 414.783C790.297 515.548 747.93 604.174 706.765 665.997C686.175 696.92 665.948 721.042 647.326 736.629C628.633 752.275 611.997 758.971 598.346 756.045C584.695 753.12 574.474 740.669 568.067 719.644C561.684 698.698 559.248 669.72 560.749 634.706C563.75 564.705 582.465 471.01 616.225 370.245Z" stroke="#F4F8FF" stroke-opacity="0.04" stroke-width="3.77562"/>
<path opacity="0.517241" d="M619.062 360.071C663.676 262.038 715.544 176.697 763.294 117.973C787.178 88.6002 809.96 65.9758 830.215 51.7429C850.555 37.4502 867.846 31.9547 881.098 35.812C894.349 39.6695 903.178 52.7686 907.272 74.1737C911.349 95.4895 910.618 124.533 905.306 159.312C894.687 228.845 865.831 320.884 821.217 418.917C776.603 516.949 724.735 602.29 676.985 661.014C653.101 690.387 630.319 713.012 610.064 727.245C589.724 741.537 572.433 747.033 559.181 743.175C545.93 739.318 537.101 726.219 533.007 704.814C528.93 683.498 529.661 654.455 534.973 619.675C545.592 550.143 574.448 458.104 619.062 360.071Z" stroke="#F4F8FF" stroke-opacity="0.04" stroke-width="3.77562"/>
<path opacity="0.551724" d="M622.674 350.126C677.804 255.572 738.779 174.165 792.753 118.987C819.75 91.3867 844.916 70.4319 866.651 57.6614C888.489 44.8305 906.298 40.5789 919.044 45.3326C931.79 50.0863 939.165 63.7297 940.912 85.3561C942.651 106.881 938.756 135.768 929.673 170.049C911.515 238.585 872.736 328.269 817.605 422.824C762.475 517.378 701.5 598.785 647.526 653.963C620.529 681.563 595.363 702.518 573.628 715.288C551.791 728.119 533.983 732.371 521.236 727.618C508.49 722.864 501.115 709.22 499.368 687.594C497.629 666.069 501.524 637.181 510.606 602.9C528.764 534.365 567.544 444.681 622.674 350.126Z" stroke="#F4F8FF" stroke-opacity="0.04" stroke-width="3.77562"/>
<path opacity="0.586207" d="M627.029 340.461C692.257 250.104 761.877 173.251 821.666 122.039C851.572 96.4225 878.931 77.2962 901.982 66.0859C925.158 54.8152 943.342 51.8412 955.482 57.447C967.623 63.0529 973.494 77.1344 972.877 98.8215C972.264 120.392 965.233 148.905 952.448 182.427C926.887 249.444 878.477 336.091 813.249 426.447C748.021 516.804 678.401 593.657 618.613 644.869C588.707 670.485 561.347 689.612 538.296 700.822C515.121 712.093 496.936 715.068 484.796 709.462C472.655 703.856 466.784 689.774 467.401 668.087C468.015 646.516 475.045 618.003 487.831 584.481C513.392 517.464 561.801 430.817 627.029 340.461Z" stroke="#F4F8FF" stroke-opacity="0.04" stroke-width="3.77562"/>
<path opacity="0.62069" d="M632.095 331.13C706.925 245.659 784.661 173.945 849.812 127.089C882.399 103.652 911.747 86.5016 935.94 76.9375C960.282 67.3143 978.697 65.6383 990.138 72.0452C1001.58 78.4522 1005.91 92.8649 1002.93 114.45C999.964 135.904 989.85 163.825 973.458 196.332C940.687 261.321 883.014 344.27 808.184 429.741C733.353 515.211 655.617 586.926 590.466 633.782C557.878 657.219 528.531 674.37 504.338 683.934C479.995 693.557 461.581 695.232 450.14 688.826C438.699 682.419 434.37 668.006 437.351 646.421C440.314 624.968 450.427 597.046 466.819 564.539C499.59 499.55 557.264 416.601 632.095 331.13Z" stroke="#F4F8FF" stroke-opacity="0.04" stroke-width="3.77562"/>
<path opacity="0.655172" d="M637.83 322.178C721.695 242.245 806.957 176.217 876.975 134.074C911.998 112.995 943.11 97.951 968.262 90.1068C993.591 82.2075 1012.09 81.8426 1022.74 88.9926C1033.4 96.1428 1036.16 110.777 1030.83 132.098C1025.54 153.271 1012.42 180.388 992.546 211.632C952.812 274.098 886.313 352.718 802.449 432.652C718.584 512.585 633.322 578.613 563.304 620.755C528.281 641.835 497.169 656.879 472.017 664.723C446.688 672.623 428.188 672.987 417.534 665.837C406.879 658.687 404.116 644.053 409.445 622.732C414.736 601.559 427.859 574.442 447.733 543.198C487.467 480.732 553.966 402.112 637.83 322.178Z" stroke="#F4F8FF" stroke-opacity="0.04" stroke-width="3.77562"/>
<path opacity="0.689655" d="M644.19 313.654C736.451 239.867 828.592 180.027 902.945 142.922C940.136 124.362 972.778 111.54 998.699 105.477C1011.66 102.445 1022.84 101.128 1032 101.581C1041.15 102.032 1048.17 104.235 1053.05 108.141C1057.94 112.048 1060.69 117.66 1061.26 124.978C1061.82 132.309 1060.18 141.247 1056.39 151.613C1048.8 172.343 1032.77 198.449 1009.57 228.193C963.17 287.659 888.35 361.35 796.089 435.138C703.828 508.926 611.687 568.764 537.334 605.87C500.143 624.43 467.501 637.252 441.58 643.315C428.619 646.347 417.444 647.664 408.277 647.212C399.127 646.76 392.11 644.557 387.225 640.65C382.341 636.744 379.587 631.132 379.022 623.815C378.457 616.483 380.103 607.546 383.894 597.18C391.475 576.449 407.507 550.343 430.713 520.598C477.109 461.133 551.93 387.442 644.19 313.654Z" stroke="#F4F8FF" stroke-opacity="0.04" stroke-width="3.77562"/>
<path opacity="0.724138" d="M651.126 305.597C751.082 238.518 849.4 185.325 927.523 153.54C966.599 137.641 1000.52 127.14 1027.01 122.905C1040.26 120.787 1051.54 120.255 1060.63 121.344C1069.69 122.432 1076.42 125.113 1080.83 129.32C1085.25 133.528 1087.38 139.291 1087.15 146.622C1086.91 153.965 1084.3 162.756 1079.39 172.823C1069.57 192.954 1050.75 217.849 1024.39 245.866C971.683 301.877 889.11 370.077 789.155 437.156C689.199 504.235 590.881 557.429 512.758 589.214C473.681 605.113 439.758 615.614 413.266 619.849C400.017 621.966 388.738 622.499 379.655 621.409C370.587 620.321 363.863 617.64 359.448 613.432C355.034 609.225 352.9 603.463 353.135 596.132C353.37 588.789 355.984 579.997 360.893 569.93C370.708 549.8 389.529 524.905 415.892 496.889C468.597 440.877 551.171 372.676 651.126 305.597Z" stroke="#F4F8FF" stroke-opacity="0.04" stroke-width="3.77562"/>
<path opacity="0.758621" d="M658.58 298.044C765.47 238.185 869.218 192.044 950.517 165.823C991.181 152.707 1026.13 144.608 1052.99 142.235C1066.42 141.048 1077.72 141.304 1086.65 143.023C1095.57 144.739 1101.95 147.875 1105.87 152.347C1109.78 156.819 1111.28 162.688 1110.25 169.977C1109.21 177.276 1105.65 185.854 1099.66 195.545C1087.69 214.921 1066.22 238.415 1036.9 264.49C978.286 316.621 888.588 378.809 781.698 438.668C674.808 498.527 571.061 544.669 489.763 570.891C449.098 584.006 414.152 592.105 387.29 594.478C373.856 595.664 362.557 595.408 353.627 593.689C344.709 591.973 338.328 588.837 334.412 584.365C330.497 579.893 328.995 574.025 330.029 566.736C331.064 559.437 334.627 550.858 340.617 541.168C352.592 521.791 374.059 498.298 403.378 472.223C461.993 420.092 551.69 357.903 658.58 298.044Z" stroke="#F4F8FF" stroke-opacity="0.04" stroke-width="3.77562"/>
<path opacity="0.793103" d="M666.501 291.03C779.512 238.848 887.899 200.112 971.754 179.654C1013.7 169.422 1049.4 163.789 1076.43 163.297C1089.94 163.051 1101.18 164.094 1109.88 166.429C1118.59 168.761 1124.58 172.325 1127.97 177.024C1131.36 181.723 1132.22 187.654 1130.4 194.847C1128.57 202.046 1124.09 210.346 1117.06 219.586C1103.02 238.06 1079.06 259.972 1047.01 283.906C982.934 331.757 886.795 387.461 773.784 439.643C660.773 491.826 552.386 530.562 468.531 551.019C426.588 561.251 390.885 566.885 363.858 567.376C350.34 567.622 339.109 566.579 330.399 564.245C321.699 561.912 315.708 558.349 312.316 553.65C308.924 548.95 308.06 543.019 309.885 535.827C311.711 528.627 316.198 520.327 323.223 511.087C337.269 492.614 361.22 470.702 393.272 446.767C457.351 398.916 553.49 343.213 666.501 291.03Z" stroke="#F4F8FF" stroke-opacity="0.04" stroke-width="3.77562"/>
<path opacity="0.827586" d="M674.816 284.583C793.087 240.475 905.289 209.44 991.061 194.904C1033.96 187.634 1070.15 184.51 1097.14 185.904C1110.63 186.602 1121.71 188.425 1130.13 191.358C1138.55 194.29 1144.11 198.25 1146.96 203.138C1149.81 208.027 1150.03 213.978 1147.43 221.02C1144.82 228.065 1139.45 236.024 1131.44 244.742C1115.43 262.171 1089.18 282.334 1054.64 303.945C985.582 347.151 883.733 395.943 765.462 440.051C647.191 484.159 534.989 515.195 449.217 529.73C406.315 537.001 370.127 540.124 343.142 538.73C329.644 538.032 318.565 536.21 310.142 533.276C301.725 530.345 296.168 526.383 293.318 521.495C290.468 516.607 290.245 510.656 292.848 503.615C295.453 496.569 300.828 488.61 308.836 479.892C324.846 462.463 351.1 442.3 385.641 420.689C454.696 377.483 556.545 328.691 674.816 284.583Z" stroke="#F4F8FF" stroke-opacity="0.04" stroke-width="3.77562"/>
<path opacity="0.862069" d="M683.471 278.727C806.102 243.03 921.264 219.933 1008.3 211.431C1051.83 207.178 1088.23 206.588 1114.97 209.859C1128.34 211.495 1139.18 214.084 1147.25 217.594C1155.32 221.103 1160.41 225.43 1162.7 230.47C1165 235.511 1164.58 241.439 1161.22 248.276C1157.85 255.114 1151.63 262.67 1142.7 270.799C1124.85 287.049 1096.49 305.308 1059.73 324.431C986.219 362.661 879.436 404.17 756.805 439.867C634.174 475.564 519.012 498.662 431.976 507.164C388.442 511.416 352.046 512.007 325.309 508.736C311.935 507.099 301.094 504.51 293.022 501.001C284.952 497.492 279.868 493.165 277.574 488.125C275.28 483.084 275.697 477.156 279.059 470.319C282.422 463.481 288.645 455.925 297.576 447.795C315.428 431.545 343.784 413.286 380.551 394.164C454.057 355.933 560.84 314.424 683.471 278.727Z" stroke="#F4F8FF" stroke-opacity="0.04" stroke-width="3.77562"/>
<path opacity="0.896552" d="M692.4 273.483C818.457 246.469 935.702 231.486 1023.34 229.083C1067.17 227.881 1103.5 229.83 1129.78 234.953C1142.93 237.516 1153.45 240.852 1161.11 244.911C1168.77 248.971 1173.35 253.629 1175.08 258.786C1176.8 263.943 1175.75 269.808 1171.66 276.388C1167.56 282.966 1160.54 290.062 1150.75 297.539C1131.19 312.486 1100.95 328.701 1062.24 345.188C984.84 378.151 873.936 412.06 747.878 439.074C621.821 466.088 504.577 481.071 416.941 483.474C373.107 484.676 336.78 482.727 310.497 477.603C297.348 475.041 286.829 471.705 279.169 467.646C271.508 463.585 266.93 458.927 265.202 453.77C263.475 448.613 264.527 442.749 268.624 436.169C272.719 429.59 279.744 422.495 289.528 415.018C309.088 400.07 339.329 383.856 378.042 367.368C455.439 334.405 566.343 300.497 692.4 273.483Z" stroke="#F4F8FF" stroke-opacity="0.04" stroke-width="3.77562"/>
<path opacity="0.931035" d="M701.533 268.863C830.056 250.739 948.49 243.985 1036.06 247.699C1079.86 249.558 1115.84 254.031 1141.47 260.968C1154.29 264.438 1164.4 268.496 1171.59 273.074C1178.79 277.655 1182.83 282.608 1183.98 287.846C1185.14 293.085 1183.46 298.846 1178.66 305.118C1173.86 311.386 1166.09 317.967 1155.52 324.735C1134.41 338.264 1102.51 352.309 1062.15 366.036C981.45 393.48 867.27 419.53 738.747 437.654C610.223 455.779 491.788 462.533 404.221 458.818C360.421 456.96 324.442 452.486 298.813 445.549C285.992 442.079 275.875 438.021 268.686 433.443C261.493 428.862 257.451 423.908 256.296 418.67C255.142 413.431 256.821 407.671 261.621 401.399C266.418 395.131 274.19 388.551 284.754 381.783C305.871 368.254 337.767 354.208 378.131 340.481C458.829 313.037 573.009 286.988 701.533 268.863Z" stroke="#F4F8FF" stroke-opacity="0.04" stroke-width="3.77562"/>
<path opacity="0.965517" d="M710.803 264.88C840.813 255.783 959.534 257.311 1046.37 267.116C1089.8 272.02 1125.15 278.985 1149.93 287.682C1162.33 292.033 1171.97 296.781 1178.63 301.843C1185.3 306.909 1188.78 312.122 1189.35 317.409C1189.93 322.696 1187.64 328.312 1182.17 334.227C1176.71 340.138 1168.25 346.151 1156.99 352.158C1134.47 364.164 1101.16 375.934 1059.46 386.795C976.074 408.51 859.488 426.502 729.478 435.599C599.467 444.696 480.745 443.169 393.914 433.364C350.482 428.46 315.126 421.495 290.348 412.797C277.952 408.446 268.314 403.699 261.651 398.636C254.983 393.57 251.505 388.358 250.926 383.071C250.348 377.785 252.641 372.168 258.108 366.252C263.571 360.342 272.032 354.328 283.295 348.321C305.808 336.315 339.115 324.546 380.822 313.684C464.205 291.969 580.792 273.977 710.803 264.88Z" stroke="#F4F8FF" stroke-opacity="0.04" stroke-width="3.77562"/>
<path d="M720.141 261.538C850.648 261.538 968.752 271.335 1054.19 287.155C1096.92 295.068 1131.38 304.471 1155.12 314.863C1166.99 320.062 1176.08 325.463 1182.16 330.97C1188.25 336.483 1191.15 341.916 1191.15 347.219C1191.15 352.522 1188.25 357.955 1182.16 363.467C1176.08 368.975 1166.99 374.377 1155.12 379.576C1131.38 389.967 1096.92 399.371 1054.19 407.284C968.752 423.104 850.648 432.901 720.141 432.901C589.633 432.901 471.529 423.104 386.096 407.284C343.364 399.371 308.9 389.967 285.164 379.576C273.289 374.377 264.204 368.975 258.118 363.467C252.027 357.955 249.132 352.522 249.132 347.219C249.132 341.916 252.027 336.483 258.118 330.97C264.204 325.463 273.289 320.062 285.164 314.863C308.9 304.471 343.364 295.068 386.096 287.155C471.529 271.335 589.633 261.538 720.141 261.538Z" stroke="#F4F8FF" stroke-opacity="0.04" stroke-width="3.77562"/>
<g clip-path="url(#clip1_882_115025)">
<path d="M1242 98.9998C1304.13 133.258 1320.39 164.613 1312.26 170.419C1304.13 175.645 1274.52 158.226 1242 98.9998C1207.16 162.29 1175.81 177.968 1170.58 168.677C1165.94 159.968 1183.94 130.935 1242 98.9998C1181.61 65.3224 1164.77 35.1288 1171.16 28.1611C1178.13 21.774 1208.32 38.6127 1242 98.9998C1273.35 42.0966 1302.39 24.0966 1311.1 27.5805C1321.55 31.645 1306.45 63.5805 1242 98.9998Z" fill="#FFFE54" fill-opacity="0.2"/>
</g>
<g clip-path="url(#clip2_882_115025)">
<path d="M217 126H294.864C294.945 126.123 294.98 126.223 294.988 126.371C295.046 127.344 295 128.341 295 129.317L295.001 135.041L295.001 152.493L295 185.1V193.223C295 194.058 295.127 195.617 294.971 196.346C294.953 196.428 294.913 196.503 294.864 196.571H217V126Z" fill="#1A1A1A"/>
<path d="M271.888 133.797L273.057 133.795L273.941 133.81C275.282 133.809 276.626 133.828 277.967 133.796L279.148 133.819L280.112 133.955C280.102 134.235 280.035 134.632 280.12 134.896L281.045 134.778L281.156 135.899C281.436 135.997 281.802 135.921 282.094 135.894C282.091 136.599 282.093 137.304 282.1 138.008C282.089 139.14 282.232 145.519 281.763 146.105C281.605 145.988 281.569 145.805 281.542 145.614C281.398 144.584 281.505 143.546 281.278 142.523C281.211 143.649 281.26 144.778 281.209 145.904C281.163 146.932 281.015 147.997 280.842 149.012L280.789 149.057C280.616 148.609 280.671 147.791 280.408 147.435C279.984 148.494 280.482 150.387 279.459 151.19L279.38 151.203C279.335 150.983 279.371 150.764 279.395 150.542L279.319 150.496L279.166 150.625C279.09 151.186 279.068 151.746 279.046 152.311C278.99 152.624 278.958 152.948 278.768 153.212L278.629 153.249C278.453 153.075 278.407 152.699 278.206 152.631C278.011 152.894 278.001 154.458 277.886 154.927C277.87 154.995 277.809 155.063 277.768 155.119C277.538 154.913 277.546 154.563 277.307 154.385C276.982 154.664 276.966 155.848 276.93 156.269C276.642 156.258 276.305 156.207 276.047 156.355C275.865 156.674 276.116 157.171 275.635 157.287C275.437 157.335 275.204 157.335 275.001 157.349C274.993 157.639 275.036 158.043 274.85 158.279C274.544 158.458 274.154 158.249 274.028 158.655C273.96 158.872 273.993 159.194 273.992 159.424L272.939 159.428C272.947 164.978 272.998 170.547 272.863 176.095L272.873 178.754C272.599 178.711 272.258 178.615 271.988 178.698L271.913 178.757C271.939 179.073 271.962 179.347 271.877 179.659L271.744 179.782C271.556 179.761 271.377 179.747 271.186 179.751C271.028 179.89 270.975 179.949 270.957 180.164C270.935 180.427 270.996 180.642 270.858 180.876C270.562 180.96 270.283 180.734 270.061 180.881C269.962 181.154 270.046 181.458 270.089 181.738C269.702 181.776 269.318 181.791 268.962 181.963L269.002 182.046C269.226 182.113 269.626 182.179 269.785 182.346C269.751 182.472 269.749 182.482 269.633 182.546C269.184 182.792 268.421 182.759 267.908 182.923L267.914 183.894C267.652 183.903 267.206 183.856 267.006 184.04C266.923 184.27 266.979 184.549 267.003 184.788C266.704 184.835 266.257 184.846 266.021 185.044L266.037 185.202C266.283 185.35 266.492 185.234 266.725 185.422L266.75 185.579C266.5 185.733 266.267 185.525 266.067 185.612C265.782 185.737 265.47 186.448 265.063 186.699C264.869 186.819 264.659 186.888 264.592 187.129C264.529 187.356 264.574 187.664 264.381 187.824L264.247 187.779C264.167 187.551 264.2 187.148 264.019 187.022C263.55 187.506 263.935 188.412 263.368 188.794L263.227 188.75C263.228 188.557 263.267 188.269 263.208 188.088L263.044 188.081C262.925 188.34 262.983 188.796 262.681 188.904C262.412 189 262.004 188.986 261.823 189.228C261.816 189.239 261.808 189.248 261.8 189.258C261.774 189.293 261.781 189.283 261.755 189.325L261.81 189.336C262.085 189.391 262.402 189.294 262.632 189.429C262.607 189.598 262.551 189.704 262.397 189.798C262.211 189.913 261.814 189.917 261.604 189.868C261.339 189.892 261.119 189.903 260.893 190.053C260.703 190.35 260.975 190.792 260.514 190.914C260.292 190.973 259.948 190.924 259.717 190.922C259.724 191.099 259.719 191.289 259.693 191.464C259.67 191.616 259.588 191.714 259.464 191.799C259.094 192.052 258.473 192.044 258.056 191.944C257.819 191.887 257.68 191.82 257.554 191.614C257.586 191.433 257.625 191.271 257.564 191.091C257.544 191.034 257.367 190.973 257.306 190.945C257 190.924 256.705 190.874 256.424 190.751L256.381 190.612C256.455 190.483 256.528 190.353 256.598 190.222C256.549 190.063 256.557 190.06 256.413 189.982C256.153 190.15 256.071 190.696 255.874 190.964L255.769 190.931C255.598 190.654 255.631 190.232 255.617 189.913C255.243 189.9 254.875 189.947 254.504 189.988L254.513 188.858L254.558 187.965C254.327 187.841 253.825 187.903 253.555 187.901C253.36 187.139 253.411 186.376 253.494 185.603L253.505 184.766L253.445 184.233C253.237 184.117 252.974 183.964 252.825 183.778C252.588 183.482 252.64 183.137 252.676 182.786C252.685 181.804 252.597 180.814 252.534 179.834C252.484 179.142 252.428 178.399 252.481 177.708C252.505 177.404 252.505 177.095 252.514 176.789C252.399 176.788 252.285 176.776 252.173 176.753C251.929 176.703 251.652 176.567 251.519 176.349C251.359 176.086 251.44 175.879 251.505 175.601L251.415 175.501C251.135 175.462 250.77 175.538 250.534 175.36C250.392 175.15 250.408 174.901 250.398 174.657C250.337 174.333 250.4 173.879 250.409 173.542C250.078 173.617 249.758 173.671 249.422 173.71C248.11 173.636 248.748 173.122 248.074 172.705C247.898 172.595 247.676 172.623 247.513 172.456C247.331 172.269 247.331 171.875 247.329 171.63C247.347 171.418 247.386 171.177 247.363 170.966C247.305 170.442 246.728 170.655 246.393 170.397C246.259 170.133 246.337 169.756 246.359 169.469C246.038 169.523 245.712 169.555 245.389 169.593C245.291 169.608 245.192 169.619 245.093 169.624C244.868 169.635 244.654 169.577 244.489 169.417C244.246 169.181 244.231 168.872 244.226 168.553C244.284 168.211 244.376 167.873 244.458 167.535L243.274 167.529C243.295 167.147 243.3 166.763 243.313 166.381L242.295 166.573C242.168 166.565 242.041 166.563 241.914 166.55C241.704 166.527 241.455 166.44 241.328 166.26C241.142 165.993 241.194 165.714 241.233 165.409C240.954 165.258 240.612 165.3 240.323 165.153C240.169 164.936 240.206 164.625 240.206 164.368C240.156 164.351 240.112 164.34 240.059 164.34C239.934 164.341 239.792 164.359 239.67 164.329C239.081 164.187 239.539 163.797 239.342 163.464L237.784 163.439L237.079 163.441C236.53 163.482 234.242 163.511 233.892 163.252L233.941 163.061C233.92 162.925 233.838 162.817 233.766 162.702L233.631 162.72L233.334 163.313L233.25 163.328C233.148 163.039 233.133 162.837 233.172 162.534C232.648 162.537 232.094 162.581 231.582 162.458L231.24 162.441C230.49 162.43 229.729 162.358 228.978 162.33L227.896 162.314C227.651 162.33 227.402 162.364 227.163 162.29C226.99 162.049 227.014 161.717 226.985 161.423C226.653 161.381 226.306 161.424 225.974 161.446L225.965 160.417C225.932 160.133 226.003 159.635 225.82 159.413C225.587 159.321 225.262 159.469 225.03 159.54C224.988 158.87 224.977 158.208 224.983 157.537C224.967 156.862 224.928 156.139 225.021 155.47C225.04 155.333 225.041 155.184 225.153 155.098L225.914 155.312C225.944 154.897 225.969 154.482 225.987 154.066C226.164 154.101 226.361 154.154 226.542 154.145C227.02 154.119 226.932 153.517 227.201 153.209C227.435 153.027 227.791 153.071 228.074 153.069L227.075 152.463C227.387 152.399 227.725 152.339 228.007 152.183C228.821 151.732 229.505 150.936 230.144 150.272C231.527 148.835 235.051 144.773 236.506 144.051C236.791 143.91 237.144 143.865 237.455 143.808C237.131 143.444 236.747 143.574 236.344 143.386L236.358 143.287C236.935 142.962 237.601 143.024 238.242 143.02L256.551 142.969C256.567 142.675 256.542 142.145 256.693 141.898C256.8 141.723 257.124 142.019 257.358 141.973C257.557 141.736 257.526 141.539 257.545 141.24C257.735 140.966 258.155 141.008 258.424 140.847C258.659 140.706 258.681 140.509 258.75 140.271L258.794 140.12C258.994 139.908 259.386 139.842 259.66 139.759C259.722 139.611 259.771 139.453 259.836 139.307C260.094 138.736 260.838 139.094 261.289 138.904C261.901 138.646 261.376 138.488 261.546 138.088C261.87 137.904 262.457 137.909 262.831 137.87C262.814 137.654 262.78 137.409 262.807 137.194C262.83 137.012 262.852 137 262.993 136.894C263.221 136.942 263.334 137.087 263.507 137.238L263.635 137.21C263.692 137.144 263.749 137.078 263.811 137.015C264.065 136.757 264.409 136.81 264.747 136.806C264.709 136.553 264.628 136.25 264.73 136.008C264.924 135.852 265.273 135.902 265.513 135.904L265.607 135.804C265.669 135.524 265.735 135.207 265.959 135.011C266.28 134.731 267.159 134.804 267.574 134.83C267.86 134.831 268.149 134.843 268.434 134.832C268.72 134.596 268.724 134.094 269.073 133.86C269.322 133.693 269.758 133.828 270.02 133.888L270.787 133.818C271.147 133.807 271.53 133.767 271.888 133.797Z" fill="#FAF453"/>
<path d="M265.513 135.904L265.607 135.804C265.669 135.524 265.735 135.207 265.959 135.011C266.28 134.731 267.159 134.804 267.574 134.83C267.86 134.831 268.149 134.843 268.434 134.832C268.604 134.838 268.812 134.821 268.977 134.865C268.858 135.178 268.727 135.491 268.636 135.814C268.08 135.87 267.538 135.949 266.983 135.836C266.581 135.844 266.185 135.858 265.784 135.901L265.513 135.904Z" fill="#E9DF46"/>
<path d="M265.513 135.904L265.607 135.804C265.669 135.524 265.735 135.207 265.959 135.011C266.28 134.731 267.159 134.804 267.574 134.83C267.31 134.879 267.021 134.881 266.852 135.1C266.873 135.352 266.925 135.59 266.983 135.836C266.581 135.844 266.185 135.858 265.784 135.901L265.513 135.904Z" fill="#444117"/>
<path d="M252.534 179.834L252.769 179.883C252.888 180.075 253.12 180.388 253.13 180.616L253.329 180.601C253.459 180.805 253.402 181.044 253.435 181.271C253.445 182.236 253.541 183.276 253.445 184.233C253.238 184.117 252.975 183.964 252.825 183.778C252.588 183.482 252.641 183.137 252.676 182.786C252.685 181.804 252.598 180.814 252.534 179.834Z" fill="#444117"/>
<path d="M252.534 179.834L252.769 179.883C252.888 180.075 253.12 180.388 253.13 180.616C252.822 181.203 253.189 182.03 253.012 182.584C252.97 182.718 252.788 182.751 252.676 182.786C252.685 181.804 252.598 180.814 252.534 179.834Z" fill="#B5AE35"/>
<path d="M247.329 171.63C247.629 171.583 247.998 171.478 248.286 171.596C248.561 171.888 248.299 172.575 248.852 172.595C249.054 172.602 249.284 172.552 249.484 172.523L249.422 173.71C248.11 173.636 248.747 173.122 248.074 172.705C247.898 172.595 247.676 172.623 247.513 172.456C247.331 172.269 247.331 171.875 247.329 171.63Z" fill="#444117"/>
<path d="M253.555 187.901C253.36 187.139 253.41 186.376 253.494 185.603C253.568 185.747 253.564 185.78 253.726 185.833C253.879 185.883 254.033 185.858 254.174 185.781C254.229 185.75 254.282 185.715 254.334 185.678C254.422 186.257 254.725 187.429 254.558 187.965C254.327 187.841 253.825 187.903 253.555 187.901Z" fill="#BCB639"/>
<path d="M257.306 190.945C258.11 190.959 258.915 190.902 259.717 190.922C259.724 191.099 259.719 191.289 259.693 191.464C259.67 191.616 259.588 191.714 259.464 191.799C259.094 192.052 258.473 192.044 258.056 191.944C257.819 191.887 257.68 191.82 257.554 191.614C257.586 191.433 257.625 191.271 257.564 191.091C257.545 191.034 257.368 190.973 257.306 190.945Z" fill="#645E1C"/>
<path d="M229.151 161.364C229.85 161.386 230.656 161.436 231.335 161.599C231.246 161.889 231.192 162.137 231.24 162.441C230.49 162.43 229.729 162.358 228.978 162.33L229.029 162.068C229.092 161.832 229.129 161.608 229.151 161.364Z" fill="#BCB639"/>
<path d="M228.126 161.363L229.152 161.364C229.13 161.609 229.093 161.832 229.029 162.068L228.979 162.33L227.896 162.314C227.651 162.33 227.402 162.364 227.164 162.29C226.99 162.049 227.014 161.717 226.985 161.423L227.084 161.361L228.126 161.363Z" fill="#645E1C"/>
<path d="M228.126 161.363L229.152 161.364C229.13 161.608 229.093 161.832 229.029 162.068L228.979 162.33L227.896 162.313C227.946 162.091 228.073 161.877 228.175 161.673L228.126 161.363Z" fill="#918E2E"/>
<path d="M281.156 135.899C281.436 135.997 281.802 135.92 282.094 135.894C282.091 136.599 282.093 137.304 282.1 138.008C281.977 138.01 281.852 138.012 281.729 138.008C281.589 138.003 281.419 137.972 281.321 137.862C280.942 137.436 281.137 136.434 281.156 135.899Z" fill="#D9CF42"/>
<path d="M235.353 162.475C235.61 162.472 235.864 162.459 236.12 162.44C236.255 162.648 236.218 162.732 236.203 162.975C236.444 162.894 236.747 162.995 236.981 163.076L237.046 163.292C237.298 163.384 237.54 163.356 237.784 163.439L237.08 163.441C236.53 163.482 234.243 163.511 233.892 163.252L233.941 163.061C234.316 162.892 234.56 163.215 235.174 162.943C235.246 162.798 235.295 162.628 235.353 162.475Z" fill="#817A23"/>
<path d="M235.352 162.475C235.609 162.472 235.863 162.459 236.119 162.44C236.255 162.648 236.218 162.732 236.203 162.975L236.168 163.087C235.841 163.103 235.494 163.006 235.174 162.943C235.246 162.798 235.295 162.628 235.352 162.475Z" fill="#817A23"/>
<path d="M236.203 162.975C236.444 162.894 236.747 162.995 236.981 163.076L237.046 163.292C237.298 163.384 237.54 163.356 237.784 163.439L237.08 163.441C236.78 163.409 236.482 163.461 236.204 163.318L236.169 163.087L236.203 162.975Z" fill="#B5AE35"/>
<path d="M237.578 162.532C238.045 162.55 238.905 162.485 239.241 162.857C239.372 163.003 239.425 163.251 239.456 163.44L239.342 163.464L237.784 163.439C237.54 163.356 237.298 163.384 237.046 163.292L236.981 163.076C237.232 162.915 237.416 162.786 237.578 162.532Z" fill="#BCB639"/>
<path d="M271.913 178.757C271.531 177.629 272.724 176.738 272.863 176.095L272.873 178.754C272.599 178.711 272.258 178.615 271.988 178.698L271.913 178.757Z" fill="#E9DF46"/>
<path d="M252.48 177.708C252.73 177.697 253.068 177.637 253.28 177.785C253.457 178.049 253.355 178.481 253.43 178.789C253.364 178.829 253.323 178.83 253.3 178.907C253.188 179.28 253.034 179.596 252.768 179.883L252.534 179.834C252.484 179.142 252.428 178.399 252.48 177.708Z" fill="#D9CF42"/>
<path d="M232.506 162.462C233.456 162.43 234.403 162.453 235.353 162.475C235.295 162.628 235.246 162.798 235.174 162.943C234.56 163.215 234.316 162.892 233.941 163.061C233.92 162.925 233.838 162.817 233.766 162.702L233.632 162.72L233.334 163.313L233.25 163.328C233.148 163.039 233.133 162.837 233.172 162.534C232.649 162.537 232.094 162.581 231.582 162.458L232.506 162.462Z" fill="#645E1C"/>
<path d="M268.434 134.832C268.72 134.596 268.724 134.094 269.073 133.86C269.322 133.693 269.758 133.828 270.021 133.888C269.973 134.158 269.987 134.603 269.813 134.812L269.525 134.9L268.977 134.865C268.813 134.821 268.605 134.838 268.434 134.832Z" fill="#444117"/>
<path d="M271.889 133.797L273.057 133.795C273.012 134.263 272.961 134.539 272.611 134.878C272.291 134.96 272.026 134.936 271.702 134.902C271.855 134.529 271.879 134.192 271.889 133.797Z" fill="#BCB639"/>
<path d="M241.234 165.409C241.596 165.507 242.008 165.466 242.382 165.46L242.295 166.572C242.168 166.565 242.041 166.563 241.915 166.55C241.705 166.527 241.455 166.44 241.329 166.26C241.142 165.993 241.194 165.714 241.234 165.409Z" fill="#444117"/>
<path d="M244.226 168.553C244.547 168.517 244.952 168.422 245.26 168.536C245.491 168.829 245.408 169.236 245.389 169.593C245.291 169.608 245.192 169.619 245.093 169.624C244.868 169.635 244.654 169.577 244.489 169.417C244.246 169.181 244.231 168.872 244.226 168.553Z" fill="#444117"/>
<path d="M251.505 175.601L252.522 175.598L252.514 176.789C252.399 176.789 252.285 176.776 252.173 176.753C251.929 176.703 251.653 176.567 251.519 176.349C251.359 176.086 251.44 175.879 251.505 175.601Z" fill="#645E1C"/>
<path d="M270.787 133.818C271.147 133.807 271.53 133.768 271.889 133.797C271.879 134.192 271.855 134.529 271.702 134.902C271.41 134.898 271.118 134.899 270.825 134.905C270.841 134.533 270.836 134.189 270.787 133.818Z" fill="#918E2E"/>
<path d="M237.455 143.808C237.131 143.444 236.747 143.574 236.344 143.386L236.358 143.287C236.935 142.962 237.601 143.024 238.242 143.02C238.197 143.298 238.206 143.611 238.006 143.812C237.818 143.83 237.637 143.794 237.455 143.808Z" fill="#D9CF42"/>
<path d="M225.965 160.417C226.267 160.401 226.675 160.339 226.914 160.564C227.107 160.745 227.1 161.041 227.088 161.282C227.087 161.308 227.085 161.335 227.084 161.361L226.985 161.423C226.654 161.381 226.306 161.424 225.974 161.446L225.965 160.417Z" fill="#BCB639"/>
<path d="M224.983 157.537C224.967 156.862 224.928 156.139 225.021 155.47C225.04 155.333 225.041 155.184 225.153 155.098L225.914 155.312C225.919 155.587 225.935 155.817 225.801 156.065C225.443 156.367 225.1 156.129 225.056 156.712C225.035 156.987 225.058 157.269 224.983 157.537Z" fill="#D9CF42"/>
<path d="M277.967 133.796L279.148 133.819C279.071 134.176 279.037 134.471 279.062 134.839C278.981 134.877 278.897 134.89 278.809 134.905C278.676 134.928 278.48 134.923 278.369 134.837C278.036 134.58 278.011 134.181 277.967 133.796Z" fill="#E9DF46"/>
<path d="M273.056 133.795L273.94 133.81C273.914 134.116 273.926 134.507 273.761 134.774C273.468 135.017 272.96 134.853 272.61 134.878C272.96 134.539 273.012 134.263 273.056 133.795Z" fill="#E9DF46"/>
<path d="M254.513 188.858C254.812 188.893 255.177 188.895 255.384 189.142C255.561 189.354 255.598 189.648 255.617 189.913C255.242 189.9 254.875 189.947 254.504 189.988L254.513 188.858Z" fill="#D9CF42"/>
<path d="M279.148 133.819L280.113 133.955C280.102 134.235 280.036 134.632 280.12 134.896L280.089 134.915C279.745 134.873 279.41 134.836 279.062 134.839C279.037 134.471 279.072 134.176 279.148 133.819Z" fill="#BCB639"/>
<path d="M270.021 133.888L270.787 133.818C270.835 134.189 270.84 134.533 270.825 134.905C270.398 134.935 269.953 134.906 269.525 134.9L269.813 134.812C269.986 134.603 269.973 134.158 270.021 133.888Z" fill="#645E1C"/>
<path d="M280.12 134.896L281.045 134.779L281.156 135.899C280.888 135.781 280.555 135.926 280.292 135.695C280.104 135.529 280.095 135.148 280.088 134.915L280.12 134.896Z" fill="#E9DF46"/>
<path d="M265.513 135.904L265.784 135.901C265.758 136.175 265.766 136.511 265.611 136.746C265.304 136.887 264.985 136.7 264.747 136.806C264.709 136.553 264.628 136.25 264.73 136.008C264.924 135.852 265.273 135.902 265.513 135.904Z" fill="#D9CF42"/>
<path d="M240.206 164.368C240.585 164.463 240.982 164.438 241.37 164.436C241.319 164.754 241.245 165.086 241.234 165.409C240.954 165.258 240.613 165.3 240.323 165.153C240.169 164.936 240.206 164.625 240.206 164.368Z" fill="#444117"/>
<path d="M250.398 174.657C250.731 174.649 251.078 174.62 251.406 174.683C251.52 174.834 251.533 174.902 251.504 175.092C251.483 175.228 251.419 175.363 251.415 175.501C251.135 175.462 250.77 175.538 250.534 175.36C250.392 175.15 250.408 174.901 250.398 174.657Z" fill="#444117"/>
<path d="M231.334 161.599C231.732 161.739 232.223 161.806 232.433 162.223C232.471 162.297 232.49 162.381 232.506 162.462L231.581 162.458L231.239 162.441C231.192 162.137 231.246 161.889 231.334 161.599Z" fill="#E9DF46"/>
<path d="M239.455 163.44C239.734 163.471 240.017 163.455 240.243 163.624C240.306 163.894 240.206 164.106 240.206 164.368C240.156 164.351 240.112 164.34 240.059 164.34C239.934 164.341 239.792 164.359 239.67 164.329C239.081 164.187 239.539 163.797 239.342 163.464L239.455 163.44Z" fill="#444117"/>
<path d="M253.505 184.766C253.742 184.787 253.934 184.793 254.131 184.94C254.297 185.148 254.304 185.423 254.334 185.678C254.282 185.715 254.229 185.75 254.174 185.781C254.033 185.858 253.879 185.883 253.726 185.833C253.564 185.78 253.567 185.747 253.494 185.603L253.505 184.766Z" fill="#E9DF46"/>
<path d="M252.769 179.883C253.035 179.596 253.189 179.28 253.3 178.906C253.323 178.83 253.364 178.829 253.431 178.789C253.409 179.591 253.528 180.489 253.435 181.271C253.402 181.044 253.459 180.805 253.329 180.601L253.13 180.616C253.12 180.388 252.888 180.075 252.769 179.883Z" fill="#BCB639"/>
<path d="M236.12 162.44C236.604 162.519 237.092 162.468 237.577 162.532C237.416 162.786 237.232 162.915 236.98 163.076C236.747 162.995 236.444 162.894 236.203 162.975C236.218 162.732 236.255 162.648 236.12 162.44Z" fill="#BCB639"/>
<path d="M271.606 138.991C271.984 138.731 271.757 138.07 272.114 137.785C272.391 137.71 272.684 137.783 272.961 137.827C273.768 137.827 274.737 137.739 275.522 137.904C275.987 137.901 276.455 137.909 276.919 137.892C277.125 137.813 277.486 137.737 277.691 137.826C277.803 137.874 277.927 138.02 277.962 138.139C278.016 138.32 277.983 138.562 277.974 138.749C277.966 140.125 277.967 141.501 277.976 142.877C277.971 143.136 278.02 143.788 277.834 143.978C277.628 144.189 277.256 144.089 277.079 144.329C276.987 144.455 277.025 144.7 276.984 144.846L276.967 144.972C276.985 145.717 276.824 146.497 276.898 147.23C276.909 147.476 276.939 147.599 276.827 147.822C276.569 147.984 276.288 148.085 276.026 148.239C275.897 148.64 275.835 148.936 275.429 149.143C275.296 149.21 275.088 149.266 275.041 149.407C274.847 149.992 275.064 150.791 274.639 151.28L274.589 151.303C274.482 151.238 274.449 151.05 274.42 150.929C274.374 150.74 274.376 150.379 274.227 150.271C274.059 150.409 274.031 150.668 274.012 150.873C273.97 151.33 273.983 151.793 273.93 152.25C273.618 152.279 273.301 152.29 273.011 152.418L272.944 152.528C273.267 152.81 273.682 152.782 274.067 152.9C273.439 153.158 272.647 153.161 272.074 153.46C272.321 153.708 272.736 153.714 272.955 153.985C272.71 154.175 271.949 154 271.9 154.272C271.845 154.58 271.941 154.858 271.789 155.155C271.514 155.334 271.292 155.083 271.062 155.281C270.515 155.75 269.962 156.699 269.371 157.285C268.689 157.961 266.187 160.083 265.803 160.632C265.773 160.674 265.754 160.727 265.744 160.777C265.716 160.914 265.718 161.066 265.718 161.206C265.392 161.377 264.865 161.077 264.711 161.504C264.612 161.781 264.789 162.137 264.598 162.384C264.374 162.384 264.168 162.274 263.992 162.439C263.582 162.826 263.24 163.316 262.845 163.725C262.175 164.418 261.452 165.061 260.779 165.751C260.345 166.197 259.933 166.705 259.429 167.073C259.151 167.276 258.54 167.589 258.555 167.955C258.561 168.08 258.578 168.201 258.596 168.325C258.372 168.496 257.871 168.409 257.582 168.406C257.569 168.763 257.549 169.121 257.547 169.478L256.548 169.498L256.601 170.552C256.273 170.539 255.886 170.482 255.563 170.537L255.6 171.63L253.541 171.645L253.552 170.524C253.353 170.467 253.198 170.48 252.998 170.477C252.539 170.47 252.673 170.24 252.603 169.892C252.499 169.37 252.032 169.66 251.823 169.366C251.749 169.262 251.744 169.068 251.662 168.947C251.459 168.646 250.992 168.535 250.75 168.271C250.564 168.069 250.495 167.737 250.282 167.503C249.706 166.871 249.008 166.354 248.418 165.736C248.24 165.549 247.576 165.385 247.519 165.233C247.417 164.96 247.588 164.77 247.408 164.466C247.177 164.313 246.74 164.357 246.467 164.348L246.542 163.383C246.261 163.378 245.805 163.455 245.571 163.288C245.407 163.072 245.451 162.71 245.448 162.449C245.234 162.354 244.588 162.494 244.33 162.523C244.327 161.803 244.326 161.087 244.269 160.368L245.475 160.364C245.491 160.023 245.418 159.673 245.369 159.336L246.469 159.454L246.483 158.287L247.411 158.36L247.417 157.348C247.705 157.345 248.248 157.404 248.467 157.198C248.602 156.951 248.491 156.619 248.441 156.355L249.568 156.341L249.488 155.183C249.811 155.255 250.134 155.343 250.443 155.185C250.461 154.908 250.423 154.564 250.601 154.336C250.844 154.154 251.214 154.165 251.507 154.138C251.607 153.916 251.532 153.64 251.543 153.391C251.751 153.24 252.153 153.311 252.413 153.318C252.881 153.047 252.382 152.588 252.555 152.193C252.842 152.221 253.178 152.289 253.454 152.19C253.632 151.988 253.578 151.588 253.636 151.321C253.913 151.081 254.281 151.246 254.622 151.04C254.709 150.815 254.592 150.648 254.56 150.41C254.83 150.119 255.374 150.156 255.757 150.125L255.519 149.21C255.866 149.221 256.236 149.262 256.572 149.169C256.724 148.968 256.682 148.512 256.71 148.253C256.891 148.105 257.228 148.177 257.474 148.112C257.657 147.871 257.632 147.557 257.662 147.259C257.959 147.203 258.43 147.179 258.657 146.973C258.737 146.682 258.649 146.483 258.579 146.198C258.968 146.159 259.36 146.139 259.75 146.114C259.735 145.897 259.696 145.637 259.736 145.422C259.824 144.951 260.238 145.255 260.553 145.04C260.76 144.816 260.743 144.447 260.768 144.156L260.905 144.144C262.317 144.02 261.445 143.726 261.904 143.18C262.164 143.02 262.597 143.092 262.895 143.102C262.894 142.867 262.881 142.623 262.901 142.389C262.917 142.194 262.939 142.183 263.082 142.061C263.324 142.193 263.166 142.748 263.334 143.005L263.458 142.979C263.663 142.676 263.712 142.256 263.791 141.902C263.792 141.779 263.794 141.654 263.805 141.531C263.826 141.301 263.893 141.14 264.071 140.99C264.303 140.902 264.457 140.949 264.688 141.011C265.135 141.06 265.587 141.057 266.027 140.963C266.004 140.703 265.766 140.439 265.695 140.154L265.768 140.033C266.04 139.93 266.366 139.987 266.651 140.008C267.02 139.963 267.391 139.962 267.762 139.954L267.824 139.933C267.813 139.643 267.831 139.347 267.837 139.057L269.125 139.07C269.952 139.134 270.782 139.069 271.606 138.991Z" fill="#1C1D11"/>
<path d="M272.961 137.827C273.768 137.827 274.737 137.739 275.521 137.904C275.987 137.9 276.455 137.909 276.919 137.891C277.125 137.813 277.486 137.737 277.691 137.825C277.803 137.873 277.927 138.02 277.962 138.139C278.016 138.32 277.983 138.562 277.974 138.749C277.679 138.8 277.346 138.931 277.056 138.94L277.041 138.988C276.29 138.743 274.815 139.017 273.926 138.942L272.992 138.954C272.986 138.573 273.031 138.206 272.961 137.827Z" fill="#918E2E"/>
<path d="M272.961 137.827C273.768 137.827 274.737 137.739 275.521 137.904L274.834 137.924C274.598 137.91 274.29 137.852 274.086 137.987C273.935 138.228 273.997 138.605 274.005 138.881L273.926 138.942L272.992 138.954C272.986 138.573 273.031 138.207 272.961 137.827Z" fill="#D9CF42"/>
<path d="M276.919 137.891C277.125 137.813 277.486 137.737 277.691 137.825C277.803 137.873 277.927 138.02 277.962 138.139C278.016 138.32 277.984 138.562 277.974 138.749C277.679 138.8 277.346 138.931 277.056 138.94C277.075 138.644 277.093 138.357 277.059 138.061C277.049 137.965 276.992 137.949 276.919 137.891Z" fill="#D9CF42"/>
<path d="M274.005 138.881C273.997 138.605 273.935 138.228 274.085 137.987C274.289 137.852 274.598 137.91 274.833 137.924C274.821 138.181 274.887 138.697 274.714 138.874C274.474 138.899 274.246 138.894 274.005 138.881Z" fill="#B5AE35"/>
<path d="M277.056 138.94C277.346 138.931 277.679 138.8 277.974 138.749C277.966 140.125 277.967 141.501 277.976 142.877C277.86 143.008 277.849 143.026 277.673 143.037C277.436 143.053 277.187 143.001 276.953 142.964C276.829 141.681 276.961 140.275 277.041 138.988L277.056 138.94Z" fill="#BCB639"/>
<path d="M244.269 160.368L245.475 160.364C245.471 161.048 245.518 161.771 245.448 162.449C245.234 162.354 244.588 162.494 244.33 162.523C244.327 161.803 244.326 161.087 244.269 160.368Z" fill="#444117"/>
<path d="M253.551 170.524C254.144 170.609 254.974 170.657 255.563 170.537L255.6 171.63L253.541 171.645L253.551 170.524Z" fill="#645E1C"/>
<path d="M267.837 139.057L269.125 139.07C269.406 139.405 269.935 139.545 270.335 139.717C269.509 139.924 268.674 139.988 267.824 139.933C267.813 139.643 267.832 139.347 267.837 139.057Z" fill="#D9CF42"/>
<path d="M271.606 138.991C271.984 138.731 271.757 138.07 272.114 137.785C272.391 137.71 272.684 137.783 272.962 137.827C273.032 138.207 272.986 138.573 272.992 138.954C272.528 138.983 272.071 139.003 271.606 138.991Z" fill="#E9DF46"/>
<path d="M276.065 146.106C276.215 145.837 276.052 145.573 276.177 145.29C276.404 145.103 276.689 145.047 276.967 144.972C276.984 145.717 276.824 146.497 276.897 147.23C276.767 147.222 276.691 147.187 276.577 147.126C276.415 146.908 276.501 146.513 276.476 146.241C276.326 146.087 276.271 146.113 276.065 146.106Z" fill="#645E1C"/>
<path d="M276.065 146.106C276.271 146.113 276.326 146.087 276.476 146.241C276.501 146.513 276.415 146.908 276.577 147.126C276.691 147.187 276.767 147.222 276.897 147.23C276.909 147.476 276.939 147.599 276.827 147.822C276.569 147.984 276.288 148.085 276.026 148.239L276.065 146.106Z" fill="#E9DF46"/>
<path d="M277.976 142.877C277.971 143.136 278.019 143.787 277.833 143.978C277.627 144.189 277.255 144.089 277.079 144.329C276.987 144.455 277.024 144.7 276.984 144.846C276.932 144.229 276.96 143.585 276.952 142.964C277.186 143.001 277.436 143.053 277.673 143.037C277.849 143.026 277.859 143.007 277.976 142.877Z" fill="#D9CF42"/>
<path d="M263.791 141.902C263.792 141.779 263.794 141.654 263.805 141.531C263.826 141.301 263.893 141.14 264.071 140.99C264.302 140.902 264.457 140.949 264.688 141.011C264.744 141.286 264.879 141.677 264.777 141.945C264.479 142.101 264.108 141.978 263.791 141.902Z" fill="#D9CF42"/>
<path d="M266.027 140.963C266.004 140.703 265.766 140.439 265.695 140.154L265.768 140.033C266.04 139.93 266.366 139.987 266.651 140.008C266.712 140.295 266.845 140.514 266.995 140.764C266.709 140.998 266.378 140.95 266.027 140.963Z" fill="#BCB639"/>
<path d="M250.442 155.185C250.46 154.908 250.423 154.564 250.601 154.336C250.844 154.154 251.213 154.165 251.507 154.138C251.269 154.41 251.448 154.747 251.2 154.981C250.997 155.172 250.644 155.025 250.442 155.185Z" fill="#444117"/>
<path d="M266.651 140.008C267.02 139.963 267.391 139.962 267.762 139.954C267.758 139.966 267.753 139.978 267.75 139.989C267.691 140.175 267.707 140.698 267.553 140.774C267.4 140.85 267.158 140.797 266.995 140.764C266.845 140.514 266.712 140.295 266.651 140.008Z" fill="#444117"/>
<path d="M250.011 147.051C250.436 147.045 251.142 146.972 251.483 147.277C251.638 147.415 251.636 147.51 251.648 147.703C251.542 147.958 251.386 148.128 251.126 148.235C250.93 148.315 250.752 148.273 250.554 148.224L250.491 148.541C250.472 148.784 250.485 148.913 250.348 149.118L250.155 149.142C249.869 149.175 249.732 149.167 249.494 149.335C249.363 149.638 249.725 149.977 249.292 150.14C249.078 150.221 248.779 150.137 248.552 150.147C248.467 150.501 248.492 150.868 248.498 151.229L247.397 151.215L247.408 152.224L246.383 152.096C246.383 152.462 246.391 152.829 246.354 153.193C246.07 153.18 245.711 153.119 245.457 153.263C245.299 153.553 245.363 153.836 245.42 154.153L244.307 154.162C244.309 154.519 244.322 154.879 244.291 155.235L243.327 155.163L243.273 156.236C242.954 156.23 242.634 156.221 242.314 156.21L242.291 157.198L241.264 157.243C241.294 157.54 241.366 157.88 241.244 158.161C240.958 158.403 240.723 158.358 240.364 158.33L240.346 159.424L238.272 159.426C237.667 159.43 236.865 159.632 236.337 159.296C236.207 159.044 236.246 158.877 236.258 158.601L236.218 158.339C235.593 158.367 234.968 158.353 234.343 158.344L231.578 158.336C231.069 158.347 230.561 158.362 230.052 158.382C229.905 158.077 230.025 157.59 230.082 157.267L230.088 156.344L229.741 156.136C230.021 155.887 230.091 155.282 230.433 155.125C230.662 155.02 230.993 155.123 231.219 155.21C231.475 155.244 231.779 155.31 232.006 155.155C232.321 154.94 232.135 154.562 232.194 154.249C232.433 154.105 232.764 154.279 233.057 154.186C233.229 153.972 233.136 153.666 233.176 153.388C233.393 153.193 233.819 153.248 234.113 153.226C234.148 152.938 234.141 152.501 234.345 152.283C234.604 152.147 234.957 152.218 235.239 152.239C235.2 151.863 235.189 151.478 235.166 151.1C235.517 151.141 235.867 151.218 236.214 151.283L236.266 150.135L237.302 150.199C237.26 149.988 237.148 149.621 237.217 149.417C237.411 148.842 237.881 149.305 238.23 149.112L238.244 148.949C238.173 148.634 238.156 148.267 238.133 147.945C238.117 147.718 238.149 147.471 238.318 147.303C238.556 147.067 238.975 147.104 239.284 147.105C242.854 146.992 246.439 147.054 250.011 147.051Z" fill="#1C1D11"/>
<path d="M250.01 147.051C250.436 147.045 251.141 146.972 251.483 147.277C251.638 147.415 251.636 147.51 251.648 147.703C251.542 147.958 251.385 148.128 251.125 148.235C250.93 148.315 250.752 148.273 250.554 148.224L250.491 148.541L250.412 148.162C250.143 148.105 249.828 148.128 249.551 148.122C248.354 147.955 247.031 148.104 245.817 148.117C243.656 148.13 241.496 148.132 239.335 148.123C239.311 147.784 239.3 147.444 239.284 147.105C242.854 146.992 246.438 147.054 250.01 147.051Z" fill="#918E2E"/>
<path d="M250.01 147.05C250.436 147.044 251.141 146.972 251.483 147.277C251.637 147.415 251.636 147.51 251.648 147.703C251.542 147.958 251.385 148.128 251.125 148.235C250.93 148.315 250.752 148.273 250.554 148.224L250.491 148.541L250.412 148.162C250.486 148.026 250.505 147.818 250.531 147.665C250.564 147.47 250.58 147.342 250.453 147.175C250.371 147.068 250.143 147.072 250.01 147.05Z" fill="#BCB639"/>
<path d="M236.866 158.274C237.959 158.287 239.051 158.315 240.143 158.357L240.364 158.33L240.346 159.424L238.272 159.426C237.667 159.43 236.865 159.632 236.337 159.296C236.207 159.044 236.246 158.877 236.258 158.601L236.218 158.339L236.882 158.339L236.866 158.274Z" fill="#BCB639"/>
<path d="M236.218 158.339L236.882 158.34L237.182 158.383C237.448 158.365 237.777 158.303 238.023 158.416C238.197 158.657 238.166 159.128 238.272 159.426C237.667 159.43 236.865 159.632 236.337 159.296C236.207 159.044 236.246 158.877 236.258 158.601L236.218 158.339Z" fill="#D9CF42"/>
<path d="M236.218 158.339L236.882 158.34L237.182 158.383C237.154 158.67 237.159 159.006 236.984 159.246C236.9 159.269 236.869 159.3 236.788 159.255C236.539 159.117 236.486 159.017 236.37 158.759C236.34 158.693 236.308 158.653 236.258 158.601L236.218 158.339Z" fill="#E9DF46"/>
<path d="M230.082 157.267C230.455 157.268 230.811 157.301 231.18 157.348L231.256 157.351C231.584 157.519 232.119 157.244 232.263 157.634L232.128 158.02C232.203 158.153 232.22 158.188 232.376 158.232C232.585 158.291 232.866 158.259 233.084 158.254C233.44 158.259 233.832 158.298 234.182 158.246L234.343 158.344L231.578 158.336C231.069 158.347 230.561 158.362 230.052 158.382C229.904 158.077 230.024 157.59 230.082 157.267Z" fill="#918E2E"/>
<path d="M230.082 157.267C230.455 157.268 230.811 157.301 231.18 157.348C231.062 157.585 230.929 157.812 230.921 158.082C231.106 158.311 231.3 158.302 231.578 158.336C231.069 158.347 230.561 158.362 230.052 158.382C229.904 158.077 230.024 157.59 230.082 157.267Z" fill="#BCB639"/>
<path d="M229.741 156.136C230.021 155.887 230.091 155.282 230.433 155.125C230.662 155.02 230.993 155.123 231.219 155.21C231.072 155.38 231.122 155.5 231.139 155.723C231.155 155.926 231.193 156.128 231.229 156.328L230.088 156.344L229.741 156.136Z" fill="#E9DF46"/>
<path d="M238.244 148.949C238.173 148.634 238.156 148.268 238.133 147.945C238.117 147.718 238.149 147.471 238.318 147.303C238.556 147.067 238.975 147.104 239.284 147.105C239.3 147.444 239.311 147.784 239.335 148.123C239.009 148.122 238.564 148.047 238.308 148.25C238.24 148.485 238.243 148.706 238.244 148.949Z" fill="#D9CF42"/>
<path d="M247.521 150.192L248.551 150.147C248.466 150.501 248.491 150.868 248.497 151.229L247.397 151.215L247.521 150.192Z" fill="#645E1C"/>
<path d="M234.324 157.42C234.583 157.433 234.834 157.42 235.051 157.581C235.211 157.825 235.187 158.088 235.426 158.253C235.913 158.329 236.384 158.215 236.866 158.274L236.882 158.339L236.218 158.339C235.593 158.367 234.968 158.352 234.343 158.344L234.182 158.246C234.176 158.227 234.168 158.209 234.162 158.189C234.068 157.893 234.19 157.677 234.324 157.42Z" fill="#444117"/>
<path d="M240.143 158.357C240.453 158.179 240.217 157.675 240.428 157.416C240.683 157.266 240.976 157.265 241.264 157.243C241.294 157.54 241.365 157.88 241.244 158.161C240.958 158.403 240.722 158.358 240.364 158.33L240.143 158.357Z" fill="#645E1C"/>
<path d="M231.256 157.351C231.911 157.34 232.573 157.31 233.227 157.344C233.153 157.649 233.078 157.938 233.084 158.254C232.866 158.259 232.585 158.291 232.376 158.232C232.22 158.188 232.203 158.153 232.128 158.02L232.263 157.634C232.119 157.244 231.584 157.519 231.256 157.351Z" fill="#817A23"/>
<path d="M233.227 157.344L234.324 157.42C234.19 157.677 234.068 157.893 234.162 158.189C234.168 158.209 234.175 158.227 234.182 158.246C233.831 158.298 233.44 158.259 233.084 158.254C233.078 157.938 233.154 157.649 233.227 157.344Z" fill="#645E1C"/>
<path d="M249.551 148.122C249.828 148.128 250.142 148.105 250.412 148.162L250.491 148.541C250.471 148.784 250.484 148.912 250.348 149.118L250.154 149.142C249.927 149.115 249.72 149.129 249.494 149.153C249.53 148.81 249.54 148.467 249.551 148.122Z" fill="#444117"/>
<path d="M249.494 149.153C249.721 149.129 249.927 149.115 250.155 149.142C249.869 149.175 249.732 149.166 249.494 149.335C249.363 149.638 249.725 149.977 249.292 150.14C249.078 150.221 248.779 150.137 248.552 150.147C248.643 149.92 248.653 149.613 248.688 149.369C248.89 149.214 249.191 149.239 249.442 149.168L249.494 149.153Z" fill="#645E1C"/>
<path d="M267.785 165.344C267.77 165.037 267.716 164.73 267.952 164.492C268.056 164.387 268.175 164.351 268.313 164.314C268.499 164.329 268.633 164.38 268.759 164.52C268.924 164.703 268.908 164.928 268.885 165.156C268.873 165.26 268.86 165.362 268.843 165.465L268.845 172.76C268.845 174.055 268.774 175.399 268.874 176.687C268.92 176.91 268.921 177.081 268.889 177.307C268.759 177.475 268.681 177.564 268.459 177.593C268.264 177.617 268.036 177.588 267.839 177.575C267.572 177.626 267.28 177.666 267.066 177.846C266.335 178.46 265.753 179.332 265.092 180.026C263.705 181.463 262.274 182.855 260.8 184.201C260.49 184.484 260.066 184.806 259.833 185.147C259.71 185.327 259.621 185.58 259.56 185.788C259.275 185.905 259.002 185.902 258.699 185.907C258.599 185.549 258.596 185.132 258.56 184.761C258.402 184.762 258.242 184.782 258.084 184.795C257.956 184.838 257.93 184.837 257.798 184.809L257.701 184.512C257.764 183.437 257.624 182.333 257.623 181.251C257.637 180.827 257.631 180.408 257.615 179.983L257.532 179.857C257.294 179.821 257.057 179.784 256.821 179.738C256.653 179.551 256.688 179.479 256.684 179.235C256.675 178.784 256.807 178.296 256.71 177.856C256.743 177.326 256.494 176.094 256.797 175.679C256.87 175.581 257.042 175.589 257.16 175.573C257.297 175.61 257.44 175.66 257.58 175.681C257.664 175.356 257.557 174.988 257.74 174.689C257.987 174.574 258.216 174.699 258.488 174.695L258.617 174.558C258.728 174.262 258.658 173.984 258.605 173.683L259.743 173.618C259.776 173.264 259.746 172.916 259.721 172.562C260.036 172.58 260.352 172.629 260.665 172.667C260.72 172.32 260.731 171.958 260.757 171.607C260.983 171.595 261.264 171.607 261.48 171.544C261.901 171.422 261.651 171.062 261.823 170.758C262.089 170.565 262.524 170.585 262.844 170.559C262.832 170.355 262.75 169.964 262.82 169.78C262.956 169.427 263.408 169.665 263.709 169.534C263.876 169.295 263.814 168.927 263.805 168.647L264.8 168.467C264.754 168.174 264.629 167.811 264.783 167.551L265.034 167.526C265.33 167.53 265.708 167.545 265.957 167.367C266.022 167.133 265.832 166.971 265.868 166.71C266.129 166.507 266.505 166.541 266.833 166.491C266.863 166.187 266.778 165.845 266.919 165.564C267.127 165.41 267.441 165.448 267.69 165.448L267.785 165.344Z" fill="#1C1D11"/>
<path d="M267.785 165.344C267.77 165.037 267.716 164.73 267.953 164.492C268.056 164.387 268.175 164.351 268.313 164.314C268.499 164.329 268.633 164.38 268.759 164.52C268.924 164.703 268.909 164.928 268.885 165.156C268.874 165.26 268.86 165.362 268.843 165.465L268.845 172.76C268.845 174.055 268.775 175.399 268.874 176.687C268.92 176.91 268.921 177.081 268.889 177.307C268.759 177.475 268.681 177.564 268.46 177.593C268.265 177.617 268.036 177.588 267.84 177.575C267.808 177.238 267.793 176.913 267.797 176.574C267.898 175.422 267.839 174.227 267.835 173.07C267.831 170.845 267.806 168.62 267.759 166.394C267.763 166.073 267.778 165.76 267.691 165.448L267.785 165.344Z" fill="#918E2E"/>
<path d="M267.784 165.344C267.77 165.037 267.716 164.73 267.952 164.492C268.055 164.387 268.175 164.351 268.313 164.314C268.499 164.329 268.633 164.38 268.759 164.52C268.923 164.703 268.908 164.928 268.884 165.156C268.873 165.26 268.859 165.362 268.842 165.465C268.492 165.413 268.136 165.383 267.784 165.344Z" fill="#BCB639"/>
<path d="M268.874 176.687C268.92 176.91 268.921 177.081 268.889 177.306C268.758 177.475 268.68 177.564 268.459 177.592C268.264 177.617 268.036 177.588 267.839 177.575C267.807 177.238 267.793 176.913 267.796 176.574C268.169 176.676 268.49 176.692 268.874 176.687Z" fill="#E9DF46"/>
<path d="M257.623 181.251L257.66 181.262C257.786 181.299 257.894 181.313 258.025 181.314C258.167 181.429 258.275 181.519 258.292 181.713C258.31 181.912 258.323 182.137 258.305 182.334C258.421 183.119 258.552 183.969 258.56 184.761C258.402 184.762 258.242 184.782 258.084 184.795C257.956 184.838 257.93 184.837 257.798 184.808L257.701 184.512C257.764 183.437 257.625 182.333 257.623 181.251Z" fill="#645E1C"/>
<path d="M258.305 182.334C258.421 183.119 258.552 183.969 258.56 184.761C258.402 184.762 258.242 184.782 258.084 184.795L258.056 184.222C258.033 183.715 257.949 182.724 258.305 182.334Z" fill="#B5AE35"/>
<path d="M257.09 177.591L257.578 177.47C257.639 178.296 257.667 179.156 257.615 179.983L257.532 179.857C257.294 179.821 257.056 179.784 256.82 179.738C256.653 179.551 256.688 179.479 256.684 179.235C256.675 178.784 256.807 178.295 256.71 177.856L256.784 177.897C256.973 177.838 256.99 177.753 257.09 177.591Z" fill="#BCB639"/>
<path d="M256.683 179.235C256.86 179.04 257.038 178.797 257.295 178.714C257.358 178.732 257.442 178.737 257.476 178.794C257.654 179.099 257.569 179.525 257.532 179.857C257.294 179.821 257.056 179.784 256.82 179.738C256.653 179.551 256.688 179.479 256.683 179.235Z" fill="#D9CF42"/>
<path d="M256.71 177.856C256.743 177.326 256.494 176.094 256.797 175.679C256.87 175.581 257.042 175.589 257.16 175.573C257.297 175.61 257.44 175.66 257.58 175.681C257.526 176.276 257.558 176.874 257.579 177.47L257.09 177.591C256.99 177.754 256.973 177.838 256.784 177.897L256.71 177.856Z" fill="#B5AE35"/>
<path d="M256.71 177.856C256.743 177.326 256.494 176.094 256.797 175.679C256.87 175.581 257.042 175.589 257.16 175.573C257.025 176.235 257.04 176.92 257.09 177.591C256.99 177.754 256.973 177.838 256.784 177.897L256.71 177.856Z" fill="#444117"/>
<path d="M266.833 166.491C266.863 166.187 266.778 165.845 266.918 165.564C267.127 165.41 267.441 165.448 267.69 165.447C267.778 165.76 267.762 166.073 267.759 166.394C267.472 166.427 267.216 166.369 266.937 166.31L266.833 166.491Z" fill="#444117"/>
<path d="M264.8 168.467C264.754 168.174 264.629 167.811 264.783 167.551L265.034 167.526C265.045 167.54 265.055 167.555 265.066 167.569C265.283 167.858 265.696 167.822 265.807 168.129C265.692 168.312 265.567 168.381 265.352 168.429C265.173 168.469 264.984 168.487 264.8 168.467Z" fill="#817A23"/>
<path d="M229.741 156.136L230.088 156.344L230.082 157.267C230.024 157.59 229.905 158.077 230.052 158.382C229.775 158.48 229.384 158.429 229.089 158.427C229.082 157.852 228.937 157.13 229.151 156.585C229.261 156.306 229.482 156.246 229.741 156.136Z" fill="#D9CF42"/>
<path d="M259.56 185.787C259.643 186.038 259.688 186.37 259.566 186.615C259.484 186.779 259.32 186.879 259.146 186.933C258.735 187.061 258.132 187.01 257.737 186.834C257.673 186.805 257.629 186.759 257.588 186.705C257.569 186.551 257.554 186.424 257.583 186.269C257.922 186.061 258.318 186.008 258.699 185.907C259.002 185.902 259.275 185.905 259.56 185.787Z" fill="#D9CF42"/>
<path d="M257.701 184.512L257.798 184.808C257.93 184.837 257.956 184.838 258.084 184.795C258.242 184.782 258.402 184.762 258.56 184.761C258.596 185.132 258.6 185.549 258.699 185.907C258.318 186.008 257.922 186.061 257.583 186.269C257.647 185.682 257.686 185.103 257.701 184.512Z" fill="#BCB639"/>
<path d="M237.121 168.552C237.102 168.199 237.052 167.935 237.282 167.652C237.701 167.45 238.494 167.344 238.959 167.406C239.143 167.43 239.219 167.475 239.332 167.615C239.332 167.662 239.333 167.708 239.335 167.754C239.346 168.034 239.373 168.332 239.58 168.525C239.831 168.485 240.012 168.418 240.253 168.517C240.409 168.778 240.333 169.166 240.356 169.461C240.716 169.47 241.013 169.549 241.353 169.657C241.434 170.371 241.58 171.916 241.142 172.497C241.056 172.611 240.937 172.686 240.795 172.704C240.643 172.723 240.112 172.692 239.999 172.618L239.414 172.582C239.009 172.649 238.614 172.675 238.204 172.692C238.277 172.94 238.389 173.208 238.295 173.463C237.97 173.763 237.484 173.673 237.064 173.667C236.823 173.692 236.599 173.699 236.393 173.84C236.287 174.136 236.593 174.41 236.232 174.596C236.033 174.699 235.675 174.619 235.511 174.743C235.33 174.879 235.187 175.401 235.038 175.617C234.445 176.475 233.735 177.175 233.35 178.171C233.124 178.757 233.036 180.513 232.792 180.752C232.598 180.241 232.781 179.313 232.501 178.912C232.108 179.392 232.165 181.078 232.174 181.729C232.171 182.399 232.142 183.08 232.174 183.749C232.873 183.724 233.779 183.631 234.461 183.795C235 183.785 235.578 183.734 236.111 183.82L236.142 182.812C236.464 182.747 236.775 182.726 237.102 182.711C238.575 182.745 237.762 182.057 238.9 181.669C239.291 181.536 240.02 181.673 240.176 181.593C240.152 181.337 240.136 181.095 240.162 180.839L240.169 180.777C240.192 180.56 240.213 180.28 240.341 180.097C240.536 179.819 240.91 179.788 241.219 179.726C241.613 179.68 241.984 179.598 242.368 179.502C242.383 179.041 242.253 178.513 242.383 178.066C242.584 177.37 242.771 177.87 243.186 177.65C243.348 177.349 243.295 176.898 243.298 176.562C243.297 176.299 243.246 175.917 243.386 175.688C243.613 175.536 243.972 175.592 244.237 175.599C244.24 175.266 244.236 174.932 244.26 174.6C244.973 174.587 245.687 174.567 246.4 174.597L246.43 175.569C246.715 175.592 247.065 175.578 247.304 175.749C247.504 175.987 247.487 176.318 247.5 176.616C247.511 176.619 247.521 176.621 247.532 176.623C247.64 176.647 247.697 176.64 247.803 176.611C247.989 176.559 248.177 176.602 248.365 176.632C248.59 176.853 248.568 177.132 248.572 177.434C248.577 177.802 248.574 178.169 248.562 178.536C248.2 178.692 247.849 178.877 247.449 178.885C247.428 178.886 247.408 178.887 247.387 178.889C247.344 179.15 247.329 179.487 247.156 179.695C246.88 179.667 246.705 179.386 246.534 179.18C246.517 179.712 246.593 180.449 246.222 180.867C246.041 180.927 245.905 180.905 245.723 180.876L245.615 180.987C245.783 181.143 246.349 181.266 246.395 181.464C246.264 181.633 246.044 181.684 245.841 181.711C245.684 181.732 245.516 181.733 245.362 181.764C245.424 182.044 245.505 182.31 245.415 182.594C245.272 182.743 245.197 182.794 244.984 182.804C244.794 182.814 244.586 182.784 244.396 182.767C244.374 183.131 244.334 183.503 244.351 183.868C243.989 183.829 243.635 183.793 243.27 183.795C243.333 184.07 243.445 184.384 243.347 184.66C243.058 184.865 242.591 184.827 242.234 184.855C242.282 185.208 242.371 185.543 242.465 185.886L241.552 185.797C241.243 185.847 240.427 185.816 240.217 185.972C240.242 186.268 240.304 186.493 240.142 186.752C239.727 186.964 238.292 186.82 238.133 187.125C238.224 187.342 238.281 187.388 238.205 187.617C237.753 187.996 235.896 187.979 235.254 187.983C235.266 188.107 235.271 188.238 235.294 188.361L235.311 188.639C234.895 188.997 232.91 188.901 232.258 188.921C231.488 189.064 227.745 189.108 227.144 188.77C227.002 188.691 227.013 188.653 226.974 188.504C227.086 188.304 227.345 188.197 227.543 188.088L227.546 188.029C227.422 187.939 227.187 188.003 227.019 187.91L227.047 187.775C227.165 186.238 227.062 184.628 227.058 183.084L227.056 182.145L227.07 181.449C227.073 180.857 227.063 180.271 227.031 179.68C227.026 179.672 227.021 179.664 227.017 179.655C226.967 179.548 226.922 179.121 226.964 179.009C227.085 178.687 227.56 178.658 227.822 178.506C228.013 178.396 228.005 178.23 228.054 178.031C228.064 177.874 228.106 177.767 228.176 177.627C228.366 177.55 228.56 177.525 228.761 177.494C228.961 177.309 228.944 177.167 228.994 176.905C228.975 176.342 229.004 175.02 229.356 174.576C229.633 174.843 229.618 175.531 229.652 175.895C229.893 175.412 230.042 174.884 230.286 174.399C231.475 172.032 234.575 169.398 237.121 168.552Z" fill="#FAF453"/>
<path d="M240.356 169.461C240.717 169.47 241.013 169.549 241.353 169.657C241.434 170.371 241.58 171.916 241.142 172.497C241.056 172.611 240.938 172.686 240.795 172.704C240.643 172.723 240.112 172.692 239.999 172.618L240.235 172.545C240.383 172.283 240.319 171.878 240.311 171.584C240.29 170.916 240.305 170.243 240.303 169.574L240.356 169.461Z" fill="#817A23"/>
<path d="M241.353 169.657C241.434 170.371 241.58 171.916 241.142 172.497C241.056 172.611 240.938 172.686 240.795 172.704C240.643 172.723 240.112 172.692 239.999 172.618L240.235 172.545C240.383 172.283 240.319 171.878 240.311 171.584C240.629 171.487 240.983 171.554 241.308 171.585C241.293 170.952 241.258 170.283 241.353 169.657Z" fill="#444117"/>
<path d="M232.174 181.729C232.171 182.399 232.141 183.08 232.174 183.749C232.169 184.081 232.159 184.415 232.169 184.748L233.192 184.738C232.572 184.908 231.791 184.81 231.149 184.798C231.149 183.958 231.024 182.864 231.467 182.122C231.64 181.831 231.869 181.807 232.174 181.729Z" fill="#D9CF42"/>
<path d="M247.5 176.616C247.511 176.618 247.521 176.621 247.532 176.623C247.64 176.647 247.697 176.64 247.803 176.611C247.989 176.559 248.177 176.602 248.365 176.632C248.59 176.853 248.568 177.132 248.572 177.434C248.577 177.801 248.574 178.169 248.562 178.536C248.2 178.692 247.849 178.876 247.449 178.885C247.429 178.886 247.408 178.887 247.387 178.888L247.446 176.824L247.5 176.616Z" fill="#444117"/>
<path d="M237.121 168.552C237.102 168.199 237.051 167.935 237.282 167.652C237.701 167.45 238.494 167.344 238.959 167.406C239.143 167.43 239.219 167.475 239.332 167.615C239.332 167.662 239.333 167.708 239.335 167.754C239.346 168.034 239.373 168.332 239.58 168.525L239.36 168.526C238.746 168.331 237.774 168.503 237.121 168.552Z" fill="#444117"/>
<path d="M244.26 174.6C244.973 174.587 245.687 174.567 246.4 174.597L246.43 175.569L246.364 175.595L244.897 175.607L244.238 175.599C244.241 175.266 244.236 174.932 244.26 174.6Z" fill="#817A23"/>
<path d="M227.047 187.775C227.334 188.033 227.838 187.758 228.175 188.016C228.419 187.993 228.694 187.937 228.916 188.059C229.052 188.311 228.993 188.633 228.96 188.914C229.268 188.911 229.586 188.89 229.893 188.908C230.443 188.908 230.999 188.923 231.548 188.896L232.258 188.921C231.488 189.064 227.745 189.108 227.143 188.77C227.002 188.691 227.013 188.652 226.974 188.504C227.086 188.304 227.345 188.197 227.543 188.088L227.546 188.029C227.422 187.939 227.187 188.002 227.019 187.91L227.047 187.775Z" fill="#817A23"/>
<path d="M228.176 188.016C228.419 187.993 228.694 187.936 228.917 188.059C229.052 188.311 228.993 188.633 228.961 188.914C228.652 188.912 228.367 188.946 228.11 188.764C228.027 188.526 228.121 188.253 228.176 188.016Z" fill="#BCB639"/>
<path d="M227.031 179.68C227.309 179.522 227.71 179.8 228.06 179.635L228.053 180.343C228.096 180.806 228.056 181.259 227.975 181.716C227.688 181.692 227.438 181.619 227.181 181.76C227.138 181.888 227.092 182.015 227.055 182.145L227.07 181.449C227.073 180.857 227.063 180.271 227.031 179.68Z" fill="#817A23"/>
<path d="M227.07 181.449C227.091 181.329 227.109 181.207 227.139 181.089C227.268 180.6 227.606 180.939 227.929 180.73C228.006 180.681 228.037 180.433 228.054 180.343C228.096 180.805 228.057 181.259 227.976 181.716C227.689 181.692 227.439 181.619 227.182 181.76C227.138 181.888 227.093 182.015 227.056 182.145L227.07 181.449Z" fill="#BCB639"/>
<path d="M232.174 183.749C232.873 183.724 233.779 183.631 234.46 183.795L234.195 183.824C234.163 184.126 234.145 184.424 234.139 184.728L233.192 184.738L232.169 184.748C232.159 184.415 232.169 184.081 232.174 183.749Z" fill="#BCB639"/>
<path d="M233.192 184.738C233.119 184.426 233.065 184.183 233.215 183.891C233.487 183.741 233.892 183.81 234.195 183.824C234.163 184.126 234.146 184.424 234.14 184.728L233.192 184.738Z" fill="#D9CF42"/>
<path d="M232.483 188.329C233.407 188.188 234.362 188.419 235.294 188.361L235.311 188.639C234.894 188.997 232.91 188.901 232.258 188.921L231.548 188.896L231.562 188.644C231.835 188.488 232.178 188.397 232.483 188.329Z" fill="#BCB639"/>
<path d="M229.893 188.908C229.995 188.639 230.118 188.331 230.354 188.15C230.776 187.828 231.403 187.969 231.89 188.041L232.142 188.072L232.219 188.255L232.483 188.329C232.178 188.397 231.835 188.488 231.562 188.644L231.548 188.896C230.999 188.923 230.443 188.908 229.893 188.908Z" fill="#E9DF46"/>
<path d="M231.89 188.041L232.141 188.072L232.219 188.255L232.483 188.329C232.177 188.397 231.835 188.488 231.562 188.644C231.417 188.466 231.307 188.374 231.267 188.146C231.439 188.009 231.679 188.043 231.89 188.041Z" fill="#B5AE35"/>
<path d="M227.031 179.68C227.026 179.672 227.021 179.664 227.017 179.655C226.967 179.548 226.922 179.121 226.964 179.009C227.085 178.687 227.56 178.658 227.822 178.506C228.013 178.396 228.005 178.23 228.054 178.031L228.069 179.118L228.06 179.635C227.711 179.8 227.309 179.521 227.031 179.68Z" fill="#444117"/>
<path d="M246.364 175.595L246.43 175.569C246.715 175.591 247.065 175.578 247.304 175.749C247.504 175.987 247.488 176.318 247.501 176.616L247.446 176.824C247.405 176.789 247.372 176.769 247.319 176.76C247.048 176.712 246.818 176.665 246.597 176.492C246.402 176.34 246.392 175.832 246.364 175.595Z" fill="#D9CF42"/>
<path d="M232.142 188.072C233.113 187.868 234.264 187.975 235.254 187.983C235.266 188.107 235.271 188.238 235.295 188.361C234.362 188.419 233.407 188.188 232.484 188.329L232.22 188.255L232.142 188.072Z" fill="#645E1C"/>
<path d="M236.141 182.812C236.463 182.747 236.774 182.726 237.101 182.711C237.09 183.024 237.121 183.412 236.957 183.687C236.667 183.897 236.454 183.854 236.111 183.82L236.141 182.812Z" fill="#D9CF42"/>
<path d="M239.58 168.525C239.831 168.485 240.012 168.418 240.253 168.517C240.409 168.778 240.333 169.165 240.356 169.461L240.303 169.574C240.023 169.568 239.69 169.578 239.479 169.365C239.302 169.186 239.353 168.762 239.36 168.526L239.58 168.525Z" fill="#D9CF42"/>
<path d="M244.397 182.767C244.392 182.714 244.388 182.661 244.385 182.608C244.369 182.346 244.368 182.121 244.551 181.916C244.798 181.757 245.079 181.772 245.362 181.764C245.425 182.044 245.505 182.31 245.416 182.594C245.273 182.743 245.197 182.794 244.984 182.804C244.794 182.814 244.587 182.784 244.397 182.767Z" fill="#E9DF46"/>
<path d="M244.237 175.598L244.897 175.607C244.657 175.668 244.511 175.657 244.375 175.882C244.223 176.133 244.202 176.467 243.918 176.612C243.687 176.66 243.522 176.62 243.298 176.562C243.297 176.299 243.246 175.917 243.386 175.688C243.613 175.535 243.973 175.592 244.237 175.598Z" fill="#D9CF42"/>
<path d="M228.994 176.905C229.004 177.333 229.117 178.024 228.796 178.364C228.424 178.759 228.212 178.433 228.069 179.118L228.054 178.03C228.064 177.874 228.105 177.767 228.176 177.627C228.366 177.55 228.56 177.524 228.761 177.493C228.96 177.309 228.944 177.167 228.994 176.905Z" fill="#D9CF42"/>
<path d="M227.976 181.716C227.975 181.987 228.003 182.286 227.868 182.53C227.544 182.774 227.256 182.708 227.058 183.084L227.056 182.145C227.093 182.015 227.138 181.888 227.182 181.76C227.439 181.618 227.689 181.691 227.976 181.716Z" fill="#D9CF42"/>
<path d="M240.169 180.777C240.192 180.56 240.214 180.28 240.342 180.097C240.536 179.819 240.911 179.788 241.22 179.726C241.247 179.998 241.318 180.322 241.189 180.572C240.906 180.786 240.516 180.759 240.169 180.777Z" fill="#645E1C"/>
<path d="M237.064 173.667C237.085 173.563 237.105 173.455 237.146 173.358C237.308 172.967 237.843 172.823 238.204 172.692C238.277 172.94 238.389 173.208 238.295 173.463C237.97 173.763 237.484 173.673 237.064 173.667Z" fill="#E9DF46"/>
<path d="M239.414 172.582C239.414 172.342 239.411 172.126 239.489 171.897C239.692 171.669 240.026 171.651 240.311 171.584C240.319 171.878 240.382 172.283 240.234 172.544L239.999 172.618L239.414 172.582Z" fill="#D9CF42"/>
<path d="M241.552 185.797L241.627 185.622C241.574 185.479 241.538 185.342 241.511 185.192C241.72 184.989 241.989 185.088 242.207 184.883C242.216 184.874 242.224 184.865 242.233 184.855C242.282 185.208 242.371 185.543 242.465 185.886L241.552 185.797Z" fill="#E9DF46"/>
</g>
<g clip-path="url(#clip3_882_115025)">
<path opacity="0.5" d="M160.5 548C138.6 585.9 126.5 604.8 114.3 604.8C102.1 604.8 90 585.9 68.2 548C90 585.9 100.4 605.9 94.3 616.4C88.2 626.9 65.7 628 22 628C67.3 628 89.8 629.1 94.9 640.7C99.7 651.5 89.3 671.4 68.2 708C90.1 670.1 102.2 651.2 114.4 651.2C126.6 651.2 138.7 670.1 160.6 708C137.4 667.7 127.2 647.7 135.8 637.7C143.4 628.9 165.8 628 206.8 628C160.6 628 138.1 626.8 133.6 614.5C129.5 603.5 139.9 583.7 160.5 548Z" fill="#E5EEFF" fill-opacity="0.5"/>
</g>
<path opacity="0.52" d="M1289 550L1295.74 621.74L1351.23 575.775L1305.26 631.265L1377 638L1305.26 644.735L1351.23 700.225L1295.74 654.26L1289 726L1282.26 654.26L1226.77 700.225L1272.74 644.735L1201 638L1272.74 631.265L1226.77 575.775L1282.26 621.74L1289 550Z" fill="#D6D6D6" fill-opacity="0.24"/>
</g>
<defs>
<clipPath id="clip0_882_115025">
<rect width="1440" height="799" fill="white"/>
</clipPath>
<clipPath id="clip1_882_115025">
<rect width="144" height="144" fill="white" transform="translate(1170 27)"/>
</clipPath>
<clipPath id="clip2_882_115025">
<rect width="78" height="70.5714" fill="white" transform="translate(217 126)"/>
</clipPath>
<clipPath id="clip3_882_115025">
<rect width="184.7" height="160" fill="white" transform="translate(22 548)"/>
</clipPath>
</defs>
</svg>
