<svg width="186" height="50" viewBox="0 0 186 50" fill="none" xmlns="http://www.w3.org/2000/svg">
<g clip-path="url(#clip0_879_5694)">
<path fill-rule="evenodd" clip-rule="evenodd" d="M0.00199854 44.208C0.00790334 46.7648 2.49973 49.2507 5.0506 49.2507H20.344C21.0644 49.2507 21.9678 48.8078 22.452 48.5539C22.9067 48.3178 22.9067 48.2823 23.2728 47.9753C24.8021 46.7057 25.2509 45.017 25.2509 42.661C25.2509 39.9211 25.5225 29.7767 24.8848 27.7336C24.4065 26.1984 23.0543 24.8462 21.5191 24.3679C19.476 23.7302 9.33157 24.0018 6.59175 24.0018C4.05859 24.0018 1.8502 24.6809 0.740098 26.7121C0.456668 27.2317 0.00199854 28.1942 -0.00390625 28.9028V44.2139L0.00199854 44.208Z" fill="white"/>
<path fill-rule="evenodd" clip-rule="evenodd" d="M23.9006 10.0739C23.9006 11.0778 23.9479 11.6446 24.9163 12.3886C25.4595 12.802 26.2094 12.9201 27.1306 12.9201C28.9906 12.9141 30.8565 12.9201 32.7165 12.9201C32.4094 13.3806 26.7408 18.9488 25.8374 19.8464C24.4852 21.1986 23.9065 21.3344 23.9065 23.2003C23.9065 24.4285 25.5185 25.9165 27.2959 25.2197C28.1639 24.8832 29.6637 23.1708 30.39 22.4386C30.8919 21.9367 35.9228 16.8172 36.342 16.5397C36.342 17.8801 36.342 19.2146 36.342 20.555C36.342 21.9012 36.218 23.3893 36.7849 24.2218C38.3615 26.5129 41.432 25.078 41.432 23.0999V10.0739C41.432 8.98156 40.2746 7.82422 39.1822 7.82422H26.1563C25.0403 7.82422 23.9065 8.95794 23.9065 10.0739H23.9006Z" fill="white"/>
<path d="M20.539 0H40.32C42.4812 0 44.4475 0.885719 45.8705 2.30877C47.2936 3.73183 48.1793 5.69813 48.1793 7.85928V28.9335C48.1793 31.0946 47.2936 33.0609 45.8705 34.484C44.4475 35.9071 42.4812 36.7928 40.32 36.7928H25.31C25.3159 35.7535 25.3159 34.6848 25.3041 33.6514H40.32C41.6132 33.6514 42.7941 33.12 43.6503 32.2638C44.5065 31.4076 45.0379 30.2325 45.0379 28.9335V7.85928C45.0379 6.56613 44.5065 5.38517 43.6503 4.52898C42.7941 3.67278 41.6191 3.14135 40.32 3.14135H20.539C19.2458 3.14135 18.0649 3.67278 17.2087 4.52898C16.3525 5.38517 15.821 6.56023 15.821 7.85928V23.9498C14.7936 23.938 13.7189 23.9321 12.6797 23.938V7.85928C12.6797 5.69813 13.5654 3.73183 14.9885 2.30877C16.4115 0.885719 18.3778 0 20.539 0Z" fill="white"/>
<path d="M8.2346 39.4145C9.79342 39.4145 11.0571 38.1508 11.0571 36.592C11.0571 35.0332 9.79342 33.7695 8.2346 33.7695C6.67578 33.7695 5.41211 35.0332 5.41211 36.592C5.41211 38.1508 6.67578 39.4145 8.2346 39.4145Z" fill="white" stroke="#1746A2" stroke-width="0.744004" stroke-miterlimit="2.61313"/>
<path d="M12.6487 39.4145C14.2075 39.4145 15.4712 38.1508 15.4712 36.592C15.4712 35.0332 14.2075 33.7695 12.6487 33.7695C11.0898 33.7695 9.82617 35.0332 9.82617 36.592C9.82617 38.1508 11.0898 39.4145 12.6487 39.4145Z" fill="white" stroke="#1746A2" stroke-width="0.744004" stroke-miterlimit="2.61313"/>
<path d="M17.0842 39.4145C18.643 39.4145 19.9067 38.1508 19.9067 36.592C19.9067 35.0332 18.643 33.7695 17.0842 33.7695C15.5254 33.7695 14.2617 35.0332 14.2617 36.592C14.2617 38.1508 15.5254 39.4145 17.0842 39.4145Z" fill="white" stroke="#1746A2" stroke-width="0.744004" stroke-miterlimit="2.61313"/>
<path d="M64.6905 30.9185C64.6905 30.145 64.4366 29.5545 63.9347 29.1412C63.4269 28.7278 62.5058 28.2909 61.1831 27.8244C58.4905 26.9505 56.4947 26.0235 55.1897 25.0314C53.8907 24.0453 53.2352 22.6223 53.2352 20.7682C53.2352 18.9554 53.997 17.4851 55.5086 16.3632C57.0261 15.2413 58.957 14.6803 61.2953 14.6803C63.7635 14.6803 65.7534 15.259 67.265 16.4104C68.7708 17.5678 69.497 19.1916 69.4557 21.2996L69.4262 21.3882H64.5429C64.5429 20.3667 64.2654 19.6286 63.7104 19.1621C63.1494 18.7015 62.3109 18.4712 61.1949 18.4712C60.2797 18.4712 59.5593 18.6956 59.0338 19.1444C58.5082 19.5931 58.2484 20.1423 58.2484 20.7977C58.2484 21.4295 58.52 21.9432 59.0574 22.3211C59.6006 22.6991 60.6044 23.1832 62.0865 23.756C64.5961 24.5 66.4974 25.4094 67.7847 26.4781C69.0719 27.5469 69.7214 29.0172 69.7214 30.8831C69.7214 32.7903 68.9774 34.2784 67.4894 35.3589C66.0014 36.4336 64.0233 36.9709 61.5669 36.9709C59.1164 36.965 57.0438 36.3923 55.3433 35.2349C53.6427 34.0835 52.816 32.2648 52.8632 29.7789L52.8928 29.6903H57.7878C57.7878 30.948 58.0949 31.8456 58.7149 32.377C59.3349 32.9025 60.2856 33.1683 61.5669 33.1683C62.618 33.1683 63.3974 32.9616 63.917 32.5423C64.4307 32.1231 64.6905 31.5799 64.6905 30.9067V30.9185ZM79.0451 33.1092C79.7241 33.1092 80.2379 32.9202 80.5744 32.5482C80.9169 32.1762 81.0822 31.6389 81.0822 30.9362H85.6644L85.6939 31.0248C85.7352 32.7785 85.127 34.2075 83.8693 35.3176C82.6175 36.4277 81.0055 36.9709 79.0451 36.9768C76.5946 36.9709 74.711 36.221 73.3824 34.7094C72.0597 33.1978 71.3984 31.2256 71.3984 28.7928V28.4503C71.3984 26.0294 72.0597 24.0631 73.3765 22.5455C74.6992 21.028 76.5769 20.2663 79.0215 20.2663C81.0645 20.2663 82.7002 20.8331 83.9225 21.9728C85.1447 23.1124 85.7411 24.6654 85.6998 26.6376L85.6703 26.7261H81.0882C81.0882 25.9644 80.9169 25.3385 80.5685 24.8602C80.2202 24.3819 79.7064 24.1398 79.0215 24.1398C78.0472 24.1398 77.3681 24.5295 76.9902 25.309C76.6064 26.0884 76.4175 27.1395 76.4175 28.4562V28.7987C76.4175 30.1509 76.6123 31.2079 76.9902 31.9696C77.374 32.7372 78.059 33.1151 79.051 33.1151L79.0451 33.1092ZM97.0429 36.6462C96.854 36.3096 96.7004 35.9258 96.5587 35.5006C96.4288 35.0814 96.3225 34.6326 96.2517 34.1662C95.8147 35.0224 95.2774 35.7014 94.6397 36.2151C94.0019 36.7229 93.1694 36.9768 92.136 36.9827C90.4473 36.9768 89.1364 36.5458 88.1975 35.6778C87.2587 34.8098 86.7922 33.6288 86.7922 32.129C86.7922 30.5347 87.3886 29.3006 88.5872 28.4326C89.7918 27.5705 91.6105 27.1336 94.0492 27.1336H96.1218V25.988C96.1218 25.309 95.9564 24.7775 95.6317 24.4114C95.3069 24.0453 94.805 23.8623 94.1259 23.8623C93.5414 23.8623 93.1044 23.9922 92.8269 24.2697C92.5435 24.5413 92.4017 24.9665 92.4017 25.5452L87.5185 25.5274L87.489 25.4389C87.424 23.9686 88.0322 22.7404 89.3253 21.7543C90.6185 20.7682 92.3309 20.2722 94.4566 20.2722C96.4465 20.2722 98.0644 20.7682 99.2985 21.7602C100.533 22.7581 101.153 24.1693 101.153 26.0175V32.0936C101.153 32.9498 101.224 33.741 101.365 34.4732C101.513 35.2113 101.725 35.9435 102.015 36.6757L97.0429 36.658V36.6462ZM93.5059 33.3867C94.12 33.3867 94.6633 33.245 95.1357 32.9557C95.608 32.6723 95.9387 32.3239 96.1277 31.9282V29.8025H94.1023C93.2993 29.8025 92.7206 30.0033 92.3663 30.3871C92.0061 30.7709 91.829 31.261 91.829 31.8574C91.829 32.3121 91.9884 32.6782 92.2955 32.9616C92.6084 33.245 93.0099 33.3808 93.5118 33.3808L93.5059 33.3867ZM109.171 36.6639H104.129V13.4581H109.171V36.6639ZM119.398 36.9768C116.954 36.9709 115.047 36.2328 113.659 34.7566C112.277 33.2804 111.581 31.4086 111.581 29.153V28.5861C111.581 26.1297 112.236 24.1221 113.541 22.581C114.846 21.0339 116.729 20.2604 119.198 20.2722C121.371 20.2722 123.059 20.9217 124.252 22.2208C125.445 23.5198 126.047 25.3031 126.047 27.5646V30.1981H116.824L116.794 30.2867C116.871 31.1311 117.184 31.8102 117.727 32.3357C118.277 32.8612 119.056 33.1151 120.078 33.1151C121.04 33.1151 121.837 33.0324 122.481 32.8789C123.118 32.7195 123.851 32.4656 124.677 32.1172L125.882 35.1818C125.185 35.6896 124.258 36.1147 123.083 36.4631C121.914 36.8056 120.68 36.9827 119.398 36.9887V36.9768ZM119.198 24.1339C118.395 24.1339 117.804 24.3878 117.42 24.9015C117.037 25.4153 116.818 26.1061 116.759 26.98L116.789 27.0509H121.129V26.6671C121.129 25.8345 120.981 25.2027 120.692 24.7775C120.396 24.3524 119.9 24.1398 119.192 24.1398L119.198 24.1339ZM133.499 29.2357V36.658H128.474V14.9933H136.747C139.315 14.9933 141.352 15.6487 142.864 16.9596C144.37 18.2705 145.126 19.9888 145.126 22.1263C145.126 24.2579 144.376 25.9762 142.864 27.2812C141.358 28.5861 139.321 29.2357 136.747 29.2357H133.499ZM133.499 25.368H136.747C137.839 25.368 138.672 25.0669 139.244 24.4705C139.817 23.8741 140.107 23.1006 140.107 22.1617C140.107 21.1992 139.823 20.408 139.25 19.7939C138.684 19.1798 137.851 18.8668 136.747 18.8668H133.499V25.368ZM156.74 36.6462C156.551 36.3096 156.398 35.9258 156.256 35.5006C156.126 35.0814 156.02 34.6326 155.949 34.1662C155.512 35.0224 154.975 35.7014 154.337 36.2151C153.699 36.7229 152.867 36.9768 151.833 36.9827C150.145 36.9768 148.834 36.5458 147.895 35.6778C146.956 34.8098 146.49 33.6288 146.49 32.129C146.49 30.5347 147.086 29.3006 148.285 28.4326C149.489 27.5705 151.308 27.1336 153.747 27.1336H155.819V25.988C155.819 25.309 155.654 24.7775 155.329 24.4114C155.004 24.0453 154.502 23.8623 153.823 23.8623C153.239 23.8623 152.802 23.9922 152.524 24.2697C152.241 24.5413 152.099 24.9665 152.099 25.5452L147.216 25.5274L147.186 25.4389C147.121 23.9686 147.73 22.7404 149.023 21.7543C150.316 20.7682 152.028 20.2722 154.154 20.2722C156.144 20.2722 157.762 20.7682 158.996 21.7602C160.23 22.7581 160.85 24.1693 160.85 26.0175V32.0936C160.85 32.9498 160.921 33.741 161.063 34.4732C161.21 35.2113 161.423 35.9435 161.712 36.6757L156.74 36.658V36.6462ZM153.203 33.3867C153.817 33.3867 154.361 33.245 154.833 32.9557C155.305 32.6723 155.636 32.3239 155.825 31.9282V29.8025H153.8C152.997 29.8025 152.418 30.0033 152.064 30.3871C151.704 30.7709 151.526 31.261 151.526 31.8574C151.526 32.3121 151.686 32.6782 151.993 32.9616C152.306 33.245 152.707 33.3808 153.209 33.3808L153.203 33.3867ZM162.934 28.6452C162.934 26.1356 163.484 24.1103 164.582 22.5751C165.68 21.0339 167.221 20.2663 169.217 20.2663C169.961 20.2663 170.634 20.4375 171.231 20.7859C171.827 21.1284 172.37 21.6126 172.843 22.2503V13.4581H177.868V36.6639H173.463L173.12 34.6976C172.636 35.4357 172.069 35.9966 171.42 36.3864C170.77 36.7761 170.02 36.9709 169.182 36.9768C167.198 36.9709 165.663 36.2387 164.57 34.7744C163.478 33.3041 162.929 31.3673 162.929 28.9522V28.6452H162.934ZM167.965 28.9522C167.965 30.2631 168.154 31.2846 168.532 32.0109C168.916 32.7431 169.56 33.1092 170.463 33.1092C170.989 33.1092 171.455 33.0147 171.857 32.8199C172.258 32.625 172.589 32.3357 172.849 31.9637V25.4625C172.589 25.0374 172.258 24.7067 171.863 24.4823C171.467 24.252 171.012 24.1339 170.499 24.1339C169.607 24.1339 168.957 24.5473 168.562 25.368C168.166 26.1888 167.965 27.2812 167.965 28.6452V28.9522ZM185.993 36.6639H180.95V20.5674H185.993V36.6639ZM185.993 16.8297H180.95V13.4521H185.993V16.8297Z" fill="white"/>
</g>
<defs>
<clipPath id="clip0_879_5694">
<rect width="186" height="49.2519" fill="white"/>
</clipPath>
</defs>
</svg>
