<svg width="104" height="28" viewBox="0 0 104 28" fill="none" xmlns="http://www.w3.org/2000/svg">
<g clip-path="url(#clip0_879_7960)">
<path fill-rule="evenodd" clip-rule="evenodd" d="M0.00134848 24.9498C0.00465009 26.3794 1.39793 27.7693 2.82422 27.7693H11.3754C11.7782 27.7693 12.2833 27.5217 12.5541 27.3797C12.8083 27.2477 12.8083 27.2279 13.013 27.0562C13.8681 26.3463 14.119 25.4021 14.119 24.0847C14.119 22.5528 14.2709 16.8806 13.9143 15.7383C13.6469 14.8799 12.8908 14.1238 12.0324 13.8564C10.89 13.4998 5.21788 13.6517 3.68594 13.6517C2.26955 13.6517 1.03475 14.0314 0.414049 15.1671C0.255572 15.4577 0.00134848 15.9958 -0.00195312 16.392V24.9531L0.00134848 24.9498Z" fill="#1746A2"/>
<path fill-rule="evenodd" clip-rule="evenodd" d="M13.3629 5.8632C13.3629 6.42447 13.3893 6.74142 13.9308 7.15743C14.2345 7.38854 14.6538 7.45457 15.1689 7.45457C16.2089 7.45127 17.2522 7.45457 18.2922 7.45457C18.1205 7.7121 14.951 10.8255 14.4458 11.3274C13.6898 12.0834 13.3662 12.1594 13.3662 13.2027C13.3662 13.8894 14.2676 14.7214 15.2613 14.3318C15.7467 14.1436 16.5853 13.1862 16.9914 12.7768C17.272 12.4961 20.085 9.63363 20.3194 9.47845C20.3194 10.2279 20.3194 10.9741 20.3194 11.7235C20.3194 12.4763 20.2501 13.3083 20.567 13.7738C21.4485 15.0549 23.1654 14.2526 23.1654 13.1465V5.8632C23.1654 5.2524 22.5183 4.60529 21.9075 4.60529H14.6241C14.0001 4.60529 13.3662 5.23919 13.3662 5.8632H13.3629Z" fill="#1746A2"/>
<path d="M11.4843 0.230652H22.5447C23.753 0.230652 24.8525 0.725893 25.6482 1.52158C26.4438 2.31727 26.9391 3.4167 26.9391 4.62509V16.4085C26.9391 17.6169 26.4438 18.7163 25.6482 19.512C24.8525 20.3077 23.753 20.803 22.5447 20.803H14.152C14.1553 20.2219 14.1553 19.6243 14.1487 19.0465H22.5447C23.2677 19.0465 23.928 18.7494 24.4068 18.2706C24.8855 17.7919 25.1826 17.1349 25.1826 16.4085V4.62509C25.1826 3.90204 24.8855 3.24172 24.4068 2.76298C23.928 2.28425 23.271 1.98711 22.5447 1.98711H11.4843C10.7612 1.98711 10.1009 2.28425 9.62217 2.76298C9.14344 3.24172 8.8463 3.89873 8.8463 4.62509V13.622C8.27182 13.6154 7.67093 13.6121 7.08984 13.6154V4.62509C7.08984 3.4167 7.58508 2.31727 8.38077 1.52158C9.17646 0.725893 10.2759 0.230652 11.4843 0.230652Z" fill="#1746A2"/>
<path d="M4.6038 22.2689C5.4754 22.2689 6.18197 21.5623 6.18197 20.6907C6.18197 19.8191 5.4754 19.1125 4.6038 19.1125C3.7322 19.1125 3.02563 19.8191 3.02563 20.6907C3.02563 21.5623 3.7322 22.2689 4.6038 22.2689Z" fill="#1746A2" stroke="white" stroke-width="0.416002" stroke-miterlimit="2.61313"/>
<path d="M7.07341 22.2689C7.945 22.2689 8.65157 21.5623 8.65157 20.6907C8.65157 19.8191 7.945 19.1125 7.07341 19.1125C6.20181 19.1125 5.49524 19.8191 5.49524 20.6907C5.49524 21.5623 6.20181 22.2689 7.07341 22.2689Z" fill="#1746A2" stroke="white" stroke-width="0.416002" stroke-miterlimit="2.61313"/>
<path d="M9.5529 22.2689C10.4245 22.2689 11.1311 21.5623 11.1311 20.6907C11.1311 19.8191 10.4245 19.1125 9.5529 19.1125C8.6813 19.1125 7.97473 19.8191 7.97473 20.6907C7.97473 21.5623 8.6813 22.2689 9.5529 22.2689Z" fill="#1746A2" stroke="white" stroke-width="0.416002" stroke-miterlimit="2.61313"/>
<path d="M36.1705 17.5179C36.1705 17.0853 36.0285 16.7552 35.7479 16.5241C35.4639 16.293 34.9489 16.0486 34.2093 15.7878C32.7038 15.2992 31.5878 14.7808 30.8582 14.2262C30.1318 13.6748 29.7653 12.8791 29.7653 11.8424C29.7653 10.8288 30.1913 10.0067 31.0365 9.3794C31.885 8.75209 32.9646 8.43844 34.272 8.43844C35.6521 8.43844 36.7648 8.762 37.61 9.40581C38.4519 10.0529 38.858 10.9609 38.8349 12.1395L38.8183 12.1891H36.0879C36.0879 11.6179 35.9327 11.2052 35.6224 10.9444C35.3087 10.6868 34.8399 10.5581 34.2159 10.5581C33.7042 10.5581 33.3014 10.6835 33.0075 10.9345C32.7137 11.1854 32.5684 11.4924 32.5684 11.8589C32.5684 12.2122 32.7203 12.4994 33.0207 12.7107C33.3245 12.922 33.8858 13.1928 34.7145 13.513C36.1176 13.929 37.1808 14.4375 37.9005 15.035C38.6203 15.6326 38.9834 16.4547 38.9834 17.498C38.9834 18.5645 38.5674 19.3965 37.7354 20.0007C36.9034 20.6016 35.7974 20.902 34.4239 20.902C33.0537 20.8987 31.8949 20.5784 30.944 19.9313C29.9932 19.2875 29.5309 18.2706 29.5573 16.8806L29.5739 16.8311H32.3109C32.3109 17.5344 32.4826 18.0362 32.8292 18.3334C33.1759 18.6272 33.7075 18.7758 34.4239 18.7758C35.0116 18.7758 35.4474 18.6602 35.7379 18.4258C36.0252 18.1914 36.1705 17.8876 36.1705 17.5113V17.5179ZM44.1967 18.7428C44.5763 18.7428 44.8636 18.6371 45.0518 18.4291C45.2433 18.2211 45.3357 17.9207 45.3357 17.5278H47.8978L47.9143 17.5773C47.9374 18.5579 47.5973 19.3568 46.8941 19.9776C46.1941 20.5983 45.2928 20.902 44.1967 20.9053C42.8265 20.902 41.7733 20.4827 41.0304 19.6375C40.2909 18.7923 39.9211 17.6895 39.9211 16.3293V16.1378C39.9211 14.7841 40.2909 13.6847 41.0271 12.8362C41.7667 11.9877 42.8166 11.5618 44.1835 11.5618C45.3258 11.5618 46.2404 11.8787 46.9238 12.5159C47.6072 13.1531 47.9407 14.0215 47.9176 15.1242L47.9011 15.1737H45.339C45.339 14.7478 45.2433 14.3978 45.0485 14.1304C44.8537 13.863 44.5664 13.7276 44.1835 13.7276C43.6387 13.7276 43.259 13.9455 43.0477 14.3813C42.8331 14.8171 42.7274 15.4048 42.7274 16.1411V16.3326C42.7274 17.0886 42.8364 17.6796 43.0477 18.1055C43.2623 18.5347 43.6453 18.7461 44.2 18.7461L44.1967 18.7428ZM54.26 20.7204C54.1543 20.5322 54.0685 20.3176 53.9892 20.0799C53.9166 19.8455 53.8572 19.5946 53.8175 19.3337C53.5732 19.8125 53.2728 20.1922 52.9162 20.4794C52.5596 20.7633 52.0941 20.9053 51.5163 20.9086C50.5721 20.9053 49.8391 20.6643 49.3141 20.1789C48.7892 19.6936 48.5284 19.0333 48.5284 18.1947C48.5284 17.3033 48.8618 16.6132 49.5321 16.1279C50.2056 15.6458 51.2225 15.4015 52.586 15.4015H53.7449V14.761C53.7449 14.3813 53.6525 14.0842 53.4709 13.8795C53.2893 13.6748 53.0086 13.5724 52.629 13.5724C52.3021 13.5724 52.0578 13.6451 51.9026 13.8002C51.7441 13.9521 51.6649 14.1898 51.6649 14.5134L48.9345 14.5035L48.918 14.454C48.8816 13.6319 49.2217 12.9451 49.9448 12.3938C50.6678 11.8424 51.6253 11.5651 52.8139 11.5651C53.9265 11.5651 54.8311 11.8424 55.5212 12.3971C56.2112 12.955 56.5579 13.7441 56.5579 14.7775V18.1749C56.5579 18.6536 56.5975 19.096 56.6767 19.5054C56.7593 19.9181 56.8781 20.3275 57.0399 20.7369L54.26 20.727V20.7204ZM52.2823 18.8979C52.6257 18.8979 52.9294 18.8187 53.1935 18.6569C53.4577 18.4984 53.6426 18.3036 53.7482 18.0824V16.8939H52.6158C52.1667 16.8939 51.8432 17.0061 51.6451 17.2207C51.4437 17.4353 51.3446 17.7093 51.3446 18.0428C51.3446 18.297 51.4338 18.5017 51.6055 18.6602C51.7804 18.8187 52.005 18.8946 52.2856 18.8946L52.2823 18.8979ZM61.0415 20.7303H58.2219V7.75501H61.0415V20.7303ZM66.7598 20.9053C65.393 20.902 64.3265 20.4893 63.5507 19.6639C62.7781 18.8385 62.3885 17.7919 62.3885 16.5307V16.2137C62.3885 14.8403 62.755 13.7177 63.4846 12.856C64.2143 11.991 65.2675 11.5585 66.6476 11.5651C67.8626 11.5651 68.8068 11.9282 69.4738 12.6546C70.1407 13.3809 70.4774 14.378 70.4774 15.6425V17.1151H65.3203L65.3038 17.1646C65.3467 17.6367 65.5217 18.0164 65.8255 18.3102C66.1325 18.6041 66.5683 18.7461 67.1395 18.7461C67.6777 18.7461 68.1234 18.6998 68.4833 18.614C68.8398 18.5248 69.2492 18.3829 69.7115 18.1881L70.385 19.9016C69.9954 20.1856 69.4771 20.4233 68.82 20.6181C68.1663 20.8096 67.4763 20.9086 66.7598 20.9119V20.9053ZM66.6476 13.7243C66.1986 13.7243 65.8684 13.8663 65.6538 14.1535C65.4392 14.4408 65.317 14.827 65.284 15.3157L65.3005 15.3553H67.7272V15.1407C67.7272 14.6752 67.6447 14.3219 67.4829 14.0842C67.3178 13.8465 67.0405 13.7276 66.6443 13.7276L66.6476 13.7243ZM74.6441 16.5769V20.727H71.8344V8.61343H76.4599C77.8961 8.61343 79.0352 8.97991 79.8804 9.71286C80.7223 10.4458 81.1449 11.4066 81.1449 12.6018C81.1449 13.7936 80.7256 14.7544 79.8804 15.4841C79.0385 16.2137 77.8994 16.5769 76.4599 16.5769H74.6441ZM74.6441 14.4143H76.4599C77.0707 14.4143 77.5363 14.246 77.8565 13.9125C78.1768 13.579 78.3386 13.1465 78.3386 12.6216C78.3386 12.0834 78.1801 11.641 77.8598 11.2976C77.5429 10.9543 77.0773 10.7793 76.4599 10.7793H74.6441V14.4143ZM87.6392 20.7204C87.5335 20.5322 87.4477 20.3176 87.3684 20.0799C87.2958 19.8455 87.2364 19.5946 87.1968 19.3337C86.9524 19.8125 86.652 20.1922 86.2954 20.4794C85.9389 20.7633 85.4733 20.9053 84.8955 20.9086C83.9513 20.9053 83.2183 20.6643 82.6934 20.1789C82.1684 19.6936 81.9076 19.0333 81.9076 18.1947C81.9076 17.3033 82.2411 16.6132 82.9113 16.1279C83.5848 15.6458 84.6017 15.4015 85.9653 15.4015H87.1241V14.761C87.1241 14.3813 87.0317 14.0842 86.8501 13.8795C86.6685 13.6748 86.3879 13.5724 86.0082 13.5724C85.6813 13.5724 85.437 13.6451 85.2818 13.8002C85.1234 13.9521 85.0441 14.1898 85.0441 14.5134L82.3137 14.5035L82.2972 14.454C82.2609 13.6319 82.6009 12.9451 83.324 12.3938C84.047 11.8424 85.0045 11.5651 86.1931 11.5651C87.3057 11.5651 88.2104 11.8424 88.9004 12.3971C89.5904 12.955 89.9371 13.7441 89.9371 14.7775V18.1749C89.9371 18.6536 89.9767 19.096 90.056 19.5054C90.1385 19.9181 90.2574 20.3275 90.4191 20.7369L87.6392 20.727V20.7204ZM85.6615 18.8979C86.0049 18.8979 86.3086 18.8187 86.5728 18.6569C86.8369 18.4984 87.0218 18.3036 87.1274 18.0824V16.8939H85.995C85.546 16.8939 85.2224 17.0061 85.0243 17.2207C84.8229 17.4353 84.7239 17.7093 84.7239 18.0428C84.7239 18.297 84.813 18.5017 84.9847 18.6602C85.1597 18.8187 85.3842 18.8946 85.6648 18.8946L85.6615 18.8979ZM91.1026 16.2467C91.1026 14.8436 91.4096 13.7111 92.0237 12.8527C92.6378 11.991 93.4995 11.5618 94.6155 11.5618C95.0315 11.5618 95.4079 11.6575 95.7413 11.8523C96.0748 12.0438 96.3785 12.3145 96.6427 12.6711V7.75501H99.4523V20.7303H96.9893L96.7978 19.6309C96.5271 20.0436 96.2101 20.3572 95.847 20.5751C95.4838 20.793 95.0645 20.902 94.5957 20.9053C93.4863 20.902 92.6279 20.4926 92.0171 19.6738C91.4063 18.8517 91.0993 17.7688 91.0993 16.4184V16.2467H91.1026ZM93.9155 16.4184C93.9155 17.1514 94.0212 17.7226 94.2325 18.1287C94.4471 18.5381 94.807 18.7428 95.3121 18.7428C95.6059 18.7428 95.8668 18.6899 96.0913 18.581C96.3158 18.472 96.5007 18.3102 96.646 18.1022V14.4672C96.5007 14.2295 96.3158 14.0446 96.0946 13.9191C95.8734 13.7903 95.6192 13.7243 95.3319 13.7243C94.8334 13.7243 94.4702 13.9554 94.249 14.4143C94.0278 14.8733 93.9155 15.4841 93.9155 16.2467V16.4184ZM103.995 20.7303H101.176V11.7301H103.995V20.7303ZM103.995 9.64023H101.176V7.75171H103.995V9.64023Z" fill="#1746A2"/>
</g>
<defs>
<clipPath id="clip0_879_7960">
<rect width="104" height="27.5387" fill="white" transform="translate(0 0.230652)"/>
</clipPath>
</defs>
</svg>
